<svg width="25" height="24" viewBox="0 0 25 24" fill="none" xmlns="http://www.w3.org/2000/svg">
<g clip-path="url(#clip0_441_23450)">
<path d="M12.5 24C19.1274 24 24.5 18.6274 24.5 12C24.5 5.37258 19.1274 0 12.5 0C5.87258 0 0.5 5.37258 0.5 12C0.5 18.6274 5.87258 24 12.5 24Z" fill="url(#paint0_linear_441_23450)"/>
<path d="M8.6228 12.8773L10.0465 16.8179C10.0465 16.8179 10.2245 17.1866 10.4151 17.1866C10.6057 17.1866 13.4406 14.2374 13.4406 14.2374L16.5931 8.14844L8.6736 11.8601L8.6228 12.8773Z" fill="#C8DAEA"/>
<path d="M10.5105 13.8887L10.2372 16.7933C10.2372 16.7933 10.1228 17.6833 11.0126 16.7933C11.9024 15.9033 12.7541 15.217 12.7541 15.217" fill="#A9C6D8"/>
<path d="M8.64871 13.0183L5.72011 12.0641C5.72011 12.0641 5.37011 11.9221 5.48281 11.6001C5.50601 11.5337 5.55281 11.4772 5.69281 11.3801C6.34171 10.9278 17.7034 6.84408 17.7034 6.84408C17.7034 6.84408 18.0242 6.73598 18.2134 6.80788C18.2602 6.82237 18.3023 6.84903 18.3355 6.88514C18.3686 6.92124 18.3915 6.9655 18.4019 7.01338C18.4224 7.09795 18.4309 7.18495 18.4273 7.27188C18.4264 7.34708 18.4173 7.41678 18.4104 7.52608C18.3412 8.64258 16.2704 16.9754 16.2704 16.9754C16.2704 16.9754 16.1465 17.463 15.7026 17.4797C15.5935 17.4832 15.4848 17.4647 15.383 17.4253C15.2812 17.386 15.1884 17.3265 15.1101 17.2505C14.239 16.5012 11.2282 14.4778 10.5629 14.0328C10.5479 14.0226 10.5353 14.0092 10.5258 13.9937C10.5164 13.9782 10.5104 13.9608 10.5083 13.9428C10.499 13.8959 10.55 13.8378 10.55 13.8378C10.55 13.8378 15.7926 9.17778 15.9321 8.68858C15.9429 8.65068 15.9021 8.63198 15.8473 8.64858C15.4991 8.77668 9.46291 12.5886 8.79671 13.0093C8.74875 13.0238 8.69807 13.0269 8.64871 13.0183Z" fill="white"/>
</g>
<defs>
<linearGradient id="paint0_linear_441_23450" x1="12.5" y1="24" x2="12.5" y2="0" gradientUnits="userSpaceOnUse">
<stop stop-color="#1D93D2"/>
<stop offset="1" stop-color="#38B0E3"/>
</linearGradient>
<clipPath id="clip0_441_23450">
<rect width="24" height="24" fill="white" transform="translate(0.5)"/>
</clipPath>
</defs>
</svg>
