<?xml version="1.0" encoding="UTF-8"?> <svg xmlns="http://www.w3.org/2000/svg" width="300" height="300" viewBox="0 0 300 300" fill="none"><rect width="300" height="300" rx="150" fill="black"></rect><path d="M180.074 115.052L157.206 157.345H147.124L167.572 115.052H180.074ZM152.972 115.052L130.103 157.345H119.033L141.661 115.052H152.972ZM155.212 157.345H145.351L143.958 115.052H152.976L155.212 157.345ZM126.781 157.345H117.519L116.247 115.052H127.381L126.781 157.345ZM218.483 157.345H207.649L218.6 115.052H229.489L218.483 157.345ZM179.593 157.345H168.704L179.719 115.052H190.546L179.593 157.345ZM175.181 115.052H241.972L239.488 124.056H172.695L175.181 115.052ZM181.112 115.052H195.986C202.463 115.052 212.079 118.984 209.296 131.67C207.726 138.977 202.161 146.711 191.052 146.711H172.721C172.658 146.955 174.718 137.894 174.775 137.649H190.447C194.921 137.591 197.586 135.051 198.608 131.187C199.458 127.921 198.791 124.056 194.134 124.056H178.643L181.112 115.052Z" fill="white"></path><path d="M128.776 185.418H124.853L125.388 183.472C123.375 185.292 121.796 185.945 119.384 185.945C117.32 186.001 115.308 185.285 113.744 183.935C112.094 182.419 111.372 180.288 111.522 177.415C111.674 174.261 112.792 171.23 114.726 168.734C117.045 165.81 120.183 164.286 124.083 164.286C127.232 164.286 129.709 165.34 131.067 167.251C131.96 168.505 132.265 169.721 132.195 171.667H127.498V171.203C127.565 169.29 126.09 167.991 123.864 167.991C122.697 168.02 121.557 168.351 120.556 168.951C119.555 169.551 118.727 170.401 118.152 171.416C117.111 173.176 116.498 175.157 116.363 177.198C116.199 180.259 117.92 182.235 120.761 182.235C121.614 182.24 122.457 182.048 123.222 181.672C123.988 181.297 124.656 180.749 125.174 180.071C125.744 179.343 126.141 178.494 126.336 177.59H121.987L123.02 173.789H131.85L128.776 185.418Z" fill="white"></path><path d="M137.58 181.461H146.635L145.561 185.414H131.682L137.151 164.804H141.972L137.58 181.461Z" fill="white"></path><path d="M169.642 173.37C169.427 176.316 168.39 179.141 166.649 181.527C164.485 184.452 161.255 185.947 157.116 185.947C151.12 185.947 147.682 182.605 147.974 177.045C148.15 173.704 149.536 170.22 151.601 167.931C153.666 165.643 156.831 164.288 160.374 164.288C166.624 164.286 169.946 167.565 169.642 173.37ZM154.882 170.838C153.671 172.707 152.961 174.856 152.823 177.079C152.661 180.262 154.378 182.237 157.344 182.237C158.506 182.259 159.652 181.966 160.661 181.39C161.671 180.813 162.505 179.975 163.077 178.963C164.061 177.251 164.647 175.34 164.79 173.37C164.973 169.813 163.431 167.993 160.218 167.993C159.158 167.966 158.109 168.213 157.173 168.712C156.237 169.21 155.447 169.943 154.878 170.838H154.882Z" fill="white"></path><path d="M174.603 164.806H182.425C184.893 164.806 186.485 165.149 187.647 165.921C188.264 166.362 188.757 166.955 189.078 167.642C189.399 168.329 189.538 169.087 189.48 169.843C189.355 172.254 187.899 174.046 185.42 174.85C187.265 175.56 188.069 176.767 187.969 178.651C187.905 179.694 187.609 180.709 187.103 181.623C186.597 182.537 185.893 183.327 185.043 183.934C183.443 185.046 181.701 185.418 178.263 185.418H169.117L174.603 164.806ZM178.781 181.46C181.501 181.46 183.033 180.503 183.13 178.712C183.205 177.32 182.294 176.702 180.147 176.702H176.098L174.844 181.46H178.781ZM180.611 173.055C182.374 173.055 183.185 172.901 183.89 172.379C184.186 172.181 184.43 171.915 184.602 171.603C184.775 171.292 184.87 170.943 184.881 170.588C184.952 169.254 184.142 168.761 181.793 168.761H178.179L177.06 173.055H180.611Z" fill="white"></path><path d="M193.955 181.215L191.569 185.418H186.497L198.798 164.806H203.77L205.624 185.416H200.967L200.72 181.214L193.955 181.215ZM200.28 173.12L200.196 170L199.988 170.418L199.57 171.219C199.218 171.963 199.018 172.273 198.542 173.136L196.123 177.431H200.446L200.28 173.12Z" fill="white"></path><path d="M212.168 181.461H221.221L220.152 185.414H206.28L211.75 164.804H216.579L212.168 181.461Z" fill="white"></path><path d="M46.3089 181.295C46.1864 181.782 46.1764 182.29 46.2797 182.781C46.3829 183.272 46.5968 183.733 46.905 184.129C47.2131 184.525 47.6075 184.846 48.0582 185.067C48.5089 185.288 49.004 185.404 49.506 185.404H84.7497C86.2284 185.407 87.6651 184.913 88.83 184.003C89.9949 183.092 90.8208 181.817 91.1754 180.382L104.559 128.589C104.676 128.104 104.682 127.598 104.576 127.111C104.47 126.623 104.256 126.166 103.948 125.773C103.64 125.38 103.248 125.062 102.8 124.842C102.352 124.623 101.86 124.507 101.361 124.504H66.1184C64.641 124.504 63.2059 124.997 62.042 125.907C60.8779 126.817 60.0523 128.09 59.6968 129.524L46.3089 181.295Z" fill="#FF0049"></path><path d="M36.8814 171.869C36.7594 172.356 36.7498 172.864 36.8533 173.355C36.9568 173.846 37.1707 174.307 37.4787 174.703C37.7868 175.099 38.1809 175.42 38.6313 175.641C39.0817 175.863 39.5766 175.978 40.0784 175.98H75.3223C76.8042 175.981 78.2436 175.484 79.4092 174.569C80.5746 173.654 81.3987 172.374 81.7492 170.934L95.1318 119.139C95.249 118.654 95.255 118.149 95.1494 117.662C95.0437 117.174 94.829 116.717 94.5216 116.324C94.214 115.931 93.8216 115.613 93.3736 115.393C92.9255 115.173 92.4336 115.058 91.9346 115.055H56.6908C55.2128 115.054 53.7773 115.549 52.6134 116.459C51.4494 117.37 50.624 118.644 50.2691 120.079L36.8814 171.869Z" fill="#005EE1"></path><path d="M81.7635 170.916L93.7676 124.45H66.1158C64.6383 124.45 63.2034 124.945 62.04 125.855C60.8767 126.766 60.0522 128.04 59.6979 129.474L47.6953 175.934H75.3366C76.8149 175.936 78.2513 175.443 79.4164 174.534C80.5815 173.624 81.4078 172.35 81.7635 170.916Z" fill="white"></path><path d="M65.5895 155.33C64.3335 155.375 61.9351 154.517 62.6573 151.475C63.3372 148.585 67.7585 145.151 71.1295 142.525C71.5459 142.205 71.9426 141.896 72.3156 141.612L72.5792 141.48L72.7702 141.612C73.0074 141.909 73.2591 142.22 73.5241 142.525C75.6575 145.146 78.4566 148.586 77.7765 151.475C77.5299 152.555 76.9288 153.522 76.0689 154.22C75.2091 154.919 74.1402 155.31 73.0324 155.33C71.9321 155.288 70.5286 154.992 69.6984 153.705C68.5718 154.72 67.1178 155.297 65.6012 155.33H65.5895Z" fill="black"></path><path d="M68.6122 158.325C66.6856 158.325 65.0225 158.457 65.0225 158.457L64.9131 158.001C66.4655 158.001 69.316 155.339 69.316 155.339C69.316 155.339 70.9144 158.001 72.4787 158.001L72.1452 158.457C72.1452 158.457 70.5271 158.325 68.6122 158.325Z" fill="black"></path><path d="M254.756 115.052L254.376 116.502H252.363L250.751 122.6H248.893L250.51 116.502H248.502L248.89 115.052H254.756Z" fill="white"></path><path d="M264 115.052L261.999 122.606H260.155L261.364 118.076L258.465 122.606H256.975L256.469 118.054L255.27 122.606H253.424L255.423 115.052H257.601L258.353 120.283L261.833 115.052H264Z" fill="white"></path></svg> 