<?xml version="1.0" encoding="UTF-8"?> <svg xmlns="http://www.w3.org/2000/svg" width="300" height="300" viewBox="0 0 300 300" fill="none"><rect width="300" height="300" rx="150" fill="#090D12"></rect><g clip-path="url(#clip0_263_21826)"><path d="M31 138.555H37.3006V167.976H31V138.555Z" fill="url(#paint0_linear_263_21826)"></path><path d="M75.6803 168V138.555H80.4412L100.503 157.72V138.535H106.829V167.976H102.068L82.006 148.733V168H75.6803Z" fill="url(#paint1_linear_263_21826)"></path><path d="M70.2225 140.694C68.7579 139.275 66.9721 138.555 64.915 138.555H39.7124V144.387H41.2855V167.976H64.915C66.9721 167.976 68.7579 167.256 70.2267 165.837C71.6954 164.418 72.4382 162.677 72.4382 160.668V145.863C72.4382 143.854 71.6954 142.118 70.2267 140.694H70.2225ZM66.1083 160.18C66.1083 160.778 65.9247 161.238 65.5242 161.624C65.1278 162.01 64.6479 162.193 64.0178 162.193H47.607V144.322H64.0178C64.6437 144.322 65.1194 144.505 65.5158 144.895C65.9164 145.289 66.1042 145.757 66.1042 146.359V160.184L66.1083 160.18Z" fill="url(#paint2_linear_263_21826)"></path><path d="M113.722 138.539H131.268C133.15 138.539 134.752 139.19 136.087 140.487C137.418 141.784 138.086 143.35 138.086 145.179V150.116C138.086 151.95 137.418 153.507 136.087 154.801C134.756 156.09 133.15 156.732 131.268 156.732H113.722V167.972H109.579V138.539H113.722ZM113.722 153.085H130.296C131.343 153.085 132.215 152.747 132.903 152.076C133.592 151.405 133.938 150.563 133.938 149.559V145.716C133.938 144.712 133.592 143.87 132.903 143.187C132.211 142.508 131.343 142.166 130.296 142.166H113.722V153.089V153.085Z" fill="url(#paint3_linear_263_21826)"></path><path d="M181.894 138.539V153.499L200.391 138.539H206.579L189.384 152.503L206.579 167.972H200.291L186.012 155.179L181.894 158.513V167.976H177.726V138.539H181.894Z" fill="url(#paint4_linear_263_21826)"></path><path d="M235.433 138.539V142.26H214.365C213.318 142.26 212.45 142.593 211.77 143.256C211.086 143.923 210.748 144.765 210.748 145.785V150.893H231.264V154.613H210.748V160.717C210.748 161.738 211.09 162.584 211.77 163.246C212.45 163.909 213.318 164.243 214.365 164.243H235.433V167.963H213.393C211.511 167.963 209.909 167.317 208.578 166.016C207.247 164.718 206.579 163.153 206.579 161.319V145.167C206.579 143.333 207.243 141.772 208.578 140.475C209.909 139.177 211.515 138.527 213.393 138.527H235.433V138.539Z" fill="url(#paint5_linear_263_21826)"></path><path d="M261.161 138.539C263.176 138.539 264.816 138.982 266.089 139.865C267.362 140.747 268 142.056 268 143.793V148.705C268 150.555 267.666 151.787 267.003 152.401C266.335 153.019 265.263 153.324 263.782 153.324C265.246 153.682 266.314 154.268 266.99 155.089C267.666 155.911 268 157.208 268 158.993V167.967H263.681V158.334C263.681 156.614 262.467 155.756 260.039 155.756H242.268V167.967H238.099V138.539H261.161ZM242.263 152.039H260.035C262.463 152.039 263.677 151.181 263.677 149.461V144.574C263.677 142.853 262.463 141.995 260.035 141.995H242.263V152.044V152.039Z" fill="url(#paint6_linear_263_21826)"></path><path d="M151.492 142.768C151.288 142.162 151.179 141.516 151.179 140.845C151.179 137.429 154.021 134.66 157.526 134.66C161.031 134.66 163.873 137.429 163.873 140.845C163.873 141.516 163.76 142.162 163.56 142.768H163.572L167.574 139.84C167.106 135.376 163.564 131.793 159.053 131.122L155.69 131.167C151.326 131.952 147.933 135.481 147.478 139.844L151.476 142.772H151.497L151.492 142.768Z" fill="url(#paint7_linear_263_21826)"></path><path d="M159.049 131.122C158.548 131.049 158.043 131 157.522 131C156.896 131 156.283 131.061 155.686 131.167C151.321 131.952 147.929 135.481 147.474 139.844L151.472 142.772H151.492C151.288 142.166 151.179 141.52 151.179 140.849C151.179 137.433 154.021 134.664 157.526 134.664C161.031 134.664 163.873 137.433 163.873 140.849C163.873 141.52 163.76 142.166 163.56 142.772H163.572L167.574 139.844C167.106 135.379 163.564 131.797 159.053 131.126L159.049 131.122Z" fill="url(#paint8_linear_263_21826)"></path><path d="M175.351 150.795C175.351 145.842 172.101 141.544 167.569 139.861V139.84L163.568 142.768C168.024 142.878 171.6 146.428 171.6 150.795C171.6 155.162 167.912 158.826 163.359 158.826C162.166 158.826 161.031 158.578 160.005 158.131C160.021 158.159 160.038 158.184 160.059 158.208L167.09 161.905C171.884 160.371 175.351 155.972 175.351 150.795Z" fill="url(#paint9_linear_263_21826)"></path><path d="M151.689 158.826C147.136 158.826 143.448 155.232 143.448 150.795C143.448 146.359 147.024 142.882 151.472 142.768L147.474 139.84V139.857C142.943 141.54 139.692 145.838 139.692 150.791C139.692 155.744 143.139 160.335 147.904 161.884L155.043 158.127C154.021 158.574 152.886 158.822 151.689 158.822V158.826Z" fill="url(#paint10_linear_263_21826)"></path><path d="M143.252 167.972H172.113L167.077 161.913C167.077 161.913 167.085 161.913 167.09 161.909L160.059 158.212C162.124 161.262 162.788 161.998 164.315 164.316H150.683C152.377 161.713 152.79 161.713 155.039 158.135L147.9 161.892C147.925 161.9 147.946 161.909 147.967 161.917L143.247 167.976L143.252 167.972Z" fill="url(#paint11_linear_263_21826)"></path><path d="M155.039 158.131L147.9 161.888C147.925 161.896 147.946 161.904 147.967 161.913L143.335 167.858L150.695 164.287C152.377 161.709 152.794 161.697 155.035 158.131H155.039Z" fill="url(#paint12_linear_263_21826)"></path><path d="M172.109 167.971L167.073 161.913C167.073 161.913 167.081 161.913 167.085 161.909L160.055 158.212C162.103 161.238 162.775 161.99 164.277 164.263L172.088 167.976H172.109V167.971Z" fill="url(#paint13_linear_263_21826)"></path><path d="M172.088 167.972L164.277 164.259C164.277 164.259 164.302 164.296 164.311 164.312H150.679C150.679 164.312 150.687 164.296 150.695 164.287L143.335 167.858L143.247 167.972H172.088Z" fill="url(#paint14_linear_263_21826)"></path><path d="M172.088 167.972L164.277 164.259C164.277 164.259 164.302 164.296 164.311 164.312H150.679C150.679 164.312 150.687 164.296 150.695 164.287L143.335 167.858L143.247 167.972H172.088Z" fill="url(#paint15_linear_263_21826)"></path></g><defs><linearGradient id="paint0_linear_263_21826" x1="34.1503" y1="142.142" x2="34.1503" y2="164.914" gradientUnits="userSpaceOnUse"><stop stop-color="#F1F2F2"></stop><stop offset="1" stop-color="#808285"></stop></linearGradient><linearGradient id="paint1_linear_263_21826" x1="91.2525" y1="142.142" x2="91.2525" y2="164.914" gradientUnits="userSpaceOnUse"><stop stop-color="#F1F2F2"></stop><stop offset="1" stop-color="#808285"></stop></linearGradient><linearGradient id="paint2_linear_263_21826" x1="56.0732" y1="131" x2="56.0732" y2="131" gradientUnits="userSpaceOnUse"><stop stop-color="#F1F2F2"></stop><stop offset="1" stop-color="#808285"></stop></linearGradient><linearGradient id="paint3_linear_263_21826" x1="123.828" y1="138.629" x2="123.828" y2="169.167" gradientUnits="userSpaceOnUse"><stop stop-color="#00C3D8"></stop><stop offset="1" stop-color="#005678"></stop></linearGradient><linearGradient id="paint4_linear_263_21826" x1="192.154" y1="131" x2="192.154" y2="131" gradientUnits="userSpaceOnUse"><stop stop-color="#00C3D8"></stop><stop offset="1" stop-color="#005678"></stop></linearGradient><linearGradient id="paint5_linear_263_21826" x1="221.008" y1="131" x2="221.008" y2="131" gradientUnits="userSpaceOnUse"><stop stop-color="#00C3D8"></stop><stop offset="1" stop-color="#005678"></stop></linearGradient><linearGradient id="paint6_linear_263_21826" x1="253.045" y1="131" x2="253.045" y2="131" gradientUnits="userSpaceOnUse"><stop stop-color="#00C3D8"></stop><stop offset="1" stop-color="#005678"></stop></linearGradient><linearGradient id="paint7_linear_263_21826" x1="139.692" y1="136.945" x2="175.351" y2="136.945" gradientUnits="userSpaceOnUse"><stop stop-color="#00C3D8"></stop><stop offset="1" stop-color="#005678"></stop></linearGradient><linearGradient id="paint8_linear_263_21826" x1="151.413" y1="136.884" x2="169.635" y2="136.884" gradientUnits="userSpaceOnUse"><stop stop-color="#15B586"></stop><stop offset="1" stop-color="#009FD1"></stop></linearGradient><linearGradient id="paint9_linear_263_21826" x1="167.678" y1="137.815" x2="167.678" y2="169.879" gradientUnits="userSpaceOnUse"><stop stop-color="#894B92"></stop><stop offset="1" stop-color="#0367DC"></stop></linearGradient><linearGradient id="paint10_linear_263_21826" x1="147.366" y1="138.425" x2="147.366" y2="159.27" gradientUnits="userSpaceOnUse"><stop stop-color="#0C4B92"></stop><stop offset="1" stop-color="#0395DE"></stop></linearGradient><linearGradient id="paint11_linear_263_21826" x1="139.692" y1="163.051" x2="175.351" y2="163.051" gradientUnits="userSpaceOnUse"><stop stop-color="#00C3D8"></stop><stop offset="1" stop-color="#005678"></stop></linearGradient><linearGradient id="paint12_linear_263_21826" x1="150.85" y1="166.186" x2="147.346" y2="159.103" gradientUnits="userSpaceOnUse"><stop stop-color="#894B92"></stop><stop offset="1" stop-color="#0367DC"></stop></linearGradient><linearGradient id="paint13_linear_263_21826" x1="166.084" y1="168.72" x2="166.084" y2="158.745" gradientUnits="userSpaceOnUse"><stop stop-color="#0C4B92"></stop><stop offset="1" stop-color="#0395DE"></stop></linearGradient><linearGradient id="paint14_linear_263_21826" x1="157.668" y1="151.816" x2="157.668" y2="173.482" gradientUnits="userSpaceOnUse"><stop stop-color="#00C3D8"></stop><stop offset="1" stop-color="#005678"></stop></linearGradient><linearGradient id="paint15_linear_263_21826" x1="170.503" y1="166.113" x2="146.406" y2="166.113" gradientUnits="userSpaceOnUse"><stop stop-color="#15B586"></stop><stop offset="1" stop-color="#009FD1"></stop></linearGradient><clipPath id="clip0_263_21826"><rect width="237" height="37" fill="white" transform="translate(31 131)"></rect></clipPath></defs></svg> 