<?xml version="1.0" encoding="UTF-8"?> <svg xmlns="http://www.w3.org/2000/svg" width="300" height="300" viewBox="0 0 300 300" fill="none"><g clip-path="url(#clip0_263_21845)"><rect width="300" height="300" rx="150" fill="white"></rect><mask id="mask0_263_21845" style="mask-type:luminance" maskUnits="userSpaceOnUse" x="0" y="0" width="300" height="300"><path d="M300 0V300H0V0H300Z" fill="white"></path></mask><g mask="url(#mask0_263_21845)"><mask id="mask1_263_21845" style="mask-type:luminance" maskUnits="userSpaceOnUse" x="40" y="81" width="221" height="159"><path d="M261 81V240H40.5V81H261Z" fill="white"></path></mask><g mask="url(#mask1_263_21845)"><path d="M132.682 235.889C131.501 234.14 130.977 232.216 131.501 230.16C134.125 220.452 134.169 210.525 133.776 200.598C133.732 199.548 133.338 198.542 133.032 197.58C132.682 196.618 133.163 196.137 134.038 196.312C140.248 197.886 146.327 195.656 152.362 195.175C154.942 195.044 157.566 193.994 160.146 193.732C161.195 193.688 162.507 194.213 163.469 194.869C166.224 196.706 165.875 196.837 165.262 200.029C164.65 203.222 164.65 206.545 164.694 209.738C164.869 216.866 165.175 223.95 165.437 231.079C165.481 233.703 164.65 236.195 163.076 238.251C161.895 239.825 161.327 239.694 160.321 238.032C159.052 236.02 157.697 234.053 156.21 231.735C156.91 231.822 157.566 231.735 158.047 231.91C160.845 232.609 161.545 232.303 161.633 229.373C161.895 224.169 161.939 218.921 161.895 213.761C161.808 209.155 161.574 204.548 161.195 199.942C161.02 197.405 159.927 196.618 157.303 196.837C151.749 197.405 146.152 198.061 140.641 198.761C136.88 199.242 136.88 199.329 136.618 203.134C136.312 209.169 136.137 215.292 135.743 221.327C135.525 225.306 134.956 229.198 134.431 233.178C134.257 234.14 133.732 235.015 133.338 235.933C133.163 235.933 132.945 235.889 132.682 235.889Z" fill="black"></path><path d="M102.551 232.216C104.475 230.86 106.181 229.679 107.93 228.411C108.017 228.499 108.149 228.63 108.236 228.717C108.061 229.023 107.93 229.417 107.668 229.767C105.394 232.828 103.207 235.933 100.933 238.951C100.583 239.344 100.058 240 99.6646 239.913C99.271 239.913 98.79 239.213 98.5713 238.732C97.6967 236.983 97.7842 235.452 98.6151 233.484C99.7521 231.035 100.146 228.061 100.277 225.394C100.583 220.146 100.933 214.898 99.3585 209.825C99.0087 208.688 99.6646 208.207 100.539 208.601C102.245 209.388 103.426 208.688 104.519 207.595C106.181 206.064 107.755 204.49 109.417 202.959C109.723 202.653 110.423 202.347 110.816 202.478C111.603 202.741 112.391 203.222 113.047 203.746C113.965 204.577 113.834 205.19 112.697 205.671C110.029 206.764 107.361 207.901 104.781 209.082C102.114 210.262 101.764 212.974 103.907 215.029C104.606 215.685 105.262 216.341 105.875 217.041C106.662 218.003 107.449 218.003 108.061 216.953C109.329 215.117 110.598 213.236 111.691 211.312C112.172 210.437 112.697 210.044 113.44 210.612C114.227 211.225 115.014 212.012 115.321 212.886C115.452 213.236 114.359 214.111 113.659 214.592C112.084 215.773 110.335 216.953 108.805 218.134C108.017 218.703 108.149 219.271 108.717 219.796C112.784 224.038 117.42 227.187 123.105 228.892C124.023 229.198 124.81 229.811 125.685 230.292C124.81 230.641 124.023 231.079 123.105 231.254C121.705 231.516 120.262 231.56 118.775 231.735C116.195 232.041 114.359 230.773 112.872 228.805C110.204 225.044 107.449 221.414 104.781 217.653C104.3 216.953 103.688 216.385 103.119 215.773C102.945 215.86 102.726 215.86 102.551 215.904C102.551 221.239 102.551 226.487 102.551 232.216Z" fill="black"></path><path fill-rule="evenodd" clip-rule="evenodd" d="M221.589 221.239C218.659 221.633 215.773 222.201 212.842 222.42C211.924 222.507 210.831 221.633 210.044 220.933C207.595 218.79 205.321 216.472 203.003 214.154C202.172 213.28 201.691 213.28 200.816 214.242C197.449 217.653 193.732 220.627 189.184 222.201C188.703 222.376 188.178 222.42 187.609 222.507C187.522 222.361 187.449 222.201 187.391 222.026C188.09 221.545 188.703 221.108 189.402 220.671C193.119 218.484 196.487 215.86 199.329 212.58C200.029 211.705 200.291 211.006 199.242 210.262C198.848 210.044 198.63 209.65 198.236 209.344C195.612 206.939 195.568 206.939 192.813 209.082C192.245 209.563 191.545 209.869 190.889 210.262C190.758 210.131 190.67 209.956 190.496 209.825C190.889 209.344 191.239 208.775 191.633 208.294C194.519 204.883 197.055 201.166 198.542 196.837C199.023 195.481 199.154 193.994 199.242 192.551C199.329 191.283 199.898 191.152 200.816 191.676C201.385 192.026 201.91 192.332 202.391 192.726C203.659 193.513 203.877 194.3 202.784 195.656C201.472 197.23 200.423 199.154 199.417 201.166C201.778 201.21 203.746 200.729 205.627 199.548C207.026 198.586 210.35 199.854 210.656 201.603C210.743 201.997 210.35 202.478 210.044 202.872C207.988 205.496 205.845 208.119 203.877 210.831C203.659 211.137 204.052 212.274 204.446 212.668C208.863 216.472 213.98 218.703 219.621 219.883C220.321 220.058 220.977 220.277 221.676 220.539C221.589 220.627 221.589 220.933 221.589 221.239ZM201.385 209.475C202.609 207.507 203.877 205.583 204.971 203.615C205.539 202.653 205.321 201.866 203.965 201.953C202.216 202.084 200.423 202.347 198.717 202.478C198.455 202.478 198.236 202.653 198.149 202.828C197.449 203.834 196.749 204.883 196.006 205.758C197.842 207.114 199.504 208.207 201.385 209.475Z" fill="black"></path><path d="M85.3207 238.032C85.5831 237.595 85.8017 237.157 86.1953 236.808C90.6122 231.91 92.7551 225.875 93.5422 219.402C93.9795 215.773 94.1545 212.099 94.2419 208.469C94.3294 206.72 93.9358 204.883 93.586 203.134C93.4548 201.953 93.5422 201.297 95.0291 201.56C95.5539 201.604 96.2536 201.472 96.7347 201.122C98.7901 199.461 100.845 197.711 102.726 195.918C103.513 195.087 104.082 193.994 104.388 192.901C104.869 191.545 105.568 191.195 106.749 191.764C107.755 192.245 108.761 192.813 109.723 193.513C111.079 194.475 110.816 195.087 109.417 195.918C105.656 197.886 101.851 199.854 98.1778 201.997C97.6093 202.347 97.1282 203.309 97.1282 203.921C96.997 211.968 96.3411 219.883 94.3294 227.624C93.2215 231.735 90.9329 235.058 87.4635 237.595C86.9825 237.945 86.3702 238.163 85.8892 238.469C85.583 238.251 85.4081 238.076 85.3207 238.032Z" fill="black"></path><path d="M183.28 209.169C181.399 209.738 179.431 210.219 177.595 210.918C176.764 211.224 175.802 211.705 175.496 210.525C175.277 209.65 175.277 208.119 175.714 207.726C180.437 204.184 181.531 199.067 182.099 193.601C182.187 193.032 182.274 192.507 182.405 191.939C182.974 192.07 183.586 192.157 184.154 192.507C186.516 193.907 186.603 194.65 185.16 196.924C183.105 200.291 181.137 203.703 179.169 207.114C181.793 208.601 185.073 207.726 186.21 205.189C186.735 204.009 187.041 202.653 187.434 201.385C187.784 200.423 188.222 200.204 189.096 200.816C190.758 201.953 190.977 202.74 189.883 204.402C187.434 208.119 184.942 211.793 182.405 215.51C182.274 215.773 182.099 216.079 181.705 216.735C184.373 216.341 186.735 215.947 189.096 215.51C189.184 215.773 189.271 215.991 189.315 216.341C188.703 216.735 188.09 217.128 187.391 217.434C184.548 218.703 181.705 219.971 178.775 221.108C178.382 221.239 177.376 221.108 177.376 220.933C177.157 219.883 176.895 218.878 177.07 217.828C177.157 217.347 177.988 217.041 178.469 216.735C181.093 215.073 182.318 212.449 183.673 209.825C183.586 209.65 183.455 209.431 183.28 209.169Z" fill="black"></path><path fill-rule="evenodd" clip-rule="evenodd" d="M211.356 225.787C211.137 226.093 210.831 226.487 210.568 226.793C209.781 227.755 208.907 228.63 208.382 229.679C208.076 230.291 207.988 231.428 208.294 232.041C208.907 233.484 208.513 233.79 207.201 233.965C203.965 234.184 200.729 234.358 197.536 234.665C196.968 234.752 196.356 235.058 196.093 235.452C195.481 236.676 194.912 236.283 194.519 235.408C194.213 234.752 194.125 233.965 193.994 233.178C193.338 230.248 192.813 227.274 192.07 224.344C191.851 223.382 192.157 222.988 193.032 223.251C196.88 224.519 200.423 223.163 204.052 222.201C206.151 221.633 209.869 222.988 211.049 224.912C211.049 225.306 211.137 225.481 211.356 225.787ZM195.481 228.542C195.962 233.309 195.962 233.309 200.729 232.609C205.539 231.997 205.758 231.647 205.845 226.793C205.933 224.737 205.627 224.344 203.659 224.519C201.516 224.65 199.417 225.306 197.274 225.219C195.393 225.219 195.087 225.874 195.306 227.449C195.481 227.842 195.481 228.236 195.481 228.542Z" fill="black"></path><path d="M146.326 226.487C146.545 226.093 146.764 225.7 147.026 225.219C148.732 222.026 150.481 218.965 152.055 215.685C152.361 215.029 152.143 214.023 151.793 213.367C151.093 212.012 150.087 210.918 149.3 209.65C148.994 209.169 148.732 208.601 148.644 207.901C150.787 208.382 151.399 210.612 153.367 211.705C154.417 209.344 154.723 206.851 154.723 204.315C154.723 203.528 154.898 202.828 154.898 202.041C155.685 202.347 156.778 202.478 157.303 203.047C157.784 203.615 158.178 204.708 157.959 205.452C157.303 207.988 156.297 210.35 155.598 212.886C155.423 213.542 155.685 214.504 155.991 215.029C156.778 216.472 157.959 217.653 158.571 219.184C159.052 220.364 159.052 221.72 159.14 223.076C159.14 223.382 158.659 223.775 158.44 224.169C158.09 223.95 157.566 223.775 157.391 223.382C156.516 221.895 155.816 220.277 155.029 218.703C154.898 218.396 154.635 218.09 154.242 217.434C151.749 220.671 150.481 224.825 146.72 226.749C146.633 226.749 146.458 226.662 146.326 226.487Z" fill="black"></path><path d="M143.484 217.26C141.516 221.108 140.073 224.606 137.274 227.055C137.099 226.968 136.939 226.881 136.793 226.793C137.012 226.181 137.274 225.612 137.493 225C138.892 221.983 140.423 219.009 141.647 215.991C141.997 215.292 141.91 214.198 141.603 213.455C140.86 211.706 139.942 210.131 139.067 208.469C138.848 207.988 138.586 207.42 138.455 206.939C138.586 206.808 138.848 206.633 138.98 206.545C140.335 208.207 141.603 209.869 142.915 211.574C143.178 211.574 143.396 211.487 143.615 211.487C143.936 209.417 144.257 207.347 144.577 205.277C144.665 204.577 144.883 203.921 145.058 203.309C145.671 203.615 146.545 203.746 146.939 204.227C147.332 204.709 147.638 205.671 147.507 206.327C146.764 208.557 145.933 210.7 145.058 212.843C144.665 213.848 144.752 214.636 145.364 215.598C146.458 217.26 147.638 219.009 147.332 221.239C147.245 221.808 146.764 222.289 146.545 222.857C146.152 222.42 145.671 222.114 145.452 221.633C144.752 220.233 144.271 218.965 143.484 217.26Z" fill="black"></path><path d="M90.0437 213.367C89.9125 213.936 89.825 214.417 89.6501 214.985C87.7696 220.364 85.8891 225.875 84.0087 231.254C83.8337 231.822 83.3527 232.303 82.9591 232.784C82.5655 232.303 81.9533 231.822 81.7346 231.254C81.239 229.738 80.8454 228.149 80.5539 226.487C80.4664 226.006 80.6851 225.131 80.9912 225.044C83.4402 224.038 84.4023 221.633 85.6705 219.665C86.7638 218.003 87.6821 216.166 88.7317 214.417C88.9504 214.023 89.2565 213.63 89.6063 213.236C89.825 213.236 89.9999 213.28 90.0437 213.367Z" fill="black"></path><path d="M173.528 228.63C178.644 227.143 183.586 225.699 188.528 224.256C188.615 224.431 188.703 224.606 188.79 224.825C188.222 225.306 187.784 225.787 187.216 226.093C184.154 227.93 181.006 229.679 177.857 231.428C176.108 232.303 174.49 231.253 173.528 228.63Z" fill="black"></path><path d="M90.6997 199.242C90.5247 199.461 90.2186 200.204 89.7376 200.423C89.344 200.598 88.4693 200.292 88.0757 199.854C86.8513 198.542 85.7142 197.012 84.7084 195.525C84.5335 195.262 84.9271 194.213 85.1894 194.169C87.6822 193.688 90.7871 196.312 90.6997 199.242Z" fill="black"></path><path d="M86.1077 211.224C86.064 211.487 85.8891 212.186 85.4955 212.361C85.1019 212.493 84.2273 212.449 83.9211 212.099C82.5655 210.831 81.2535 209.563 80.2477 208.076C79.373 206.851 80.4663 206.545 81.3847 206.458C83.9211 206.326 86.064 208.294 86.1077 211.224Z" fill="black"></path><path d="M120.175 81.2536L124.592 175.146H140.073L162.507 116.108L168.017 175.146H183.673L214.286 80.9912H198.367L179.169 144.883L173.528 81.2536H161.414L137.799 143.79L135.612 80.9912L120.175 81.2536Z" fill="#FF0008"></path><path fill-rule="evenodd" clip-rule="evenodd" d="M112.872 103.032C113.178 126.472 96.9096 138.061 90.0437 139.548C83.309 141.079 68.4402 140.598 63.5423 140.598L56.3703 175.146H40.4956L57.2449 81.2536H87.6822C87.6822 81.2536 112.566 80.9912 112.872 103.032ZM84.0088 94.7667H70.8455L64.723 127.391H82.172C82.172 127.391 94.3732 126.866 96.8222 109.592C98.965 94.3731 84.0088 94.8104 84.0088 94.7667Z" fill="#FF0008"></path><path d="M224.956 81.2537L208.294 175.146H258.892L260.991 161.589H226.618L240.962 81.2537H224.956Z" fill="#FF0008"></path></g></g></g><defs><clipPath id="clip0_263_21845"><rect width="300" height="300" rx="150" fill="white"></rect></clipPath></defs></svg> 