<?xml version="1.0" encoding="UTF-8"?> <svg xmlns="http://www.w3.org/2000/svg" width="300" height="300" viewBox="0 0 300 300" fill="none"><rect width="300" height="300" rx="150" fill="#002928"></rect><g clip-path="url(#clip0_269_22867)"><path d="M77.7313 118.255C81.2326 128.472 83.4041 139.299 87.3262 149.381C88.1342 151.451 86.5687 153.759 90.2384 153.029L101.096 118.255H127.81V131.509H121.127V167.931H127.827V181.168H104.463V156.339C95.7261 157.374 97.5104 174.974 93.6387 179.539C83.8081 191.097 82.3436 158.41 76.0816 156.339V181.168H51V167.914H57.6828V131.493H51V118.255H77.7144H77.7313Z" fill="#FD2046"></path><path d="M226.302 118.255L226.42 130.491L220.377 133.037L221.286 167.931H234.651L234.634 157.985H248V181.168H194.588L194.571 167.914L201.254 167.931V131.493L194.571 131.509L194.588 118.255H226.302Z" fill="#FD2046"></path><path d="M159.524 118.255L149.525 144.73L164.541 144.747V181.168H134.493L134.56 167.998L142.826 165.436V131.493L134.476 131.509L134.493 118.255H159.524Z" fill="#FD2046"></path><path d="M169.557 164.604L179.556 137.348C178.798 133.478 167.756 135.04 164.524 134.819V118.238C199.958 114.198 206.136 161.346 169.557 164.604Z" fill="#FD2046"></path></g><defs><clipPath id="clip0_269_22867"><rect width="197" height="64" fill="white" transform="translate(51 118)"></rect></clipPath></defs></svg> 