<?xml version="1.0" encoding="UTF-8"?> <svg xmlns="http://www.w3.org/2000/svg" width="300" height="300" viewBox="0 0 300 300" fill="none"><rect width="300" height="300" rx="150" fill="#147B45"></rect><g clip-path="url(#clip0_295_6076)"><path opacity="0.95" d="M184.896 165.994C178.672 165.994 173.627 171.145 173.627 177.499C173.627 183.854 178.672 189.005 184.896 189.005C191.119 189.005 196.164 183.854 196.164 177.499C196.164 171.145 191.119 165.994 184.896 165.994Z" fill="#3AAA35"></path><path d="M208.181 165.994C201.957 165.994 196.912 171.145 196.912 177.499C196.912 183.854 201.957 189.005 208.181 189.005C214.404 189.005 219.45 183.854 219.45 177.499C219.45 171.145 214.404 165.994 208.181 165.994Z" fill="#3AAA35"></path><path opacity="0.55" d="M91.7532 165.994C85.5309 165.994 80.4857 171.145 80.4857 177.499C80.4857 183.854 85.5309 189.005 91.7532 189.005C97.9772 189.005 103.023 183.854 103.023 177.499C103.023 171.145 97.9772 165.994 91.7532 165.994Z" fill="#3AAA35"></path><path opacity="0.65" d="M115.039 165.994C108.815 165.994 103.77 171.144 103.77 177.498C103.77 183.854 108.815 189.005 115.039 189.005C121.263 189.005 126.309 183.854 126.309 177.498C126.309 171.144 121.263 165.994 115.039 165.994Z" fill="#3AAA35"></path><path opacity="0.85" d="M161.611 165.994C155.387 165.994 150.341 171.145 150.341 177.499C150.341 183.854 155.387 189.005 161.611 189.005C167.834 189.005 172.88 183.854 172.88 177.499C172.88 171.145 167.834 165.994 161.611 165.994Z" fill="#3AAA35"></path><path opacity="0.75" d="M138.292 165.995C132.067 165.995 127.022 171.145 127.022 177.499C127.022 183.855 132.067 189.005 138.292 189.005C144.514 189.005 149.56 183.855 149.56 177.499C149.56 171.145 144.514 165.995 138.292 165.995Z" fill="#3AAA35"></path><path d="M219.154 144.192L199.579 144.173L199.581 136.512L210.051 136.524H210.053C210.283 136.524 210.504 136.432 210.667 136.267C210.83 136.103 210.922 135.88 210.922 135.646L210.926 127.39C210.927 126.905 210.538 126.512 210.059 126.511L199.594 126.498L199.598 120.046L217.998 120.059H217.999C218.479 120.059 218.867 119.667 218.868 119.182L218.879 110.928C218.88 110.694 218.788 110.471 218.625 110.306C218.463 110.141 218.241 110.048 218.011 110.048L188.749 110.02H188.748C188.517 110.02 188.297 110.112 188.134 110.276C187.971 110.441 187.879 110.664 187.879 110.897L187.844 153.305C187.844 153.79 188.232 154.183 188.712 154.184L219.147 154.212H219.147C219.378 154.212 219.598 154.119 219.761 153.955C219.924 153.79 220.016 153.567 220.016 153.334L220.022 145.071C220.022 144.586 219.634 144.192 219.154 144.192Z" fill="white"></path><path d="M117.278 110.02L107.429 110.015C107.198 110.015 106.977 110.108 106.814 110.272C106.651 110.436 106.559 110.66 106.559 110.893L106.554 133.019L96.9846 110.551C96.8476 110.228 96.5336 110.02 96.1865 110.02H83.5381C83.0582 110.02 82.6691 110.413 82.6691 110.898L82.667 153.329C82.667 153.814 83.0557 154.207 83.5356 154.207L93.5222 154.21C93.7526 154.21 93.9741 154.118 94.1371 153.953C94.3 153.788 94.3917 153.565 94.3917 153.332L94.3942 128.249L105.416 153.679C105.554 153.998 105.866 154.204 106.211 154.204L117.277 154.212C117.507 154.212 117.729 154.119 117.892 153.955C118.055 153.79 118.146 153.566 118.146 153.333L118.147 110.898C118.147 110.413 117.758 110.02 117.278 110.02Z" fill="white"></path><path d="M74.1368 110.018L63.0395 110.015C62.9294 110.015 62.8215 110.06 62.7437 110.138C62.6648 110.218 62.6214 110.324 62.6214 110.436V137.678C62.6214 140.666 60.2169 143.096 57.2613 143.096C54.3056 143.096 51.9009 140.666 51.9009 137.678V115.329L51.9003 113.735L51.9009 110.439C51.9009 110.207 51.7137 110.018 51.4836 110.018L40.3863 110.015C40.2745 110.015 40.1694 110.059 40.0905 110.138C40.0116 110.218 39.9681 110.324 39.9681 110.436V137.678C39.9681 147.317 47.7258 155.158 57.2613 155.158C66.7967 155.158 74.5542 147.317 74.5542 137.678V113.734L74.5536 113.735L74.5542 110.439C74.5542 110.207 74.3669 110.018 74.1368 110.018Z" fill="white"></path><path d="M138.004 110.913C138.004 110.427 137.616 110.034 137.136 110.034L127.136 110.015C127.135 110.015 127.135 110.015 127.135 110.015C126.655 110.015 126.266 110.408 126.266 110.892L126.26 153.285C126.26 153.519 126.351 153.742 126.514 153.907C126.677 154.072 126.898 154.164 127.128 154.164L137.13 154.18C137.361 154.18 137.582 154.088 137.745 153.923C137.908 153.758 138 153.535 138 153.302L138.004 110.913Z" fill="white"></path><path d="M176.612 130.283C178.875 128.145 180.297 125.11 180.297 121.732C180.297 115.261 175.107 110.015 168.705 110.015C168.62 110.015 168.537 110.026 168.453 110.028L163.019 110.015V110.026L147.007 110.02H147.006C146.527 110.02 146.138 110.412 146.137 110.898L146.117 153.297C146.117 153.53 146.208 153.754 146.371 153.919C146.534 154.083 146.755 154.176 146.986 154.176L163.019 154.179L165.884 154.18C165.888 154.18 165.892 154.18 165.896 154.18H168.495C175.797 154.18 181.716 148.197 181.716 140.817C181.716 136.532 179.714 132.729 176.612 130.283ZM157.6 118.856H166.353C168.075 118.856 169.471 120.267 169.471 122.008C169.471 123.749 168.075 125.16 166.353 125.16H157.6V118.856ZM166.226 143.649C166.22 143.649 166.214 143.649 166.208 143.649H157.6V134.432H166.226C168.744 134.432 170.786 136.496 170.786 139.041C170.786 141.586 168.744 143.649 166.226 143.649Z" fill="white"></path><path d="M259.715 110.34C259.552 110.175 259.331 110.082 259.1 110.081L226.29 110.02H226.289C225.81 110.02 225.42 110.412 225.42 110.896L225.406 119.076C225.405 119.561 225.793 119.955 226.273 119.956L236.572 119.977L236.518 153.305C236.517 153.538 236.608 153.762 236.771 153.927C236.934 154.092 237.155 154.185 237.385 154.185L247.763 154.199H247.764C248.244 154.199 248.633 153.806 248.633 153.322L248.685 119.994L259.083 120.015H259.085C259.564 120.015 259.953 119.622 259.954 119.138L259.968 110.961C259.968 110.728 259.877 110.505 259.715 110.34Z" fill="white"></path></g><defs><clipPath id="clip0_295_6076"><rect width="220" height="79" fill="white" transform="translate(40 110)"></rect></clipPath></defs></svg> 