<?xml version="1.0" encoding="UTF-8"?> <svg xmlns="http://www.w3.org/2000/svg" width="300" height="300" viewBox="0 0 300 300" fill="none"><rect width="300" height="300" rx="150" fill="#171717"></rect><path d="M60.5462 153.999C62.9238 150.901 65.0613 148.163 67.1508 145.426C67.487 144.993 67.8713 144.753 68.4477 144.753C71.9781 144.753 75.5086 144.753 79.1111 144.753C79.3512 145.666 79.1111 146.458 79.039 147.251C78.4866 153.975 80.2639 160.004 84.4428 165.263C85.4755 166.536 85.6916 167.761 85.0912 169.154C84.4187 170.739 83.2419 171.772 81.4647 171.892C80.3839 171.964 79.2792 171.916 78.1984 171.916C73.8994 171.916 69.5764 171.772 65.2775 171.94C57.0638 172.3 46.5205 166.44 43.7345 155.08C40.2521 141.03 49.6426 129.334 61.5549 127.197C61.9391 127.125 62.3234 127.053 62.7077 127.053C70.2969 127.053 77.8622 127.053 85.4515 127.053C85.6676 127.605 85.1873 127.869 84.9471 128.158C83.2179 130.487 81.4167 132.745 79.7355 135.098C79.063 136.059 78.2945 136.347 77.1657 136.323C73.251 136.275 69.3363 136.251 65.3975 136.323C60.0418 136.443 55.5027 139.782 53.6534 144.825C51.7561 150.013 53.077 155.537 57.0878 159.091C59.2253 160.964 61.699 162.165 64.557 162.309C67.0547 162.429 69.5764 162.429 72.0742 162.405C74.5239 162.357 76.3011 160.604 76.3491 158.322C76.3972 156.065 74.644 154.144 72.2423 154.048C69.0961 153.927 65.9499 153.999 62.8037 153.999C62.1793 153.999 61.5309 153.999 60.5222 153.999H60.5462Z" fill="#FBFBFB"></path><path d="M82.7858 144.657H92.7767C92.5606 145.689 92.3444 146.626 92.2003 147.563C91.0475 154.888 96.2831 161.684 103.704 162.309C106.25 162.525 108.844 162.453 111.414 162.405C113.791 162.357 115.472 160.676 115.544 158.442C115.641 156.113 114.031 154.191 111.606 154.071C108.339 153.927 105.049 154.023 101.783 153.999C101.11 153.999 100.414 153.999 99.3573 153.999C100.582 152.414 101.591 151.117 102.6 149.796C103.656 148.427 104.761 147.082 105.77 145.665C106.274 144.945 106.85 144.729 107.715 144.729C111.702 144.777 115.689 144.729 119.651 144.753C122.798 144.777 124.671 146.674 124.695 149.82C124.719 155.536 124.719 161.252 124.695 166.992C124.695 170.21 122.918 171.916 119.651 171.94C114.584 171.94 109.492 171.795 104.425 171.988C95.8028 172.324 85.0433 165.839 82.6657 153.975C82.0172 150.805 82.0653 147.563 82.8098 144.681L82.7858 144.657Z" fill="#FBFBFB"></path><path d="M228.615 148.403V153.302C227.798 153.302 227.054 153.302 226.285 153.302C222.827 153.302 219.345 153.278 215.886 153.302C213.412 153.326 211.923 154.263 210.723 156.473H228.519C228.831 158.178 228.687 159.739 228.639 161.468H210.506C211.731 163.87 213.533 164.854 215.862 164.878C219.465 164.926 223.043 164.878 226.646 164.878C227.27 164.878 227.918 164.71 228.615 165.071V169.586C228.615 169.586 228.399 169.826 228.303 169.826C223.884 169.826 219.441 170.018 215.022 169.826C209.306 169.562 204.862 164.59 204.959 158.922C205.079 153.11 209.714 148.403 215.526 148.307C219.633 148.235 223.74 148.307 227.846 148.307C228.039 148.307 228.231 148.355 228.591 148.403H228.615Z" fill="#FBFBFB"></path><path d="M248.621 164.278C251.334 166.127 253.856 167.856 256.738 169.802C254.168 170.018 252.007 169.922 249.821 169.898C249.341 169.898 249.029 169.514 248.645 169.273C245.859 167.328 243.073 165.383 240.263 163.461C239.422 162.885 238.702 162.261 239.11 161.108C239.47 160.051 240.359 159.955 241.295 159.955C243.361 159.955 245.402 159.859 247.444 159.979C249.557 160.123 251.31 158.466 251.358 156.376C251.43 154.287 249.821 152.726 247.516 152.702C243.673 152.654 239.83 152.702 235.82 152.702V169.754C234.283 170.162 232.89 169.898 231.353 169.946V148.547C231.521 148.283 231.857 148.355 232.169 148.355C237.357 148.355 242.568 148.307 247.756 148.355C253.904 148.427 257.627 154.743 254.721 160.171C253.736 162.02 252.271 163.269 250.23 163.846C249.749 163.966 249.269 164.11 248.572 164.302L248.621 164.278Z" fill="#FBFBFB"></path><path d="M86.5801 136.131C88.2853 133.657 90.2306 131.952 92.4401 130.511C96.0667 128.157 100.005 126.932 104.4 127.004C110.933 127.101 117.49 127.004 124.046 127.028C124.598 127.028 125.199 126.884 125.823 127.245C125.415 128.493 124.454 129.358 123.734 130.367C122.533 132.048 121.236 133.633 120.011 135.29C119.531 135.963 119.003 136.323 118.114 136.323C107.979 136.299 97.8439 136.323 87.6848 136.299C87.4447 136.299 87.2045 136.227 86.5801 136.131Z" fill="#C8171E"></path><path d="M181.446 159.547C181.446 166.2 176.114 171.532 169.437 171.507C162.905 171.483 157.573 166.128 157.573 159.571C157.573 152.991 163.025 147.563 169.606 147.611C176.162 147.659 181.422 152.967 181.422 159.547H181.446ZM177.147 159.595C177.147 155.392 173.809 151.958 169.63 151.886C165.451 151.814 161.992 155.2 161.92 159.403C161.848 163.702 165.283 167.209 169.534 167.184C173.712 167.184 177.123 163.774 177.147 159.571V159.595Z" fill="#FBFBFB"></path><path d="M137.856 164.11V159.931C139.441 159.931 140.979 159.931 142.492 159.931C144.221 159.931 145.974 159.979 147.703 159.931C149.745 159.859 151.21 158.322 151.234 156.353C151.234 154.479 149.865 152.75 147.967 152.702C143.933 152.606 139.898 152.678 135.695 152.678V169.61C134.878 170.138 134.158 169.874 133.485 169.898C132.789 169.946 132.092 169.898 131.3 169.898V148.523C131.588 148.211 131.924 148.307 132.236 148.307C137.376 148.307 142.516 148.307 147.655 148.307C150.753 148.307 153.107 149.7 154.596 152.39C156.109 155.152 155.965 157.962 154.332 160.652C153.107 162.693 151.234 163.99 148.832 164.086C145.253 164.23 141.651 164.11 137.88 164.11H137.856Z" fill="#FBFBFB"></path><path d="M207.048 169.73C205.198 169.73 203.373 169.73 201.524 169.73C200.875 169.73 200.443 169.394 200.011 169.01C196.937 166.488 193.839 163.966 190.788 161.42C188.963 159.907 188.939 158.058 190.74 156.545C193.839 153.951 197.009 151.406 200.131 148.836C200.611 148.451 201.092 148.259 201.692 148.283C203.469 148.307 205.27 148.283 207.072 148.283C207.096 149.004 206.519 149.172 206.159 149.46C202.893 152.174 199.627 154.84 196.36 157.554C194.871 158.779 194.871 159.139 196.336 160.364C199.939 163.366 203.541 166.344 207.168 169.322C207.144 169.442 207.12 169.562 207.096 169.682L207.048 169.73Z" fill="#FBFBFB"></path><path d="M188.267 148.451V169.778C186.898 170.09 185.505 169.874 183.968 169.922V148.475H188.267V148.451Z" fill="#FBFBFB"></path></svg> 