<?xml version="1.0" encoding="UTF-8"?> <svg xmlns="http://www.w3.org/2000/svg" width="300" height="300" viewBox="0 0 300 300" fill="none"><rect width="300" height="300" rx="150" fill="#0B0B0B"></rect><path d="M54.6259 98.0793C54.7789 97.9773 54.9574 98.0028 55.1103 98.0028C81.5494 98.0028 107.963 98.0028 134.402 98.0283C134.453 98.0283 134.504 98.0793 134.581 98.1303C128.513 132.626 122.419 167.122 116.351 201.618C116.351 201.72 116.275 201.822 116.224 201.924C115.561 202.025 37.2633 202.025 36.3455 201.924C36.218 201.822 36.2945 201.669 36.2945 201.541C36.6769 199.348 37.0594 197.181 37.4418 194.989C37.8752 192.592 38.2832 190.17 38.7166 187.773C39.252 184.714 39.8129 181.654 40.3483 178.569C40.8327 175.841 41.2917 173.088 41.7761 170.36C42.184 168.04 42.5919 165.72 42.9999 163.399C43.4333 161.028 43.8412 158.657 44.2747 156.286C44.7081 153.839 45.1415 151.365 45.5749 148.918C45.9829 146.598 46.3908 144.278 46.7987 141.958C47.1557 139.892 47.5126 137.802 47.8696 135.737C48.303 133.314 48.7364 130.867 49.1698 128.445C49.7052 125.385 50.2662 122.326 50.8016 119.241C51.286 116.513 51.7449 113.759 52.2293 111.031C52.6373 108.66 53.0707 106.289 53.5041 103.918C53.8101 102.21 54.0905 100.501 54.3965 98.7677C54.4475 98.5127 54.4475 98.2578 54.6004 98.0538L54.6259 98.0793ZM98.4021 194.938C98.7336 194.938 98.912 194.683 99.065 194.428C100.212 193.382 101.258 192.261 102.328 191.139C104.623 188.691 106.765 186.142 108.779 183.49C111.481 179.921 113.598 176.071 115 171.813C115.816 169.391 116.428 166.918 116.81 164.394C117.04 162.788 117.192 161.156 117.243 159.55C117.269 158.428 117.243 157.306 117.142 156.184C116.963 154.17 116.632 152.181 116.02 150.244C114.923 146.776 113.164 143.742 110.436 141.295C110.309 141.193 110.156 141.091 110.156 140.912L110.207 140.861C110.385 140.861 110.538 140.938 110.691 140.989C111.66 141.448 112.501 142.085 113.292 142.824C114.643 144.125 115.739 145.603 116.632 147.235C116.708 147.388 116.734 147.618 116.989 147.669C117.142 147.465 117.065 147.235 117.091 147.031C117.116 145.246 117.091 143.436 117.014 141.652C116.912 139.459 116.708 137.292 116.275 135.125C115.714 132.295 114.821 129.592 113.368 127.093C111.915 124.62 110.079 122.479 107.734 120.796C105.847 119.445 103.731 118.654 101.462 118.297C100.034 118.068 98.6061 118.042 97.2038 118.399C97.1273 118.399 97.0509 118.45 97.0254 118.323C97.0509 118.17 97.1783 118.093 97.2803 117.992C98.2492 117.125 99.3455 116.436 100.518 115.901C102.176 115.136 103.96 114.677 105.745 114.371C105.872 114.371 106.025 114.397 106.076 114.218C106.025 114.167 106 114.116 105.974 114.091C103.654 113.351 101.309 112.867 98.8611 112.867C98.1472 112.867 97.4588 112.943 96.7704 112.994C94.9347 113.173 93.201 113.708 91.6203 114.677C89.8101 115.773 88.3568 117.227 87.439 119.164C87.3625 119.317 87.2605 119.47 87.388 119.674C88.2548 120.21 89.1472 120.771 90.014 121.433C91.4418 122.53 92.7166 123.805 93.6854 125.334C94.3228 126.38 94.7307 127.501 94.8582 128.725C94.9347 129.414 94.8582 130.076 94.6033 130.714C94.3993 131.224 94.0169 131.377 93.5069 131.198C93.201 131.096 92.9715 130.892 92.7421 130.688C92.1302 130.127 91.6967 129.439 91.3143 128.725C90.9574 128.062 90.6514 127.374 90.371 126.66C90.269 126.354 90.0905 126.099 89.8356 125.946C89.3766 125.666 88.8412 125.793 88.6373 126.252C88.0509 127.501 88.3058 128.776 89.3256 129.72C89.5041 129.898 89.7081 130.025 89.9375 130.178C90.2435 130.382 90.5494 130.586 90.8554 130.79C92.5126 131.861 94.2463 132.779 96.1585 133.314C96.388 133.391 96.6429 133.467 96.8724 133.595C97.6118 133.977 98.0452 134.538 97.9687 135.405C97.9687 135.737 97.8922 136.068 97.8667 136.399C97.7902 137.113 98.0962 137.521 98.7591 137.7C99.116 137.802 99.473 137.802 99.8554 137.827C100.365 137.827 100.799 138.006 101.181 138.312C101.997 138.975 102.354 139.867 102.354 140.912C102.354 141.269 102.201 141.55 101.972 141.83C101.768 142.059 101.513 142.238 101.232 142.391C100.263 142.901 99.218 143.028 98.1217 142.977C97.1273 142.926 96.184 142.646 95.2662 142.314C94.4503 142.034 93.6089 141.754 92.7931 141.499C92.0537 141.269 91.3143 141.167 90.5494 141.218C90.269 141.218 89.9885 141.295 89.7591 141.473C89.6061 141.601 89.5806 141.83 89.7081 142.009C89.9375 142.289 90.2435 142.391 90.5749 142.518C92.5891 143.258 94.4503 144.303 96.2095 145.501C96.9234 145.986 97.5608 146.521 98.0962 147.159C98.2492 147.363 98.4276 147.541 98.6316 147.694C99.218 148.229 99.6259 148.204 100.11 147.567C100.391 147.21 100.595 146.827 100.85 146.445C101.258 145.782 101.691 145.119 102.277 144.584C102.507 144.38 102.711 144.176 103.042 144.125C103.527 144.507 103.756 145.017 103.96 145.552C104.47 146.929 104.547 148.331 104.266 149.785C104.19 150.193 104.215 150.524 104.47 150.881C105.337 152.13 106.051 153.456 106.663 154.858C108.269 158.53 109.11 162.38 109.263 166.357C109.314 167.708 109.263 169.059 109.161 170.385C109.034 171.813 108.83 173.241 108.549 174.618C107.606 179.054 105.949 183.184 103.731 187.136C102.328 189.635 100.722 192.006 98.9885 194.3C98.7336 194.453 98.5296 194.657 98.5041 194.989C98.5041 194.989 98.4531 194.989 98.4531 195.014C98.4531 195.014 98.4531 195.04 98.4531 195.065C98.4531 195.04 98.5041 195.014 98.5296 194.989L98.4021 194.938ZM98.1472 152.003C96.8214 152.793 95.4191 153.329 93.9914 153.864C92.5636 154.425 91.1103 154.986 89.7336 155.674C89.1472 155.955 88.5863 156.286 88.1273 156.72C87.439 157.382 86.5976 157.714 85.6798 157.918C85.0679 158.045 84.5069 157.918 83.997 157.612C83.7676 157.459 83.5381 157.28 83.3341 157.102C82.7222 156.592 82.0849 156.159 81.3965 155.751C80.6571 155.292 79.8667 154.909 78.9999 154.782C78.8979 154.782 78.7704 154.731 78.6684 154.705C78.1075 154.527 77.98 154.042 78.388 153.609C78.49 153.482 78.6429 153.405 78.7704 153.278C78.9489 153.074 79.2803 152.946 79.1783 152.615C79.1273 152.411 78.8214 152.436 78.337 152.64C77.1897 153.15 76.2718 153.966 75.5324 154.986C74.5891 156.286 73.8242 157.688 73.2633 159.193C72.0905 162.354 71.912 165.541 72.9829 168.754C74.1812 172.323 76.4248 175.076 79.5098 177.193C80.3256 177.754 81.2435 178.136 82.2123 178.314C82.8752 178.442 83.5381 178.518 84.2265 178.544C86.1132 178.595 87.9744 178.314 89.8356 177.958C90.9319 177.754 92.0282 177.524 93.1245 177.295C93.6854 177.193 94.2463 177.167 94.8072 177.244C95.6741 177.371 96.0055 177.932 95.7506 178.773C95.6486 179.079 95.4701 179.385 95.2916 179.666C94.2208 181.221 92.7421 182.266 91.0084 182.929C90.014 183.312 88.9942 183.592 87.9489 183.822C87.082 184.025 86.1897 184.127 85.2718 184.153C83.4106 184.204 81.5749 183.975 79.7647 183.516C79.5863 183.465 79.3823 183.363 79.2038 183.516C79.2038 183.618 79.2548 183.745 79.2803 183.847C79.6628 185.096 79.8157 186.371 79.7647 187.671C79.7137 189.074 79.4843 190.45 79.1783 191.827C78.6939 193.969 77.9545 196.034 77.0112 198.023C76.9092 198.227 76.7562 198.405 76.8327 198.66C77.1132 198.762 77.3936 198.711 77.6741 198.711C81.32 198.711 84.9659 198.711 88.6373 198.711C89.3001 198.711 89.9885 198.711 90.6514 198.711C91.0084 198.711 91.2888 198.635 91.5693 198.38C92.0792 197.895 92.6146 197.436 93.099 196.952C94.7817 195.32 96.337 193.586 97.7902 191.776C98.8866 190.399 99.9574 188.997 100.824 187.442C102.15 185.096 103.246 182.623 104.139 180.074C105.362 176.53 106.127 172.884 106.357 169.136C106.535 166.408 106.408 163.68 105.872 161.003C105.515 159.295 105.031 157.637 104.19 156.082C103.858 155.445 103.45 154.833 102.94 154.297C102.711 154.042 102.456 153.941 102.125 153.941C101.64 153.941 101.181 153.941 100.697 153.966C100.11 153.992 99.6514 153.762 99.2945 153.329C99.116 153.099 98.963 152.87 98.7846 152.666C98.6061 152.436 98.5041 152.181 98.1982 151.952L98.1472 152.003ZM40.1953 198.635C40.3993 198.813 40.6288 198.762 40.8582 198.762C44.0707 198.762 47.2577 198.762 50.4701 198.762C50.9035 198.762 51.2095 198.635 51.5154 198.329C52.9687 196.85 54.371 195.32 55.6203 193.637C56.9205 191.929 58.0169 190.093 58.7562 188.079C59.5211 185.963 59.8271 183.796 59.8781 181.552C59.9545 178.416 59.5976 175.331 58.4758 172.374C57.6854 170.283 56.7166 168.244 55.6967 166.229C54.8044 164.496 53.912 162.788 53.0452 161.054C51.2095 157.408 49.8072 153.584 49.0169 149.581C49.0169 149.504 48.9659 149.479 48.8894 149.53C48.8894 149.53 48.8384 149.555 48.8129 149.581C45.9319 165.847 43.0509 182.113 40.1698 198.38C40.1698 198.456 40.1698 198.533 40.1698 198.609L40.1953 198.635ZM55.3143 198.609C55.3143 198.609 55.4418 198.762 55.5183 198.762C56.6146 198.839 73.5948 198.762 74.1557 198.686C74.1557 198.66 74.2322 198.609 74.2577 198.584C74.3086 198.482 74.3596 198.38 74.4106 198.278C75.0225 196.697 75.3795 195.065 75.4814 193.357C75.5834 191.7 75.4815 190.042 75.201 188.411C74.6146 184.969 73.4163 181.756 71.7081 178.722C69.8979 175.484 68.5721 172.093 68.1897 168.346C67.9857 166.331 68.0622 164.368 68.4956 162.405C69.5154 157.816 72.014 154.195 75.8129 151.442C76.4248 151.008 77.0877 150.601 77.6996 150.193C77.9545 150.014 78.2095 149.836 78.4135 149.606C78.5664 149.402 78.6939 149.198 78.6939 148.918C78.6939 148.433 78.4135 148.153 77.9545 148.255C77.8016 148.28 77.6231 148.357 77.4956 148.433C76.9857 148.688 76.5268 148.969 76.0679 149.326C74.9205 150.193 73.9007 151.212 72.9829 152.309C71.6061 153.941 70.4078 155.725 69.388 157.612C68.0877 160.008 66.8129 162.405 65.5636 164.827C64.6713 166.51 63.9319 168.269 63.3455 170.105C62.4531 172.756 62.0707 175.51 61.8667 178.289C61.7137 180.201 61.6373 182.088 61.5353 184C61.4843 185.122 61.3568 186.244 61.1528 187.34C60.7959 189.482 60.1075 191.521 59.0877 193.459C58.1698 195.193 56.9715 196.697 55.6713 198.15C55.5183 198.303 55.3143 198.431 55.2888 198.635L55.3143 198.609ZM85.3228 118.552C85.8837 117.941 86.3936 117.227 86.8781 116.513C88.1783 114.677 89.2747 112.714 89.8611 110.521C90.2435 109.068 90.371 107.589 90.065 106.11C89.7336 104.479 88.9177 103.076 87.7959 101.853C87.0565 101.062 87.235 101.215 86.3426 101.215C82.3398 101.215 78.3115 101.215 74.3086 101.215C70.6373 101.215 66.9659 101.215 63.269 101.215C63.065 101.215 62.8356 101.164 62.5551 101.292C62.912 101.598 63.218 101.827 63.4984 102.082C66.8384 104.81 68.4701 108.354 68.5466 112.637C68.5466 113.759 68.4701 114.881 68.2662 115.977C68.2152 116.232 68.0877 116.513 68.2916 116.768C69.4645 116.691 70.6118 116.615 71.7336 116.564C72.8809 116.513 74.0282 116.564 75.1755 116.64C76.7817 116.742 78.3625 116.972 79.9177 117.278C81.422 117.584 82.9262 117.992 84.405 118.399C84.6854 118.476 84.9404 118.603 85.2718 118.501L85.3228 118.552ZM53.4531 123.779C54.269 123.499 55.0084 123.244 55.7477 122.963C57.7364 122.249 59.6741 121.484 61.5353 120.465C62.6571 119.853 63.6769 119.139 64.5693 118.221C65.9205 116.844 66.5324 115.161 66.5324 113.249C66.5324 112.127 66.354 111.006 65.997 109.935C64.7732 106.314 62.3766 103.586 59.2662 101.47C59.1132 101.368 58.9347 101.241 58.7307 101.266C58.2973 101.266 57.8384 101.215 57.3795 101.317C57.3285 101.521 57.252 101.7 57.2265 101.904C55.9772 109.093 54.7024 116.258 53.4531 123.448C53.4531 123.524 53.4531 123.601 53.5041 123.805L53.4531 123.779ZM56.1557 141.83C56.0282 141.907 55.9772 142.034 55.9517 142.187C55.6967 143.309 55.5438 144.456 55.4673 145.603C55.3398 147.898 55.3653 150.193 55.6458 152.487C55.9262 154.807 56.3341 157.076 56.9715 159.32C57.405 160.773 57.8894 162.201 58.4758 163.603C58.5778 163.807 58.5778 164.113 58.8837 164.19C59.0622 164.088 59.0877 163.935 59.0877 163.756C59.0877 162.992 59.1897 162.252 59.2662 161.487C59.4191 159.805 59.6996 158.147 60.184 156.541C60.6429 154.935 61.3058 153.431 62.3001 152.079C63.422 150.524 64.8752 149.351 66.5069 148.382C67.7052 147.643 68.98 147.031 70.2293 146.419C70.4588 146.317 70.6882 146.19 70.8922 146.088C71.0197 146.011 71.0197 145.909 70.9432 145.782C70.5098 145.782 70.0764 145.782 69.6174 145.782C67.7307 145.833 65.8696 145.782 64.0084 145.425C61.3058 144.89 58.7817 143.946 56.6656 142.11C56.5126 141.983 56.3851 141.83 56.1557 141.856V141.83ZM79.9942 134.895C79.7647 134.717 79.5353 134.691 79.3058 134.615C78.8724 134.487 78.439 134.36 78.031 134.207C75.5834 133.187 73.3143 131.836 71.4021 129.975C70.5353 129.133 69.4899 128.725 68.2916 128.674C67.1698 128.623 66.1245 128.827 65.1047 129.312C63.9319 129.873 62.8356 130.535 61.7392 131.198C61.1528 131.555 60.5919 131.887 60.0055 132.244C59.5721 132.499 59.1642 132.499 58.7307 132.244C58.5268 132.116 58.3483 131.989 58.1698 131.861C57.9914 131.734 57.7874 131.606 57.5834 131.53C57.1245 131.377 56.6401 131.147 56.1302 131.453C56.1302 131.657 56.3086 131.759 56.4361 131.861C57.354 132.652 58.3228 133.34 59.3681 133.977C60.235 134.487 61.1273 134.946 62.1217 135.201C62.9375 135.405 63.7024 135.38 64.4928 134.972C66.3285 134.028 68.2916 133.646 70.3313 133.62C71.0707 133.62 71.7846 133.671 72.4984 133.773C73.6203 133.901 74.7166 134.13 75.7874 134.487C77.2662 134.997 78.4899 135.839 79.3313 137.19C79.4588 137.368 79.5863 137.572 79.7392 137.725C79.8412 137.853 79.9942 137.955 80.2237 137.802C79.8157 136.884 79.7137 135.941 79.9687 134.921L79.9942 134.895Z" fill="#B09560"></path><path d="M162.473 165.464C162.244 165.566 162.218 165.821 162.142 166.025C160.229 171.124 158.317 176.223 156.405 181.322C154.314 186.855 152.249 192.413 150.159 197.946C150.082 198.149 149.98 198.353 149.904 198.532C149.802 198.557 149.7 198.608 149.623 198.608C146.844 198.608 144.065 198.608 141.286 198.608C141.21 198.608 141.133 198.557 141.082 198.557C140.904 198.404 140.955 198.226 140.929 198.073C140.929 198.047 140.929 198.022 140.929 197.997C140.853 195.855 140.802 193.739 140.725 191.597C140.649 189.583 140.623 187.543 140.521 185.529C140.445 183.974 140.419 182.444 140.368 180.889C140.241 177.549 140.164 174.209 140.011 170.869C139.935 169.237 139.909 167.606 139.858 165.999C139.858 165.795 139.909 165.54 139.629 165.362C139.17 168.166 138.685 170.92 138.227 173.674C137.768 176.453 137.309 179.206 136.85 181.985C136.391 184.764 135.906 187.518 135.448 190.271C134.989 193.025 134.53 195.804 134.045 198.557C133.306 198.685 132.618 198.608 131.955 198.634C131.292 198.634 130.603 198.634 129.94 198.634H128.003C127.34 198.634 126.652 198.634 125.989 198.634C125.326 198.634 124.637 198.685 124 198.583C124 198.532 123.949 198.506 123.949 198.481C123.949 198.404 123.923 198.302 123.949 198.226C126.601 183.209 129.252 168.166 131.904 153.149C131.904 153.098 131.955 153.047 132.006 152.997C132.057 152.997 132.159 152.92 132.235 152.92C137.309 152.92 142.408 152.92 147.482 152.92C147.558 152.92 147.635 152.971 147.711 152.997C147.889 153.251 147.813 153.557 147.813 153.812C147.838 156.464 147.813 159.09 147.915 161.742C148.017 165.566 147.991 169.39 148.093 173.189C148.17 175.662 148.17 178.135 148.221 180.608C148.221 180.812 148.221 181.042 148.272 181.22C148.348 181.22 148.399 181.22 148.399 181.22C148.399 181.22 148.45 181.195 148.476 181.169C148.501 181.118 148.527 181.067 148.552 181.016C151.969 171.685 155.411 162.379 158.827 153.047C158.827 153.047 158.878 152.997 158.904 152.971C159.082 152.844 159.312 152.869 159.541 152.869C164.513 152.869 169.484 152.869 174.456 152.869C174.736 152.869 175.017 152.844 175.297 152.997C175.297 153.073 175.348 153.149 175.348 153.226C172.697 168.319 170.045 183.387 167.419 198.404C167.241 198.608 167.062 198.608 166.909 198.608C163.646 198.608 160.382 198.608 157.144 198.608C157.042 198.608 156.915 198.583 156.864 198.583C156.711 198.43 156.762 198.302 156.787 198.149C157.425 194.708 158.037 191.24 158.674 187.798C159.414 183.77 160.127 179.742 160.867 175.713C161.428 172.628 161.989 169.543 162.55 166.433C162.601 166.101 162.702 165.77 162.601 165.438C162.728 165.464 162.753 165.413 162.677 165.336C162.677 165.336 162.601 165.387 162.626 165.464H162.473Z" fill="#B09560"></path><path d="M221.955 198.507C221.164 198.634 216.855 198.685 212.47 198.609C212.266 198.609 212.062 198.634 211.884 198.507C211.884 198.405 211.833 198.303 211.884 198.201C214.535 183.133 217.187 168.09 219.813 153.099C220.017 152.844 220.221 152.869 220.399 152.869C221.19 152.869 221.98 152.869 222.77 152.869C226.722 152.869 230.7 152.869 234.652 152.869C234.957 152.869 235.263 152.818 235.544 152.92C235.748 153.124 235.671 153.354 235.671 153.583C235.824 156.923 235.748 160.263 235.85 163.603C235.952 167.504 235.952 171.405 236.028 175.305C236.079 177.141 236.105 178.951 236.13 180.787C236.13 180.915 236.105 181.067 236.207 181.169C236.411 181.169 236.411 181.017 236.462 180.915C236.997 179.436 237.558 177.957 238.093 176.478C240.618 169.594 243.142 162.736 245.64 155.852C245.946 155.036 246.252 154.22 246.533 153.405C246.584 153.252 246.635 153.073 246.813 152.946C247.068 152.844 247.374 152.869 247.68 152.869C252.601 152.869 257.521 152.869 262.416 152.869C262.671 152.869 262.926 152.818 263.156 152.971C263.156 153.022 263.207 153.073 263.207 153.124C260.555 168.218 257.904 183.286 255.252 198.379C255.252 198.43 255.201 198.481 255.15 198.507C254.997 198.634 254.844 198.583 254.666 198.583C251.275 198.66 245.411 198.609 244.595 198.507C244.595 197.691 244.85 196.926 244.977 196.135C245.105 195.371 245.258 194.58 245.385 193.815C245.538 193.025 245.691 192.209 245.819 191.419C245.972 190.628 246.099 189.813 246.227 189.022C246.38 188.232 246.533 187.416 246.685 186.626C246.813 185.861 246.94 185.07 247.093 184.305C247.246 183.515 247.399 182.699 247.552 181.909C247.705 181.118 247.833 180.303 247.986 179.512C248.113 178.747 248.266 177.957 248.419 177.192C248.572 176.402 248.7 175.586 248.853 174.796C249.006 174.005 249.133 173.189 249.286 172.399C249.439 171.609 249.592 170.793 249.745 170.002C249.872 169.237 250 168.447 250.153 167.682C250.306 166.892 250.459 166.101 250.586 165.286C250.51 165.286 250.459 165.286 250.433 165.286C250.433 165.286 250.382 165.286 250.357 165.337C246.201 176.402 242.045 187.441 237.915 198.43C237.736 198.609 237.584 198.609 237.456 198.609C234.728 198.609 232 198.609 229.272 198.609C229.195 198.609 229.119 198.609 229.042 198.583C228.864 198.456 228.864 198.277 228.864 198.124C228.813 196.288 228.736 194.478 228.685 192.643C228.609 190.526 228.584 188.436 228.482 186.32C228.405 184.994 228.38 183.694 228.354 182.368C228.303 180.481 228.252 178.594 228.15 176.733C228.074 175.229 228.048 173.699 227.997 172.195C227.921 170.079 227.819 167.988 227.742 165.872C227.742 165.719 227.768 165.541 227.589 165.362C227.283 166.586 227.156 167.81 226.926 169.008C226.697 170.257 226.518 171.507 226.314 172.756C226.11 173.98 225.906 175.178 225.677 176.402C225.473 177.651 225.244 178.9 225.04 180.124C224.836 181.348 224.657 182.572 224.453 183.77C224.249 185.019 224.02 186.269 223.816 187.492C223.612 188.716 223.408 189.915 223.204 191.138C223 192.388 222.796 193.637 222.592 194.886C222.388 196.11 222.159 197.308 221.955 198.507Z" fill="#B09560"></path><path d="M140.827 101.929C141.184 101.929 141.439 101.929 141.694 101.929C147.507 101.929 153.32 101.929 159.133 101.929C161.045 101.929 162.932 102.133 164.768 102.745C165.125 102.847 165.456 102.975 165.787 103.127C168.439 104.275 170.147 106.263 170.81 109.068C171.498 111.847 171.396 114.652 170.453 117.354C169.255 120.771 166.807 122.861 163.365 123.83C163.034 123.932 162.702 123.983 162.371 124.06C162.498 124.238 162.702 124.263 162.881 124.314C163.212 124.416 163.518 124.493 163.85 124.62C166.068 125.436 167.547 126.992 168.362 129.21C168.745 130.255 168.923 131.326 169 132.422C169.153 134.589 168.923 136.731 168.184 138.796C166.909 142.365 164.436 144.788 160.969 146.215C159.464 146.853 157.884 147.235 156.252 147.439C154.722 147.643 153.167 147.72 151.637 147.72C145.697 147.72 139.731 147.72 133.79 147.72C133.484 147.72 133.178 147.796 132.872 147.643C132.872 147.567 132.847 147.465 132.872 147.388C135.524 132.269 138.201 117.15 140.878 101.929H140.827ZM146.462 139.408C146.615 139.535 146.768 139.51 146.895 139.51C148.068 139.51 149.266 139.51 150.439 139.51C150.923 139.51 151.382 139.433 151.867 139.331C153.804 138.924 155.181 137.827 155.895 135.992C156.583 134.309 156.736 132.55 156.379 130.79C156.125 129.516 155.36 128.7 154.085 128.343C153.728 128.241 153.371 128.164 153.014 128.139C151.561 128.062 150.082 128.113 148.629 128.113C148.578 128.113 148.527 128.164 148.45 128.19C148.425 128.266 148.374 128.317 148.348 128.394C147.711 132.065 147.074 135.737 146.436 139.382L146.462 139.408ZM151.663 110.164C151.408 111.006 151.331 111.873 151.178 112.714C151 113.581 150.847 114.473 150.694 115.365C150.541 116.232 150.413 117.074 150.261 117.941C150.108 118.807 149.904 119.674 149.827 120.618C151.229 120.618 152.581 120.694 153.906 120.567C156.176 120.337 157.654 119.088 158.419 116.972C158.751 116.079 158.904 115.136 158.904 114.167C158.904 113.632 158.853 113.096 158.751 112.586C158.47 111.388 157.782 110.598 156.558 110.292C156.125 110.164 155.666 110.139 155.232 110.139C154.161 110.139 153.091 110.139 152.045 110.139C151.943 110.139 151.816 110.139 151.688 110.19L151.663 110.164Z" fill="white"></path><path d="M200.206 192.922C199.977 193.024 199.952 193.279 199.824 193.457C199.238 194.502 198.549 195.497 197.708 196.389C196.051 198.097 194.011 199.117 191.665 199.474C189.09 199.882 186.515 199.78 183.966 199.143C181.824 198.607 179.937 197.587 178.408 195.956C177.209 194.681 176.368 193.202 175.782 191.57C175.119 189.76 174.762 187.899 174.558 185.987C174.328 183.947 174.328 181.882 174.43 179.842C174.685 174.82 175.527 169.924 177.439 165.233C178.459 162.735 179.784 160.389 181.544 158.298C184.195 155.188 187.535 153.174 191.538 152.281C193.042 151.95 194.572 151.772 196.127 151.772C198.32 151.746 200.512 151.899 202.654 152.281C204.668 152.664 206.631 153.25 208.416 154.347C211.246 156.055 212.852 158.579 213.362 161.817C213.643 163.602 213.592 165.386 213.337 167.196C213.337 167.273 213.286 167.349 213.235 167.477C212.776 167.502 212.317 167.553 211.833 167.579C208.824 167.63 205.816 167.655 202.807 167.681C202.654 167.681 202.476 167.681 202.348 167.681C202.144 167.502 202.221 167.273 202.221 167.094C202.221 166.355 202.246 165.641 202.093 164.927C201.583 162.531 199.926 161.103 197.529 160.746C194.75 160.338 192.609 161.434 190.799 163.423C189.447 164.927 188.529 166.687 187.765 168.548C186.821 170.842 186.158 173.213 185.725 175.661C185.317 177.93 185.011 180.199 185.087 182.519C185.138 184.228 185.342 185.936 186.082 187.517C186.77 189.046 187.816 190.194 189.422 190.755C190.008 190.958 190.62 191.086 191.232 191.086C192.048 191.086 192.864 191.009 193.654 190.831C195.77 190.321 197.325 189.072 198.371 187.185C198.932 186.165 199.34 185.094 199.569 183.973C199.722 183.157 199.901 182.341 200.053 181.551C199.824 181.296 199.595 181.372 199.391 181.372C197.555 181.372 195.745 181.372 193.909 181.372C193.629 181.372 193.348 181.372 193.119 181.347C193.068 181.27 193.042 181.27 193.017 181.245C193.017 181.245 193.017 181.194 193.017 181.168C193.017 181.143 193.017 181.117 193.017 181.092C193.476 178.364 193.935 175.61 194.393 172.933C194.546 172.729 194.725 172.755 194.878 172.729C195.056 172.729 195.209 172.729 195.388 172.729C200.895 172.729 206.402 172.729 211.909 172.729C212.215 172.729 212.521 172.653 212.852 172.831C212.852 172.933 212.852 173.035 212.852 173.137C211.323 181.602 209.869 190.092 208.365 198.48C208.136 198.709 207.932 198.658 207.728 198.658C205.153 198.658 202.552 198.658 199.977 198.658C199.824 198.658 199.646 198.658 199.518 198.633C199.34 198.429 199.391 198.225 199.442 198.046C199.697 196.695 199.952 195.344 200.206 193.992C200.257 193.661 200.359 193.33 200.257 192.998C200.359 192.998 200.385 192.896 200.385 192.82C200.385 192.82 200.385 192.769 200.359 192.743C200.334 192.718 200.283 192.743 200.257 192.82C200.257 192.871 200.257 192.922 200.257 192.973L200.206 192.922Z" fill="#B09560"></path><path d="M178.127 101.955H205.816C205.816 101.955 205.867 102.006 205.892 102.031C205.892 102.031 205.892 102.082 205.892 102.108C205.382 105.065 204.873 108.023 204.363 110.98C204.312 111.235 204.261 111.465 204.184 111.72C203.445 111.822 202.705 111.745 201.992 111.771C201.227 111.771 200.487 111.771 199.722 111.771H193.144C192.38 111.771 191.64 111.771 190.875 111.771C190.161 111.771 189.422 111.771 188.657 111.771C188.198 114.269 187.739 116.717 187.331 119.19C188.071 119.292 188.785 119.241 189.473 119.241C190.136 119.241 190.824 119.241 191.487 119.241H197.734C198.397 119.241 199.085 119.241 199.748 119.241C200.436 119.241 201.15 119.19 201.915 119.292C201.354 122.555 200.793 125.768 200.232 129.006C199.365 129.108 198.55 129.031 197.759 129.057C196.969 129.057 196.178 129.057 195.388 129.057H190.493C189.703 129.057 188.912 129.057 188.122 129.057C187.306 129.057 186.516 129.057 185.725 129.057C185.496 129.694 184.272 136.043 184.043 137.7C184.323 137.853 184.629 137.776 184.935 137.776C189.626 137.776 194.317 137.776 199.009 137.776C199.314 137.776 199.62 137.776 199.926 137.776C199.977 138.388 198.601 146.394 198.295 147.567C198.116 147.694 197.912 147.643 197.734 147.643C190.161 147.745 171.04 147.694 170.198 147.567C170.198 147.567 170.173 147.516 170.147 147.49C170.147 147.49 170.122 147.439 170.122 147.414C172.799 132.244 175.45 117.099 178.153 101.878L178.127 101.955Z" fill="white"></path><path d="M224.097 147.666H212.088C211.91 147.436 212.012 147.207 212.037 147.003C212.751 143.051 213.465 139.099 214.153 135.147C214.791 131.501 215.428 127.856 216.065 124.21C216.754 120.258 217.468 116.306 218.182 112.38C218.207 112.227 218.207 112.048 218.233 111.895C217.978 111.717 217.723 111.793 217.493 111.793C214.51 111.793 211.527 111.793 208.57 111.793C208.289 111.793 208.009 111.844 207.728 111.742C207.728 111.717 207.703 111.691 207.677 111.666C207.677 111.666 207.652 111.615 207.652 111.589C208.213 108.402 208.774 105.19 209.36 102.003C210.074 101.901 241.944 101.875 242.76 102.003C242.76 102.742 241.765 108.402 241.102 111.666C240.873 111.87 240.567 111.793 240.312 111.793C237.329 111.793 234.346 111.793 231.388 111.793C231.108 111.793 230.827 111.742 230.496 111.895C229.935 114.827 229.451 117.81 228.915 120.793C228.38 123.776 227.87 126.759 227.335 129.742C226.799 132.725 226.264 135.708 225.728 138.691C225.193 141.674 224.683 144.657 224.148 147.717L224.097 147.666Z" fill="white"></path><path d="M98.1477 152.002C98.4536 152.231 98.5811 152.486 98.7341 152.716C98.9126 152.945 99.0655 153.175 99.244 153.378C99.601 153.812 100.06 154.067 100.646 154.016C101.131 153.99 101.59 154.016 102.074 153.99C102.405 153.99 102.66 154.092 102.89 154.347C103.374 154.883 103.782 155.495 104.139 156.132C104.955 157.687 105.465 159.344 105.822 161.053C106.357 163.73 106.485 166.458 106.306 169.186C106.077 172.934 105.312 176.58 104.088 180.124C103.196 182.673 102.1 185.121 100.774 187.492C99.9069 189.047 98.8361 190.449 97.7398 191.826C96.2865 193.662 94.7313 195.395 93.0485 197.002C92.5386 197.486 92.0032 197.945 91.5188 198.429C91.2638 198.684 90.9579 198.786 90.6009 198.761C89.9381 198.761 89.2497 198.761 88.5868 198.761C84.9409 198.761 81.295 198.761 77.6236 198.761C77.3432 198.761 77.0627 198.812 76.7823 198.71C76.7058 198.455 76.8842 198.276 76.9607 198.073C77.8786 196.084 78.6434 194.019 79.1279 191.877C79.4338 190.5 79.6633 189.124 79.7143 187.721C79.7398 186.421 79.6123 185.146 79.2298 183.897C79.2043 183.795 79.1789 183.667 79.1534 183.565C79.3318 183.387 79.5358 183.489 79.7143 183.565C81.5245 184.024 83.3602 184.254 85.2213 184.203C86.1137 184.177 87.006 184.075 87.8984 183.871C88.9437 183.642 89.9636 183.361 90.9579 182.979C92.6916 182.316 94.1704 181.271 95.2412 179.716C95.4197 179.435 95.5981 179.129 95.7001 178.823C95.9806 178.007 95.6236 177.421 94.7568 177.293C94.1959 177.217 93.6349 177.243 93.074 177.344C91.9777 177.574 90.8814 177.803 89.7851 178.007C87.9239 178.364 86.0882 178.619 84.176 178.594C83.4876 178.594 82.8247 178.492 82.1619 178.364C81.193 178.186 80.2752 177.803 79.4593 177.243C76.3743 175.126 74.1307 172.373 72.9324 168.803C71.8616 165.591 72.0655 162.378 73.2128 159.243C73.7738 157.738 74.5386 156.336 75.482 155.036C76.2213 154.016 77.1392 153.2 78.2865 152.69C78.7709 152.486 79.0769 152.461 79.1279 152.665C79.2298 152.996 78.8984 153.149 78.7199 153.327C78.6179 153.455 78.465 153.531 78.3375 153.659C77.9296 154.092 78.057 154.577 78.6179 154.755C78.7199 154.781 78.8219 154.832 78.9494 154.832C79.8417 154.959 80.6066 155.342 81.346 155.801C82.0089 156.209 82.6718 156.642 83.2837 157.152C83.4876 157.33 83.7171 157.509 83.9466 157.662C84.4565 157.968 85.0174 158.095 85.6293 157.968C86.5471 157.764 87.3885 157.432 88.0769 156.769C88.5358 156.31 89.1222 156.005 89.6831 155.724C91.0599 155.036 92.5131 154.475 93.9409 153.914C95.3432 153.353 96.7709 152.818 98.0967 152.053L98.1477 152.002ZM84.2525 175.407C84.2525 175.636 84.2525 175.917 84.2525 176.197C84.2525 176.682 84.5075 176.988 84.9409 177.166C85.3233 177.319 85.7313 177.395 86.1647 177.319C87.7454 177.064 89.3262 176.784 90.8814 176.452C92.2582 176.172 93.6349 175.891 95.0117 175.611C95.4196 175.534 95.6491 175.356 95.7766 174.948C96.1335 173.699 96.4905 172.475 96.8474 171.226C96.9494 170.894 96.8474 170.614 96.5415 170.435C96.261 170.257 95.9806 170.282 95.7001 170.563C95.5471 170.716 95.3942 170.894 95.2667 171.073C95.0372 171.378 94.8587 171.659 94.6293 171.965C94.4508 172.22 94.1959 172.347 93.8899 172.296C92.6916 172.118 91.5443 172.373 90.397 172.653C89.6576 172.832 88.9437 173.036 88.2044 173.24C87.8729 173.316 87.567 173.418 87.2355 173.469C86.7766 173.546 86.4961 173.291 86.4451 172.806C86.4451 172.5 86.4451 172.194 86.4451 171.888C86.4451 171.531 86.2157 171.327 85.8587 171.302C85.4508 171.276 85.1449 171.429 84.9664 171.812C84.8899 171.99 84.8134 172.169 84.7369 172.347C84.38 173.316 84.227 174.31 84.2525 175.381V175.407ZM100.442 155.52C100.034 155.214 99.601 155.087 99.1675 154.985C98.1222 154.73 97.1024 154.857 96.0825 155.061C94.8587 155.291 93.7114 155.724 92.5641 156.183C91.2128 156.744 89.9381 157.432 88.7143 158.248C88.3573 158.478 88.1534 158.758 88.0514 159.166C87.8729 159.931 87.6689 160.696 87.4905 161.461C87.3885 161.894 87.363 162.353 87.4395 162.812C87.5415 163.373 88.0259 163.653 88.5868 163.449C88.9692 163.322 89.1987 163.067 89.3007 162.684C89.4281 162.149 89.5301 161.588 89.6321 161.027C89.7596 160.39 89.8361 159.752 90.091 159.166C91.8247 158.427 93.5585 157.815 95.3432 157.381C95.8531 157.254 96.3885 157.152 96.9239 157.177C97.2044 157.177 97.4848 157.203 97.6888 157.509C97.6123 158.503 97.2043 159.497 97.2043 160.492C97.4338 160.721 97.6633 160.849 97.9182 160.9C98.1222 160.951 98.3007 160.874 98.4027 160.67C98.4536 160.594 98.4791 160.517 98.5046 160.441C99.04 159.141 99.5755 157.866 100.111 156.565C100.238 156.259 100.417 155.979 100.417 155.546L100.442 155.52Z" fill="#0F0F0F"></path><path d="M98.9129 194.249C100.647 191.954 102.253 189.583 103.655 187.085C105.873 183.133 107.556 179.002 108.474 174.566C108.78 173.164 108.958 171.762 109.086 170.334C109.213 168.983 109.239 167.631 109.188 166.306C109.035 162.303 108.193 158.478 106.587 154.807C105.975 153.405 105.287 152.079 104.395 150.83C104.14 150.473 104.114 150.141 104.191 149.733C104.471 148.306 104.395 146.878 103.885 145.501C103.681 144.966 103.451 144.456 102.967 144.073C102.661 144.124 102.431 144.328 102.202 144.532C101.615 145.068 101.182 145.73 100.774 146.393C100.545 146.776 100.315 147.158 100.035 147.515C99.5503 148.153 99.1424 148.178 98.556 147.643C98.3775 147.464 98.1991 147.286 98.0206 147.107C97.4852 146.47 96.8223 145.909 96.1339 145.45C94.3747 144.252 92.5135 143.181 90.4993 142.467C90.1934 142.365 89.862 142.238 89.6325 141.957C89.505 141.804 89.505 141.549 89.6835 141.422C89.9129 141.243 90.1934 141.192 90.4739 141.167C91.2387 141.116 91.9781 141.218 92.7175 141.447C93.5588 141.702 94.3747 141.983 95.1906 142.263C96.1339 142.569 97.0518 142.875 98.0461 142.926C99.1169 142.977 100.162 142.849 101.157 142.34C101.437 142.187 101.692 142.008 101.896 141.779C102.125 141.524 102.278 141.218 102.278 140.861C102.278 139.815 101.921 138.949 101.106 138.26C100.723 137.954 100.29 137.776 99.7798 137.776C99.4229 137.776 99.0404 137.776 98.6835 137.648C97.9951 137.47 97.7146 137.062 97.7911 136.348C97.8166 136.017 97.8676 135.685 97.8931 135.354C97.9441 134.487 97.5362 133.926 96.7968 133.543C96.5673 133.441 96.3379 133.34 96.0829 133.263C94.1707 132.728 92.437 131.81 90.7798 130.739C90.4739 130.535 90.1679 130.357 89.862 130.127C89.658 129.974 89.454 129.847 89.2501 129.668C88.2302 128.75 87.9753 127.45 88.5617 126.201C88.7656 125.742 89.301 125.614 89.76 125.895C90.0404 126.073 90.1934 126.303 90.2954 126.609C90.5503 127.323 90.8563 128.011 91.2387 128.674C91.6467 129.388 92.0546 130.076 92.6665 130.637C92.8959 130.841 93.1254 131.045 93.4314 131.147C93.9413 131.325 94.3237 131.172 94.5277 130.662C94.7826 130.025 94.8591 129.362 94.7826 128.674C94.6552 127.45 94.2727 126.328 93.6098 125.283C92.641 123.728 91.3662 122.478 89.9384 121.382C89.0971 120.719 88.2047 120.158 87.3124 119.623C87.1849 119.393 87.3124 119.24 87.3634 119.113C88.2812 117.175 89.709 115.722 91.5447 114.626C93.1254 113.682 94.8591 113.121 96.6948 112.943C97.3832 112.866 98.0971 112.815 98.7855 112.815C101.233 112.815 103.579 113.3 105.899 114.039C105.95 114.039 105.975 114.116 106.001 114.167C105.975 114.371 105.797 114.32 105.669 114.32C103.859 114.626 102.1 115.085 100.443 115.849C99.2699 116.385 98.1736 117.073 97.2047 117.94C97.1027 118.042 96.9753 118.119 96.9498 118.272C96.9753 118.374 97.0773 118.374 97.1282 118.348C98.5305 117.991 99.9583 118.017 101.386 118.246C103.655 118.628 105.771 119.393 107.658 120.745C110.004 122.427 111.839 124.569 113.293 127.042C114.746 129.541 115.638 132.243 116.199 135.073C116.607 137.215 116.836 139.408 116.938 141.6C117.015 143.385 117.04 145.195 117.015 146.98C117.015 147.184 117.066 147.413 116.913 147.617C116.658 147.566 116.632 147.337 116.556 147.184C115.689 145.526 114.593 144.048 113.216 142.773C112.451 142.034 111.584 141.396 110.615 140.937C110.463 140.861 110.31 140.784 110.131 140.81C110.08 140.759 110.029 140.733 109.953 140.708C109.953 140.708 109.902 140.759 109.876 140.784C109.953 140.81 110.004 140.835 110.08 140.886C110.08 141.065 110.259 141.167 110.361 141.269C113.089 143.716 114.848 146.776 115.944 150.218C116.556 152.155 116.887 154.144 117.066 156.158C117.168 157.28 117.193 158.402 117.168 159.524C117.117 161.155 116.964 162.762 116.734 164.368C116.352 166.892 115.74 169.365 114.924 171.787C113.497 176.019 111.38 179.895 108.703 183.464C106.689 186.141 104.548 188.691 102.253 191.113C101.208 192.235 100.137 193.357 98.9894 194.402C98.9384 194.351 98.862 194.274 98.811 194.223L98.9129 194.249Z" fill="#0F0F0F"></path><path d="M40.1958 198.633C40.1958 198.633 40.1703 198.48 40.1958 198.403C43.0769 182.137 45.9579 165.871 48.8389 149.605C48.8389 149.605 48.8899 149.579 48.9154 149.554C48.9664 149.503 49.0174 149.554 49.0429 149.605C49.8332 153.633 51.2355 157.432 53.0712 161.078C53.938 162.811 54.8304 164.52 55.7228 166.253C56.7426 168.242 57.7114 170.282 58.5018 172.398C59.6236 175.355 60.006 178.415 59.9041 181.576C59.8531 183.82 59.5471 185.987 58.7822 188.103C58.0429 190.117 56.9465 191.953 55.6463 193.661C54.397 195.318 52.9947 196.874 51.5414 198.352C51.2355 198.658 50.9296 198.786 50.4961 198.786C47.2837 198.786 44.0967 198.786 40.8842 198.786C40.6548 198.786 40.4253 198.837 40.2213 198.658L40.1958 198.633Z" fill="#0F0F0F"></path><path d="M55.3147 198.611C55.3147 198.381 55.5442 198.279 55.6971 198.126C56.9974 196.673 58.1702 195.143 59.1136 193.435C60.1334 191.523 60.8218 189.458 61.1787 187.316C61.3572 186.22 61.4847 185.098 61.5612 183.976C61.6631 182.064 61.7651 180.152 61.8926 178.265C62.0966 175.486 62.479 172.732 63.3714 170.081C63.9833 168.271 64.7226 166.511 65.5895 164.803C66.8388 162.381 68.1136 159.985 69.4138 157.588C70.4337 155.701 71.632 153.942 73.0087 152.285C73.9266 151.189 74.9209 150.169 76.0937 149.302C76.5527 148.97 77.0371 148.69 77.5215 148.409C77.6745 148.333 77.8274 148.282 77.9804 148.231C78.4393 148.155 78.7198 148.435 78.7198 148.894C78.7198 149.149 78.5923 149.378 78.4393 149.582C78.2354 149.812 77.9804 149.99 77.7255 150.169C77.0881 150.577 76.4507 150.985 75.8388 151.418C72.0399 154.146 69.5413 157.792 68.5215 162.381C68.0881 164.344 68.0116 166.308 68.2155 168.322C68.598 172.044 69.9238 175.435 71.734 178.698C73.4422 181.732 74.6405 184.945 75.2269 188.387C75.5073 190.019 75.6093 191.676 75.5073 193.333C75.4053 195.016 75.0484 196.673 74.4365 198.254C74.3855 198.356 74.36 198.458 74.2835 198.56C74.258 198.611 74.207 198.636 74.1816 198.662C73.6206 198.738 56.6405 198.815 55.5442 198.738C55.4677 198.738 55.3657 198.713 55.3402 198.585L55.3147 198.611Z" fill="#0F0F0F"></path><path d="M85.3233 118.55C84.9918 118.652 84.7369 118.525 84.4564 118.448C82.9777 118.066 81.4734 117.632 79.9692 117.326C78.3884 117.02 76.8332 116.791 75.227 116.689C74.0797 116.613 72.9323 116.562 71.785 116.613C70.6377 116.664 69.4904 116.74 68.3431 116.817C68.1391 116.562 68.2666 116.281 68.3176 116.026C68.4961 114.93 68.6236 113.808 68.5981 112.686C68.5216 108.403 66.8644 104.859 63.5499 102.131C63.244 101.876 62.9635 101.647 62.6066 101.341C62.887 101.213 63.1165 101.264 63.3205 101.264C66.9918 101.264 70.6632 101.264 74.3601 101.264C78.3629 101.264 82.3913 101.264 86.3941 101.264C87.2865 101.264 87.108 101.111 87.8474 101.902C88.9692 103.125 89.785 104.502 90.1165 106.159C90.4224 107.638 90.3204 109.117 89.9125 110.57C89.3261 112.763 88.2298 114.726 86.9295 116.562C86.4196 117.275 85.9352 117.989 85.3743 118.601L85.3233 118.55Z" fill="#0F0F0F"></path><path d="M53.4529 123.779C53.4529 123.575 53.4019 123.499 53.4019 123.422C54.6512 116.233 55.9005 109.068 57.1753 101.878C57.2008 101.7 57.2773 101.496 57.3283 101.292C57.7872 101.165 58.2206 101.241 58.6795 101.241C58.8835 101.241 59.062 101.343 59.2149 101.445C62.3254 103.587 64.722 106.289 65.9458 109.91C66.3028 110.98 66.4812 112.102 66.4812 113.224C66.4812 115.111 65.8693 116.793 64.5181 118.196C63.6257 119.114 62.6059 119.827 61.4841 120.439C59.6484 121.459 57.6852 122.224 55.6965 122.938C54.9572 123.218 54.2178 123.473 53.4019 123.754L53.4529 123.779Z" fill="#0F0F0F"></path><path d="M56.1562 141.828C56.3857 141.803 56.5131 141.956 56.6661 142.083C58.7823 143.919 61.3063 144.862 64.0089 145.398C65.8701 145.755 67.7313 145.806 69.6179 145.755C70.0514 145.755 70.5103 145.755 70.9437 145.755C71.0202 145.882 71.0202 145.984 70.8927 146.061C70.6633 146.188 70.4338 146.29 70.2298 146.392C68.9806 147.004 67.7058 147.616 66.5075 148.355C64.8757 149.35 63.448 150.523 62.3007 152.052C61.3063 153.404 60.6434 154.908 60.1845 156.514C59.7256 158.12 59.4196 159.777 59.2667 161.46C59.1902 162.225 59.1137 162.964 59.0882 163.729C59.0882 163.908 59.0627 164.061 58.8842 164.163C58.5783 164.086 58.5528 163.78 58.4763 163.576C57.8644 162.174 57.38 160.746 56.9721 159.293C56.3092 157.049 55.9012 154.755 55.6463 152.46C55.3913 150.166 55.3403 147.871 55.4678 145.576C55.5188 144.429 55.6973 143.282 55.9522 142.16C55.9777 142.007 56.0287 141.879 56.1562 141.803V141.828Z" fill="#0F0F0F"></path><path d="M79.9948 134.892C79.7399 135.912 79.8164 136.855 80.2498 137.773C80.0203 137.926 79.8674 137.824 79.7654 137.697C79.6124 137.544 79.4849 137.34 79.3574 137.161C78.5416 135.81 77.2923 134.969 75.8135 134.459C74.7427 134.102 73.6464 133.872 72.5246 133.745C71.8107 133.668 71.0713 133.592 70.3574 133.592C68.3178 133.617 66.3291 134 64.5189 134.943C63.754 135.351 62.9637 135.376 62.1478 135.172C61.1535 134.918 60.2611 134.484 59.3943 133.949C58.3489 133.337 57.3801 132.623 56.4623 131.833C56.3348 131.731 56.1818 131.629 56.1563 131.425C56.6407 131.119 57.1251 131.348 57.6096 131.501C57.8135 131.578 57.992 131.731 58.196 131.833C58.3744 131.96 58.5529 132.087 58.7569 132.215C59.1648 132.47 59.5982 132.495 60.0317 132.215C60.5926 131.858 61.179 131.527 61.7654 131.17C62.8617 130.507 63.9835 129.844 65.1308 129.283C66.1506 128.799 67.196 128.595 68.3178 128.646C69.5161 128.697 70.5614 129.104 71.4283 129.946C73.3404 131.807 75.6096 133.158 78.0572 134.178C78.4651 134.357 78.8985 134.459 79.3319 134.586C79.5359 134.663 79.7654 134.663 80.0203 134.867L79.9948 134.892ZM61.8674 134.025C62.3008 134.28 62.7852 134.306 63.2441 134.433C63.3461 134.459 63.4736 134.433 63.5756 134.408C64.06 134.127 64.5954 133.898 65.0288 133.49C64.6974 132.878 64.162 132.878 63.6266 132.954C62.9127 133.056 62.2243 133.235 61.8674 134.051V134.025Z" fill="#0F0F0F"></path><path d="M98.9126 194.247C98.9126 194.247 99.0401 194.375 99.0911 194.426C98.9381 194.681 98.7597 194.91 98.4282 194.936C98.4537 194.604 98.6577 194.426 98.9126 194.247Z" fill="#645841"></path><path d="M98.4037 194.935C98.4037 194.935 98.3522 194.987 98.3264 195.012V194.961C98.3264 194.961 98.3779 194.961 98.3779 194.935H98.4037Z" fill="#645841"></path><path d="M84.2523 175.406C84.2523 174.335 84.4053 173.341 84.7367 172.372C84.8132 172.193 84.8897 172.015 84.9662 171.836C85.1447 171.454 85.4506 171.301 85.8586 171.326C86.2155 171.352 86.4195 171.53 86.445 171.913C86.445 172.219 86.445 172.525 86.445 172.831C86.4705 173.315 86.7509 173.545 87.2353 173.494C87.5668 173.443 87.8982 173.341 88.2042 173.264C88.9435 173.06 89.6574 172.856 90.3968 172.678C91.5441 172.397 92.6914 172.142 93.8897 172.321C94.1957 172.372 94.4506 172.244 94.6291 171.989C94.8331 171.683 95.037 171.377 95.2665 171.097C95.394 170.919 95.5469 170.74 95.6999 170.587C95.9549 170.307 96.2353 170.281 96.5413 170.46C96.8217 170.638 96.9492 170.919 96.8472 171.25C96.4903 172.499 96.1078 173.723 95.7764 174.972C95.6744 175.38 95.445 175.559 95.0115 175.635C93.6348 175.89 92.258 176.171 90.8812 176.477C89.326 176.808 87.7452 177.114 86.1645 177.343C85.7311 177.42 85.3231 177.343 84.9407 177.19C84.5328 177.012 84.2523 176.706 84.2523 176.222C84.2523 175.941 84.2523 175.661 84.2523 175.431V175.406Z" fill="#B09560"></path><path d="M100.442 155.521C100.442 155.929 100.263 156.235 100.136 156.541C99.6006 157.841 99.0651 159.141 98.5297 160.416C98.5042 160.492 98.4532 160.569 98.4278 160.645C98.3258 160.849 98.1473 160.926 97.9433 160.875C97.6884 160.824 97.4844 160.696 97.2295 160.467C97.2295 159.473 97.6374 158.504 97.7139 157.484C97.5099 157.203 97.2295 157.178 96.949 157.152C96.4136 157.127 95.8782 157.229 95.3683 157.356C93.5581 157.79 91.8244 158.427 90.1161 159.141C89.8612 159.753 89.7847 160.39 89.6572 161.002C89.5552 161.563 89.4277 162.099 89.3258 162.66C89.2493 163.042 88.9943 163.297 88.6119 163.424C88.0765 163.628 87.5666 163.348 87.4646 162.787C87.3881 162.354 87.4136 161.895 87.5156 161.436C87.694 160.671 87.898 159.906 88.0765 159.141C88.1785 158.733 88.3824 158.453 88.7394 158.223C89.9632 157.407 91.2379 156.719 92.5892 156.158C93.7365 155.674 94.8838 155.266 96.1076 155.036C97.1275 154.832 98.1473 154.705 99.1926 154.96C99.6261 155.062 100.059 155.164 100.467 155.495L100.442 155.521Z" fill="#B09560"></path><path d="M110.181 140.883C110.181 140.883 110.054 140.832 109.977 140.781C109.977 140.756 110.028 140.705 110.054 140.705C110.105 140.73 110.181 140.781 110.232 140.807L110.181 140.858V140.883Z" fill="#B09560"></path><path d="M61.8671 134.03C62.1985 133.215 62.9124 133.036 63.6263 132.934C64.1362 132.858 64.6971 132.858 65.0285 133.47C64.5951 133.877 64.0597 134.107 63.5753 134.387C63.4988 134.438 63.3458 134.438 63.2438 134.413C62.7849 134.285 62.326 134.26 61.8671 134.005V134.03Z" fill="#B09560"></path></svg> 