<?xml version="1.0" encoding="UTF-8"?> <svg xmlns="http://www.w3.org/2000/svg" width="300" height="300" viewBox="0 0 300 300" fill="none"><g clip-path="url(#clip0_269_23487)"><rect width="300" height="300" rx="150" fill="black"></rect><g clip-path="url(#clip1_269_23487)"><mask id="mask0_269_23487" style="mask-type:luminance" maskUnits="userSpaceOnUse" x="0" y="0" width="300" height="300"><path d="M300 0H0V300H300V0Z" fill="white"></path></mask><g mask="url(#mask0_269_23487)"><path d="M300 0H0V300H300V0Z" fill="url(#paint0_radial_269_23487)"></path><path d="M42.858 111.335C42.1194 99.985 44.757 94.5753 39.7983 92.9841C39.1651 92.5599 36.211 93.4084 36 92.2416C38.5321 90.6505 45.4956 92.2416 47.1837 91.8174C52.9866 91.0747 68.6016 92.0295 69.5511 95.5299C78.2027 104.652 68.9181 121.094 56.3628 120.033C54.4636 120.457 52.6701 118.654 56.0463 118.654C59.8445 118.654 65.1198 114.411 65.1198 107.41C66.1749 102.955 60.5831 93.7266 54.3582 94.5753C52.7756 94.7874 51.1929 94.1509 51.1929 96.1663C51.2985 104.864 50.8764 130.534 51.5095 137.854C51.4039 141.566 54.6747 141.884 57.629 141.778C59.3171 141.778 58.8949 143.157 57.4179 143.051C48.4498 142.945 46.4451 142.839 38.4267 143.051C37.5826 143.051 37.0551 142.839 37.0551 142.415C39.4816 140.718 42.1194 143.369 42.5414 137.854C43.0689 132.868 42.7524 118.018 42.858 111.335Z" fill="white"></path><path d="M76.7251 121.097C74.404 94.1537 126.208 88.6377 125.997 120.036C126.524 151.859 75.3535 150.267 76.7251 121.097ZM117.134 122.157C118.189 99.033 86.0097 91.0775 85.4821 119.293C83.6886 140.508 115.974 153.449 117.134 122.157Z" fill="white"></path><path d="M143.827 118.549H144.143C146.148 116.427 154.8 107.835 156.593 105.82C159.231 102.85 160.814 101.471 157.965 99.7737C157.965 99.3493 158.282 99.2433 158.915 99.2433C162.713 99.3493 167.988 99.3493 171.998 99.2433C175.479 100.198 169.676 100.622 168.726 101.047C163.134 103.168 154.589 113.139 149.841 117.594C157.332 125.55 167.883 140.188 178.433 142.309C178.433 142.734 178.116 142.946 177.062 142.946C174.635 142.946 169.887 143.052 167.777 142.84C159.126 142.203 149.102 126.08 144.249 120.988H143.933C143.933 126.08 143.933 135.415 144.038 138.597C143.933 141.673 146.887 141.885 149.102 141.779C153.006 144.007 138.974 142.522 139.712 142.84C138.341 142.416 132.643 144.007 131.061 142.416C132.643 140.612 135.703 143.158 135.808 138.597C136.23 134.46 136.019 121.837 136.125 116.109C135.175 104.971 138.974 100.728 131.061 100.41C126.524 98.3947 140.451 99.5614 139.712 99.3493C141.4 99.6675 147.098 98.3947 148.575 99.7737C147.203 101.471 143.827 99.2433 143.827 103.698C143.721 105.502 143.721 107.199 143.721 115.897V118.549H143.827Z" fill="white"></path><path d="M185.713 116.004C185.08 106.033 187.612 102.32 183.076 100.623C172.525 99.0321 188.985 99.2442 189.618 99.3503C193.944 99.2442 205.866 99.8807 209.242 98.7138C210.085 98.2895 208.714 105.29 208.819 106.775C207.66 109.533 207.765 106.033 207.237 104.866C206.287 101.578 197.002 102.851 194.049 102.533C193.732 102.533 193.627 102.745 193.627 103.063V117.277C193.627 117.595 193.732 117.913 194.049 117.913C197.53 117.595 205.759 118.974 208.186 116.11C209.347 117.065 208.293 117.383 208.186 120.883C207.66 122.793 208.609 125.232 207.342 126.081C206.287 125.869 206.92 124.384 206.604 123.535C205.654 119.823 197.214 121.52 193.944 120.989C193.204 120.989 193.732 125.763 193.627 126.187C194.154 132.87 190.777 140.507 201.645 139.553C205.233 139.553 209.452 139.446 209.769 134.567C209.875 133.931 210.085 133.718 210.402 133.718C211.774 134.991 210.297 139.765 210.085 141.462C209.664 142.947 209.136 142.947 206.92 142.947C204.388 142.416 175.057 143.689 181.387 141.568C188.035 141.568 184.554 132.764 185.503 125.975C185.713 126.187 185.713 116.004 185.713 116.004Z" fill="white"></path><path d="M222.535 116.006C221.902 106.035 224.434 102.322 219.897 100.625C219.37 100.201 216.732 100.943 216.522 99.7764C218.526 98.3975 224.962 99.7764 226.017 99.3521C228.021 99.3521 233.403 99.246 235.302 99.246C250.284 97.761 257.142 112.293 242.476 122.37C249.439 130.22 254.503 139.554 261.889 141.464C262.522 141.57 262.839 141.57 263.26 141.57C264.421 141.676 264.105 142.949 262.839 142.843C253.027 143.479 248.595 142.524 242.581 133.19C236.884 125.977 238.995 124.386 230.554 124.81C229.921 124.704 230.131 125.659 230.131 126.083C230.871 132.447 228.337 139.766 232.77 141.464C233.613 141.57 234.879 141.676 235.723 141.676C236.989 141.888 236.568 143.055 235.302 142.949C227.388 142.843 225.805 142.737 218.737 142.949C217.365 143.055 217.048 141.782 218.526 141.676C225.172 141.676 221.691 132.872 222.64 126.083C222.535 126.189 222.535 116.006 222.535 116.006ZM230.131 120.461C244.48 129.477 248.806 102.11 234.141 102.216C232.242 102.428 230.343 101.686 230.131 103.277V120.461Z" fill="white"></path><path d="M75.8817 178.798H76.1982C78.5193 176.253 88.3316 166.176 90.3362 163.842C93.1848 160.236 95.295 158.751 91.9187 156.736C91.9187 156.312 92.2353 156.099 92.9738 156.099C97.2996 156.312 103.313 156.312 107.85 156.099C111.754 157.159 105.213 157.479 104.052 158.115C97.5105 160.66 87.804 172.647 82.2122 177.844C90.9692 187.072 102.786 204.363 115.236 206.803C115.236 207.226 114.919 207.439 113.653 207.439C110.91 207.439 105.529 207.546 103.102 207.333C93.3959 206.061 81.7901 187.285 76.3037 181.557H75.9872C75.9872 187.603 75.8817 198.634 76.1982 202.242C76.0928 205.954 79.2579 206.272 81.8957 206.166C86.1159 208.393 70.8174 206.908 71.7669 207.226C70.1844 206.803 63.7485 208.5 61.9548 206.803C64.3815 205.105 67.0191 207.757 67.4412 202.242C67.9688 197.469 67.7577 182.512 67.7577 175.828C66.9137 163.312 70.7118 157.266 62.0603 157.372C56.7851 155.25 73.0331 156.523 71.8725 156.312C73.6661 156.736 79.7855 155.145 81.4736 156.736C79.68 158.539 76.1982 155.994 76.0928 161.403C75.8817 161.509 75.7763 171.48 75.8817 178.798Z" fill="#FE1C24"></path><path d="M130.007 190.677C130.534 203.194 128.002 203.83 139.186 204.042C146.466 204.148 145.833 202.876 148.259 198.102C149.631 199.269 148.259 203.512 147.943 206.058C147.521 207.331 147.31 207.649 144.145 207.649C142.035 207.118 111.332 208.392 117.874 206.269C124.626 206.269 121.039 197.466 121.988 190.677V180.493C121.355 170.523 123.887 166.81 119.351 165.114C118.823 164.689 116.502 165.325 116.396 164.265C116.396 163.84 116.818 163.734 117.662 163.734C124.204 163.84 128.002 163.84 134.438 163.734C135.282 163.734 135.704 163.84 135.704 164.265C135.493 165.325 133.172 164.689 132.328 165.114C128.002 164.794 130.745 184.525 130.007 190.677Z" fill="#FE1C24"></path><path d="M165.879 192.904C165.563 192.904 165.458 193.011 165.351 193.329C164.613 195.45 161.132 202.557 161.342 204.573C161.132 207.225 165.14 205.315 165.458 206.8C164.085 208.392 159.866 206.8 157.86 207.225C157.227 207.225 154.062 207.436 151.002 207.436C150.264 207.436 149.947 207.331 149.947 206.8C149.947 206.482 150.159 206.164 150.581 206.164C154.062 206.376 155.961 204.679 157.227 200.967C179.279 156.522 167.778 144.535 191.412 199.693C193.733 204.891 195.42 205.633 196.476 205.846C197.531 206.271 199.22 205.527 199.536 206.694C201.752 207.543 179.912 207.967 184.554 206.058C186.77 206.058 180.333 193.86 180.545 193.117C180.438 192.799 180.228 192.693 179.912 192.693H165.879V192.904ZM178.539 189.723C178.856 189.723 178.856 189.616 178.856 189.405L173.265 174.766C173.159 174.024 172.737 174.129 172.631 174.766L166.934 189.405C166.091 190.252 178.539 189.405 178.539 189.723Z" fill="#FE1C24"></path><path d="M204.389 206.697C203.439 206.274 203.228 206.061 203.228 204.682C203.228 201.817 203.334 192.589 204.917 196.515C206.711 214.228 235.83 201.394 217.26 189.726C210.402 186.331 203.651 180.496 204.494 174.556C203.756 163.95 220.109 161.191 227.916 163.95C229.815 165.01 228.128 166.282 228.549 171.586C228.761 173.496 227.283 174.238 227.178 172.435C226.757 169.147 224.541 165.964 219.054 165.964C207.237 166.813 209.136 176.997 219.687 181.134C242.582 194.074 223.275 214.759 204.389 206.697Z" fill="#FE1C24"></path><path d="M108.166 116.532C105.423 114.729 100.781 109.001 101.097 109.213C101.097 109.213 98.5652 112.819 95.2945 115.577C92.9734 117.593 90.0191 119.184 90.1247 122.366C89.9137 127.458 96.9826 130.109 100.253 126.291C98.7763 134.246 93.7118 131.594 104.79 132.019C104.474 132.231 101.836 127.988 102.047 126.291C108.905 132.443 116.923 121.093 108.166 116.532Z" fill="white"></path></g></g></g><defs><radialGradient id="paint0_radial_269_23487" cx="0" cy="0" r="1" gradientUnits="userSpaceOnUse" gradientTransform="rotate(45) scale(424.264)"><stop stop-color="#919191"></stop><stop offset="1"></stop></radialGradient><clipPath id="clip0_269_23487"><rect width="300" height="300" rx="150" fill="white"></rect></clipPath><clipPath id="clip1_269_23487"><rect width="300" height="300" fill="white"></rect></clipPath></defs></svg> 