<?xml version="1.0" encoding="UTF-8"?> <svg xmlns="http://www.w3.org/2000/svg" width="300" height="300" viewBox="0 0 300 300" fill="none"><rect width="300" height="300" rx="150" fill="#F5F5F5"></rect><g clip-path="url(#clip0_295_6625)"><mask id="mask0_295_6625" style="mask-type:luminance" maskUnits="userSpaceOnUse" x="41" y="123" width="216" height="55"><path d="M257 123.008H41.9795V177.98H257V123.008Z" fill="white"></path></mask><g mask="url(#mask0_295_6625)"><path d="M80.7513 125.189C80.7513 126.345 80.932 127.321 80.8517 128.316C80.4406 133.009 80.0582 137.704 79.6768 142.388C79.1853 148.469 78.7332 154.551 78.1928 160.622C78.1623 162.102 78.0146 163.577 77.7511 165.034C77.7943 165.142 77.8075 165.26 77.7895 165.375C77.772 165.49 77.7241 165.598 77.6507 165.688C77.4098 165.487 77.5006 165.246 77.5303 165.014C77.2364 162.689 76.9486 160.374 76.667 158.068L74.9499 144.183C74.3564 139.522 73.7837 134.849 73.1509 130.184C72.9195 128.546 72.8995 126.897 72.8096 125.228H60.7633C61.1014 127.025 61.1655 128.862 60.9536 130.677C60.459 137.029 59.9643 143.378 59.4697 149.725C59.0681 154.911 58.6971 160.108 58.3157 165.295V166.08H58.1367C58.0433 165.834 58.0189 165.566 58.066 165.307C57.8173 164.267 57.6628 163.207 57.6042 162.14C56.912 156.672 56.2591 151.194 55.5965 145.723C54.7795 138.919 53.7154 132.144 53.2484 125.239H42C42.1807 125.932 42.3815 126.565 42.5237 127.248C43.3967 131.148 43.7886 135.117 44.3909 139.058C45.1041 143.712 45.7361 148.366 46.3986 153.03C47.1616 158.347 47.9446 163.664 48.6979 168.992C49.1258 171.26 49.4109 173.553 49.5516 175.857H61.8798C61.9557 175.525 62.0125 175.19 62.05 174.852C62.5249 169.404 62.9933 163.953 63.4554 158.498L64.5963 145.644C64.4785 144.825 64.5935 143.988 64.928 143.231C65.0605 143.573 65.102 143.944 65.0485 144.307C66.3869 154.786 67.7254 165.283 69.0639 175.798H81.0228C83.0908 158.902 85.1482 142.065 87.2266 125.128C85.0784 125.148 82.9101 125.108 80.7513 125.189Z" fill="black"></path><path d="M168.655 154.982C169.18 151.717 169.153 148.387 168.575 145.131C168.326 143.142 167.736 141.21 166.829 139.422L166.718 138.769C166.647 138.734 166.589 138.676 166.555 138.605C166.52 138.534 166.51 138.454 166.528 138.377C166.512 138.371 166.498 138.362 166.486 138.351C166.474 138.34 166.464 138.326 166.458 138.311C166.451 138.296 166.447 138.28 166.447 138.263C166.447 138.247 166.451 138.231 166.457 138.216C166.385 138.187 166.325 138.134 166.287 138.067C166.248 137.999 166.234 137.921 166.246 137.844C166.223 137.827 166.205 137.804 166.194 137.777C166.184 137.75 166.181 137.721 166.186 137.693C166.112 137.66 166.049 137.604 166.008 137.534C165.967 137.463 165.948 137.382 165.955 137.301H165.745L165.634 137.029C165.652 137.048 165.674 137.063 165.698 137.072C165.723 137.081 165.749 137.083 165.774 137.08L165.373 136.527C165.36 136.407 165.318 136.292 165.251 136.193C165.185 136.093 165.095 136.011 164.989 135.953L164.839 135.712C164.825 135.592 164.781 135.477 164.711 135.379C164.641 135.28 164.547 135.201 164.438 135.149L164.287 134.908C164.17 134.561 163.936 134.265 163.624 134.073C163.564 133.932 163.504 133.782 163.313 133.772C163.323 133.752 163.328 133.731 163.329 133.709C163.329 133.687 163.325 133.665 163.317 133.645C163.308 133.625 163.295 133.607 163.279 133.593C163.262 133.578 163.243 133.567 163.223 133.56C162.345 132.312 161.267 131.218 160.03 130.324C158.881 129.26 157.615 128.328 156.257 127.547C152.981 125.517 149.326 124.175 145.516 123.601C145.363 123.484 145.188 123.401 145.001 123.357C144.814 123.314 144.62 123.311 144.431 123.349L143.397 123.262C142.983 123.025 142.494 122.957 142.032 123.072C140.426 122.991 138.829 123.001 137.231 123.072C137.038 123.005 136.833 122.987 136.632 123.019C136.431 123.05 136.24 123.13 136.077 123.252L135.314 123.333H134.541L133.959 123.614C133.871 123.599 133.783 123.579 133.697 123.554C133.356 123.641 133.025 123.754 132.693 123.835C128.689 124.706 124.904 126.385 121.571 128.77C120.662 129.319 119.852 130.015 119.172 130.831C118.991 130.831 118.89 130.9 118.89 131.093C118.854 131.086 118.818 131.088 118.783 131.099C118.748 131.108 118.716 131.126 118.689 131.15C118.662 131.174 118.641 131.204 118.627 131.238C118.613 131.271 118.607 131.308 118.61 131.344C118.236 131.69 117.878 132.052 117.535 132.43C117.499 132.428 117.462 132.434 117.429 132.448C117.395 132.462 117.366 132.482 117.341 132.509C117.316 132.536 117.298 132.568 117.286 132.602C117.275 132.637 117.271 132.674 117.276 132.711C117.086 132.711 117.014 132.851 116.944 132.992C116.53 133.276 116.187 133.651 115.94 134.088C115.595 134.385 115.326 134.761 115.155 135.183L115.005 135.425C114.882 135.49 114.778 135.585 114.702 135.702C114.626 135.82 114.581 135.955 114.572 136.095C114.499 136.132 114.436 136.187 114.39 136.255C114.344 136.324 114.317 136.404 114.311 136.487C113.941 136.871 113.671 137.34 113.526 137.854L113.405 138.105C113.172 138.324 113.026 138.62 112.994 138.939C112.894 139.14 112.773 139.331 112.693 139.532C110.331 145.167 109.919 151.43 111.522 157.326C113.781 165.558 119.051 171.339 126.641 175.038C129.154 176.32 131.871 177.154 134.671 177.5C135.84 177.838 137.055 177.987 138.27 177.94C139.336 178.02 140.407 178.02 141.473 177.94C141.979 178.039 142.504 177.972 142.968 177.748C143.367 177.816 143.776 177.792 144.163 177.679C144.314 177.716 144.471 177.718 144.622 177.685C144.774 177.652 144.915 177.584 145.036 177.487C145.347 177.487 145.668 177.487 145.969 177.4C149.175 176.75 152.255 175.589 155.091 173.959C158.031 172.318 160.625 170.123 162.732 167.497C165.544 164.372 167.477 160.556 168.334 156.44C168.494 155.937 168.561 155.464 168.655 154.982ZM160.021 130.657L162.901 133.539C162.962 133.69 163.031 133.83 163.213 133.841C163.198 133.88 163.198 133.923 163.213 133.961C163.228 134 163.257 134.032 163.293 134.051C163.423 134.386 163.645 134.676 163.934 134.889L164.109 135.13C164.125 135.252 164.173 135.367 164.247 135.466C164.32 135.564 164.418 135.642 164.53 135.692L164.649 135.931C164.665 136.047 164.707 136.159 164.771 136.258C164.836 136.357 164.921 136.441 165.021 136.503C165.141 136.684 165.161 136.945 165.412 137.027L165.499 137.289C165.879 137.984 166.214 138.703 166.503 139.44C164.947 140.103 163.381 140.737 161.844 141.449C161.646 141.597 161.4 141.667 161.154 141.644C160.908 141.622 160.678 141.51 160.51 141.328C158.182 139.04 156.267 136.367 154.847 133.428C156.574 132.412 158.241 131.447 160.017 130.694L160.021 130.657ZM159.017 147.443C158.936 145.959 158.691 144.489 158.285 143.06C158.526 142.89 158.787 142.749 158.896 143.01C159.388 144.347 159.649 145.758 159.669 147.182C159.679 147.383 159.459 147.463 159.017 147.443ZM159.469 150.358C159.278 151.893 158.805 153.378 158.072 154.74C157.751 154.61 157.44 154.499 157.591 154.167C158.104 152.854 158.543 151.513 158.906 150.15C158.906 150.09 159.056 150.08 159.137 150.039C159.217 149.998 159.458 150.15 159.458 150.361L159.469 150.358ZM155.03 136.496C156.132 137.613 157.056 138.891 157.771 140.286C157.4 140.577 157.189 140.497 157.118 140.356C156.497 139.039 155.373 138.045 154.74 136.738C154.73 136.728 154.861 136.637 155.03 136.496ZM150.966 133.23C151.737 133.598 152.422 134.125 152.974 134.778C152.793 134.838 152.632 134.952 152.562 134.909C151.252 134.114 149.961 133.3 148.596 132.446C149.319 132.263 149.5 132.315 150.966 133.23ZM145.846 131.079C146.026 131.079 146.137 131.166 146.037 131.37C145.862 131.793 145.655 131.491 145.454 131.37L144.962 131.283C144.858 131.296 144.752 131.287 144.651 131.255C144.551 131.223 144.459 131.17 144.381 131.099L142.012 130.757C141.91 130.793 141.801 130.806 141.694 130.796C141.586 130.785 141.482 130.752 141.389 130.697C141.178 130.522 141.168 130.356 141.477 130.274C141.74 130.184 142.026 130.184 142.29 130.274C142.446 130.237 142.608 130.233 142.766 130.263C142.924 130.293 143.073 130.357 143.204 130.449L143.907 130.52C144.214 130.474 144.527 130.549 144.78 130.73L145.252 130.801C145.365 130.8 145.478 130.825 145.58 130.873C145.683 130.922 145.773 130.993 145.844 131.082L145.846 131.079ZM135.295 123.561L136.612 123.5C136.846 123.568 137.09 123.587 137.332 123.558C137.574 123.528 137.807 123.45 138.018 123.329H142.034C142.445 123.661 142.926 123.52 143.389 123.53L144.453 123.59C144.754 123.892 145.166 123.802 145.527 123.862C145.578 125.47 145.326 127.058 145.226 128.807C141.609 129.395 137.92 129.395 134.303 128.807C134.203 127.069 134.102 125.47 134.002 123.871C134.449 123.855 134.889 123.749 135.295 123.561ZM133.849 131.049C133.892 130.994 133.95 130.953 134.016 130.93C134.081 130.907 134.152 130.903 134.22 130.918C134.95 130.653 135.722 130.52 136.499 130.526C136.634 130.429 136.788 130.362 136.951 130.329C137.113 130.296 137.281 130.298 137.443 130.335C137.792 130.335 138.216 130.013 138.447 130.566C138.316 130.969 137.995 130.787 137.724 130.787L134.07 131.431C133.929 131.551 133.789 131.662 133.721 131.37C133.653 131.079 133.688 131.109 133.849 131.049ZM131.025 132.306C129.768 133.256 128.424 134.083 127.01 134.778C127.334 133.864 129.813 132.306 131.025 132.306ZM126.311 136.547C128.466 134.503 131.065 132.986 133.903 132.114C136.742 131.242 139.743 131.039 142.673 131.521C146.805 131.995 150.652 133.859 153.585 136.808C155.089 138.245 156.278 139.979 157.076 141.9C157.874 143.821 158.263 145.887 158.22 147.967C158.177 150.047 157.701 152.095 156.824 153.981C155.946 155.867 154.686 157.55 153.123 158.922C149.434 162.262 144.605 164.061 139.63 163.948C137.113 163.971 134.616 163.496 132.283 162.548C129.95 161.601 127.828 160.202 126.038 158.43C124.555 157.01 123.38 155.301 122.587 153.408C121.793 151.514 121.398 149.478 121.425 147.425C121.452 145.372 121.902 143.347 122.746 141.475C123.59 139.604 124.81 137.926 126.33 136.547H126.311ZM149.811 163.113C148.508 163.781 147.143 164.32 145.736 164.722C145.464 164.621 145.444 164.39 145.394 164.179C145.344 163.967 145.475 164.004 145.535 163.988C146.989 163.563 148.396 162.987 149.731 162.27C150.167 162.028 150.363 162.168 150.524 162.551C150.423 162.923 150.072 162.983 149.811 163.113ZM153.164 160.892C152.793 160.691 152.602 160.45 152.863 160.218C153.955 159.246 154.963 158.184 155.875 157.042C156.035 156.841 156.266 156.922 156.458 157.042C156.166 158.118 155.022 159.435 153.164 160.852V160.892ZM142.392 165.273C140.574 165.604 138.711 165.604 136.893 165.273C136.842 164.76 136.973 164.499 137.465 164.569C138.914 164.787 140.387 164.804 141.841 164.62C142.081 164.591 142.081 164.611 142.392 165.273ZM126.259 160.671C124.923 159.665 123.766 158.442 122.836 157.053C123.186 156.57 123.458 156.6 123.689 156.912C124.468 158.004 125.378 158.996 126.399 159.866C126.748 160.158 126.641 160.382 126.259 160.671ZM133.879 164.149C133.758 164.682 133.397 164.581 133.046 164.461C131.565 163.989 130.146 163.341 128.819 162.531C128.819 162.168 128.99 161.817 129.361 162.018C130.783 162.745 132.248 163.382 133.749 163.928C133.809 163.958 133.839 164.078 133.879 164.149ZM120.718 149.795C121.012 151.289 121.463 152.748 122.063 154.147L121.43 154.469C120.785 153.187 120.351 151.809 120.145 150.388C120.085 150.016 120.156 149.795 120.718 149.795ZM120.026 147.162C119.966 145.153 120.463 143.232 121.161 142.678C121.161 142.678 121.262 142.739 121.249 142.759C121.028 144.187 120.817 145.624 120.566 147.051C120.536 147.242 120.304 147.242 120.024 147.182L120.026 147.162ZM124.985 136.577C125.03 136.624 125.056 136.686 125.056 136.751C125.056 136.817 125.03 136.879 124.985 136.926C124.082 137.974 123.256 139.086 122.514 140.253C122.514 140.304 122.34 140.253 122.252 140.253C122.147 140.223 122.045 140.184 121.947 140.135C122.647 138.775 123.566 137.539 124.667 136.476C124.738 136.427 124.889 136.467 124.989 136.597L124.985 136.577ZM113.724 138.074L113.811 137.824C114.113 137.568 114.31 137.21 114.364 136.819C114.43 136.782 114.486 136.73 114.527 136.667C114.568 136.604 114.592 136.531 114.597 136.456C114.929 136.146 115.186 135.765 115.35 135.341L115.5 135.09C115.802 134.889 116.031 134.597 116.153 134.256L116.294 134.024C116.697 133.739 117.025 133.36 117.247 132.919C117.286 132.903 117.317 132.873 117.334 132.836C117.351 132.798 117.353 132.756 117.34 132.717C117.375 132.717 117.411 132.71 117.443 132.696C117.477 132.682 117.507 132.66 117.531 132.633C117.555 132.607 117.573 132.576 117.583 132.541C117.59 132.507 117.59 132.472 117.582 132.437C117.619 132.441 117.656 132.436 117.691 132.423C117.724 132.41 117.754 132.388 117.778 132.361C117.808 132.335 117.831 132.301 117.844 132.263C117.855 132.227 117.857 132.189 117.85 132.153C117.887 132.158 117.925 132.154 117.96 132.142C117.996 132.13 118.027 132.11 118.054 132.084C118.078 132.057 118.096 132.026 118.106 131.992C118.118 131.957 118.122 131.92 118.116 131.883C118.153 131.886 118.189 131.881 118.223 131.869C118.256 131.856 118.285 131.836 118.31 131.81C118.335 131.786 118.354 131.756 118.365 131.723C118.377 131.688 118.38 131.652 118.376 131.616C118.412 131.621 118.45 131.617 118.485 131.605C118.52 131.594 118.552 131.574 118.578 131.548C118.604 131.521 118.624 131.489 118.637 131.454C118.648 131.419 118.652 131.382 118.647 131.345C118.683 131.351 118.719 131.349 118.754 131.339C118.789 131.329 118.821 131.311 118.848 131.286C118.875 131.262 118.896 131.233 118.91 131.199C118.924 131.166 118.93 131.13 118.927 131.093C118.964 131.098 119.001 131.094 119.036 131.083C119.07 131.072 119.102 131.053 119.129 131.028C119.156 131.004 119.177 130.974 119.191 130.941C119.204 130.907 119.21 130.87 119.209 130.834C119.46 130.834 119.701 130.632 119.982 130.783L124.51 133.229C124.502 133.762 124.33 134.281 124.017 134.713C122.801 136.858 121.336 138.851 119.653 140.652C118.649 141.768 118.649 141.757 117.243 141.184C116.058 140.682 114.874 140.179 113.669 139.677C113.247 139.502 113.116 139.265 113.247 138.862C113.559 138.742 113.609 138.4 113.72 138.098L113.724 138.074ZM117.298 166.812C116.856 166.963 116.785 166.622 116.655 166.451C114.405 163.61 112.774 160.33 111.866 156.821C111.601 156.073 111.601 155.257 111.866 154.51C113.563 153.504 115.46 152.992 117.227 152.157C117.391 152.061 117.584 152.03 117.77 152.07C117.956 152.109 118.12 152.216 118.232 152.369C118.291 152.44 118.371 152.49 118.422 152.56C120.566 155.194 122.224 158.189 123.317 161.405C121.397 162.54 119.553 163.596 117.643 164.541L117.361 164.993L119.731 167.335L117.294 164.993L117.298 166.812ZM125.329 171.456C125.329 171.305 125.469 171.256 125.61 171.225C125.888 171.268 126.151 171.382 126.373 171.557C126.373 171.718 126.212 171.758 126.081 171.798C125.801 171.761 125.538 171.642 125.326 171.456H125.329ZM146.408 176.774L144.4 177.186C143.995 177.113 143.577 177.18 143.215 177.376C140.558 177.534 137.892 177.476 135.244 177.202L132.986 176.739C132.887 175.892 132.836 175.039 132.835 174.186L131.771 173.884C131.771 173.714 131.961 173.654 132.102 173.603H132.825C132.912 173.231 132.754 172.809 133.066 172.477C133.015 170.96 133.377 169.462 133.397 167.944C133.388 167.81 133.408 167.675 133.455 167.549C133.503 167.423 133.577 167.308 133.672 167.213C133.767 167.118 133.881 167.045 134.007 166.997C134.132 166.95 134.267 166.93 134.401 166.939C135.405 166.818 136.348 166.677 137.322 166.638C139.771 166.481 142.228 166.562 144.661 166.879C145.152 166.885 145.623 167.072 145.986 167.403C146.107 168.941 146.227 170.589 146.358 172.228C146.629 172.66 146.498 173.152 146.599 173.615V175.525C146.649 175.951 146.583 176.383 146.408 176.774ZM167.56 157.445C166.514 161 164.759 164.307 162.4 167.164C162.069 166.883 162.29 166.511 162.24 166.159C162.19 165.807 162.24 165.635 161.928 165.566C162.049 165.315 162.3 165.103 162.21 164.771L156.367 161.526C156.402 161.005 156.527 160.495 156.738 160.017C157.751 157.519 159.102 155.172 160.753 153.042C161.626 151.906 161.697 151.906 162.982 152.439L167.922 154.531L167.861 155.074C167.948 155.877 167.845 156.689 167.56 157.445Z" fill="black"></path><path d="M109.393 154.459C109.174 152.359 109.083 150.248 109.122 148.136L107.435 147.534C105.931 147.098 104.459 146.561 103.028 145.925C102.025 145.514 101.176 144.798 100.601 143.877C100.027 142.957 99.7554 141.88 99.8252 140.797C99.8759 138.153 99.8252 135.5 99.8252 132.857V131.239C99.8108 130.956 99.8529 130.672 99.9492 130.405C100.046 130.139 100.194 129.894 100.386 129.686C100.578 129.478 100.811 129.31 101.07 129.194C101.329 129.078 101.608 129.014 101.891 129.008C102.646 128.893 103.415 128.893 104.17 129.008C104.421 129.017 104.668 129.077 104.896 129.183C105.124 129.29 105.328 129.442 105.497 129.629C105.665 129.816 105.794 130.035 105.876 130.274C105.959 130.511 105.993 130.764 105.977 131.015V142.055C105.977 142.397 105.836 142.779 106.218 143.111C107.406 143.174 108.596 143.157 109.782 143.06C109.913 142.689 110.044 142.361 110.143 142.055C110.861 139.457 112.072 137.022 113.71 134.883C114.236 134.254 114.632 133.527 114.876 132.744C115.119 131.962 115.204 131.14 115.128 130.325C115.008 128.546 115.128 126.757 115.128 124.958C114.716 124.907 114.455 124.871 114.194 124.847C108.701 124.354 103.18 124.237 97.67 124.498C96.4169 124.55 95.1722 124.728 93.9549 125.03C90.9433 125.804 89.558 127.443 89.5283 130.579V144.176C89.5886 148.193 90.8936 149.955 94.5973 151.354C96.5247 152.077 98.4626 152.781 100.38 153.504C101.485 153.875 102.526 154.418 103.463 155.112C103.997 155.488 104.43 155.99 104.722 156.574C105.014 157.159 105.156 157.808 105.136 158.461V168.954C105.171 169.502 104.997 170.042 104.648 170.466C104.3 170.89 103.803 171.165 103.259 171.236C100.509 171.847 98.8947 170.572 98.8816 167.777V158.084C98.8816 157.647 99.0125 157.179 98.7315 156.818H89.6357V175.306C90.1079 175.393 90.499 175.487 90.9005 175.527C96.6061 176.135 102.354 176.236 108.078 175.829C109.6 175.751 111.098 175.411 112.505 174.824C113.274 174.501 113.944 173.981 114.446 173.315C114.948 172.65 115.266 171.864 115.366 171.036C115.427 170.635 115.467 170.233 115.517 169.841C115.586 169.38 115.559 168.909 115.436 168.459C115.313 168.009 115.098 167.589 114.804 167.227C111.91 163.521 110.044 159.117 109.393 154.459Z" fill="black"></path><path d="M190.189 129.149C190.062 128.3 189.699 127.505 189.141 126.853C188.584 126.2 187.855 125.718 187.037 125.46C185.806 125.039 184.512 124.835 183.212 124.856H165.143C164.532 124.801 163.916 124.839 163.316 124.967C163.779 127.048 164.027 129.171 164.057 131.302C164.021 132.059 164.273 132.802 164.76 133.382C170.191 140.418 171.627 148.46 169.779 157.024C168.855 160.784 167.145 164.306 164.76 167.357C164.319 167.932 164.092 168.642 164.117 169.366C164.117 170.441 164.117 171.517 164.03 172.592C163.942 173.667 163.839 174.775 163.738 175.849H175.544C174.913 173.665 174.575 171.407 174.54 169.134V157.956C174.459 157.562 174.498 157.152 174.651 156.78C175.084 156.668 175.534 156.641 175.976 156.7H184.849C188.021 156.619 189.562 155.182 190.139 152.066C190.31 151.003 190.38 149.926 190.35 148.849V131.35C190.365 130.613 190.311 129.876 190.189 129.149ZM179.478 150.539C179.313 151.031 178.988 151.454 178.555 151.739C178.121 152.024 177.604 152.155 177.088 152.111H174.638V129.772C175.642 129.772 176.646 129.701 177.58 129.772C178.235 129.845 178.838 130.16 179.274 130.654C179.71 131.148 179.946 131.787 179.937 132.446C179.986 133.451 179.937 134.455 179.937 135.401V147.632C180.004 148.623 179.847 149.617 179.478 150.539Z" fill="black"></path><path d="M257 143.583H247.485C247.317 144.017 247.222 144.475 247.204 144.94C246.783 148.783 246.341 152.609 245.929 156.439C245.598 159.455 245.297 162.47 244.985 165.486L244.805 165.556C244.805 165.827 244.892 166.139 244.534 166.29V165.526C243.615 158.196 242.697 150.875 241.78 143.563H232.394V175.927H235.857C235.655 174.499 235.591 173.055 235.667 171.614V152.901H235.867C236.007 153.605 236.158 154.308 236.289 155.002C237.644 161.967 238.989 168.933 240.305 175.999H243.447C244.496 176.067 245.548 176.034 246.59 175.9C246.64 175.236 246.65 174.653 246.721 174.08L249.339 154.53C249.317 153.887 249.401 153.244 249.59 152.629H249.811C249.811 154.995 249.788 157.357 249.741 159.716C249.741 159.786 249.661 159.866 249.62 159.937C249.62 165.264 249.559 170.581 249.831 175.949H256.949C256.84 165.134 257 154.357 257 143.583Z" fill="black"></path><path d="M229.964 146.87C229.964 144.387 228.96 143.282 226.451 142.95C223.558 142.601 220.635 142.575 217.736 142.87C217.202 142.913 216.672 142.997 216.15 143.121C214.072 143.645 213.329 144.579 213.279 146.729V171.768C213.279 174.381 214.283 175.446 216.793 175.785C219.751 176.196 222.748 176.243 225.717 175.927C226.342 175.872 226.96 175.761 227.565 175.595C228.262 175.461 228.889 175.085 229.337 174.533C229.784 173.982 230.022 173.29 230.009 172.579V159.384C229.975 155.213 230.004 151.038 229.964 146.87ZM223.33 171.617C223.343 171.821 223.31 172.025 223.234 172.215C223.158 172.404 223.041 172.574 222.891 172.713C222.741 172.852 222.562 172.955 222.367 173.016C222.172 173.077 221.966 173.094 221.764 173.065C221.551 173.098 221.334 173.085 221.127 173.027C220.92 172.97 220.727 172.869 220.562 172.731C220.397 172.593 220.263 172.421 220.169 172.228C220.075 172.034 220.024 171.823 220.018 171.607C219.948 170.601 219.968 169.599 219.968 168.521V147.423C219.967 147.101 220.055 146.785 220.223 146.509C220.391 146.234 220.632 146.011 220.919 145.864C221.205 145.718 221.527 145.653 221.848 145.678C222.169 145.703 222.477 145.816 222.738 146.006C222.943 146.148 223.105 146.342 223.21 146.568C223.314 146.794 223.356 147.044 223.331 147.292V170.441C223.365 170.832 223.364 171.226 223.328 171.617H223.33Z" fill="black"></path><path d="M211.342 163.255H204.636V171.446C204.636 172.592 204.144 173.055 203.13 173.105C202.908 173.147 202.679 173.141 202.459 173.087C202.239 173.034 202.034 172.934 201.856 172.794C201.678 172.654 201.532 172.477 201.428 172.276C201.324 172.075 201.264 171.855 201.252 171.628C201.216 171.362 201.199 171.093 201.202 170.824V147.704C201.202 146.227 201.744 145.765 203.21 145.905C204.213 145.992 204.625 146.438 204.645 147.624V154.76C204.645 155.092 204.504 155.475 204.896 155.826H208.048C209.134 155.903 210.225 155.856 211.301 155.685C211.301 152.499 211.388 149.362 211.171 146.227C211.177 145.52 210.931 144.835 210.476 144.294C210.021 143.754 209.388 143.395 208.691 143.282C208.174 143.139 207.647 143.042 207.114 142.99C205.065 142.761 202.999 142.707 200.941 142.829C199.638 142.831 198.34 142.99 197.076 143.302C196.416 143.43 195.816 143.77 195.369 144.271C194.921 144.772 194.65 145.406 194.596 146.076C194.596 146.609 194.496 147.151 194.496 147.684L194.583 171.376V172.321C194.744 174.472 195.517 175.446 197.595 175.789C201.096 176.356 204.666 176.356 208.167 175.789C210.175 175.467 210.908 174.582 211.178 172.572C211.232 172.125 211.256 171.675 211.249 171.225V164.763L211.342 163.255Z" fill="black"></path><path d="M184.226 169.677C183.674 169.677 183.433 169.968 183.441 170.521V175.673C185.478 175.977 187.548 175.977 189.585 175.673V169.901C189.421 169.8 189.241 169.729 189.053 169.69C187.448 169.677 185.832 169.677 184.226 169.677Z" fill="black"></path><path d="M125.533 144.2H125.658C126.871 144.2 128.085 144.2 129.298 144.2C129.496 144.2 129.693 144.215 129.888 144.247C130.016 144.268 130.14 144.304 130.259 144.355C130.387 144.406 130.502 144.487 130.593 144.591C130.684 144.694 130.749 144.818 130.783 144.952C130.812 145.059 130.829 145.168 130.834 145.278C130.871 145.951 130.845 146.624 130.85 147.296C130.855 147.82 130.857 148.344 130.85 148.868C130.855 149.111 130.833 149.354 130.787 149.593C130.765 149.697 130.731 149.799 130.688 149.896C130.637 150.009 130.561 150.11 130.466 150.19C130.371 150.27 130.259 150.327 130.139 150.358C130.021 150.391 129.9 150.408 129.778 150.409C129.169 150.409 128.561 150.409 127.953 150.409C127.911 150.409 127.866 150.409 127.828 150.409C127.791 150.409 127.759 150.432 127.755 150.48C127.75 150.528 127.755 150.563 127.755 150.605C127.75 151.36 127.747 152.115 127.747 152.872C127.749 153.218 127.791 153.563 127.871 153.899C127.886 153.962 127.903 154.025 127.916 154.088C127.929 154.151 127.91 154.171 127.847 154.175C127.82 154.175 127.794 154.175 127.767 154.175C127.105 154.175 126.444 154.175 125.782 154.175C125.6 154.175 125.627 154.142 125.648 154.011C125.695 153.714 125.718 153.414 125.717 153.114C125.717 150.562 125.717 148.011 125.717 145.46C125.714 145.232 125.695 145.004 125.66 144.779C125.638 144.633 125.611 144.487 125.586 144.342C125.579 144.305 125.575 144.265 125.533 144.248V144.2ZM127.747 147.344V149.353C127.747 149.395 127.747 149.44 127.747 149.479C127.748 149.494 127.754 149.509 127.765 149.52C127.775 149.531 127.79 149.538 127.805 149.539C127.817 149.54 127.828 149.54 127.839 149.539C127.991 149.539 128.143 149.539 128.295 149.539C128.349 149.537 128.402 149.524 128.452 149.501C128.501 149.478 128.544 149.446 128.581 149.405C128.658 149.321 128.715 149.22 128.747 149.11C128.785 148.986 128.802 148.857 128.798 148.728C128.798 147.738 128.798 146.748 128.798 145.758C128.798 145.721 128.798 145.682 128.798 145.645C128.79 145.513 128.732 145.388 128.636 145.297C128.54 145.206 128.414 145.154 128.281 145.152C128.148 145.157 128.019 145.152 127.882 145.152C127.863 145.151 127.844 145.151 127.825 145.152C127.776 145.158 127.756 145.176 127.751 145.223C127.747 145.27 127.751 145.31 127.751 145.349L127.747 147.344Z" fill="black"></path><path d="M132.197 137.583L132.18 137.595C132.187 137.616 132.205 137.62 132.223 137.625C132.279 137.636 132.334 137.651 132.388 137.668C132.453 137.688 132.51 137.725 132.553 137.776C132.597 137.827 132.625 137.89 132.634 137.957C132.646 138.032 132.652 138.108 132.651 138.184C132.651 138.766 132.651 139.348 132.651 139.93C132.651 140.311 132.651 140.691 132.651 141.072C132.652 141.151 132.645 141.231 132.632 141.31C132.624 141.373 132.598 141.432 132.558 141.481C132.519 141.53 132.466 141.567 132.407 141.588C132.332 141.617 132.254 141.636 132.175 141.645C132.061 141.662 131.947 141.67 131.833 141.67C131.659 141.67 131.484 141.67 131.309 141.67C131.199 141.668 131.09 141.654 130.982 141.63L130.959 141.625C130.731 141.569 130.639 141.465 130.617 141.231C130.612 141.173 130.609 141.116 130.609 141.061C130.609 140.099 130.609 139.136 130.609 138.174C130.61 138.109 130.614 138.045 130.622 137.981C130.628 137.912 130.654 137.847 130.696 137.793C130.739 137.739 130.796 137.699 130.862 137.677C130.918 137.655 130.977 137.64 131.036 137.63C131.059 137.63 131.082 137.63 131.094 137.6L131.078 137.587L132.197 137.583ZM131.838 139.637C131.838 139.171 131.838 138.703 131.838 138.234C131.84 138.189 131.837 138.143 131.831 138.098C131.828 138.067 131.814 138.039 131.793 138.016C131.772 137.994 131.744 137.979 131.714 137.974C131.665 137.963 131.615 137.961 131.566 137.969C131.529 137.97 131.495 137.985 131.469 138.011C131.442 138.037 131.427 138.071 131.425 138.108C131.422 138.149 131.422 138.191 131.425 138.233V140.996C131.425 141.03 131.425 141.064 131.425 141.098C131.422 141.128 131.426 141.158 131.437 141.185C131.448 141.213 131.465 141.238 131.487 141.258C131.51 141.278 131.536 141.293 131.565 141.301C131.594 141.309 131.624 141.31 131.653 141.305H131.665C131.687 141.307 131.709 141.304 131.731 141.297C131.752 141.29 131.771 141.279 131.788 141.264C131.804 141.249 131.817 141.23 131.826 141.21C131.835 141.189 131.84 141.167 131.839 141.145C131.844 141.1 131.845 141.054 131.845 141.009L131.838 139.637Z" fill="#EA1C24"></path><path d="M152.029 137.583L152.01 137.599C152.077 137.648 152.16 137.612 152.233 137.642C152.258 137.663 152.251 137.695 152.251 137.724V138.947C152.255 138.982 152.252 139.017 152.244 139.052C152.236 139.059 152.227 139.065 152.217 139.069C152.207 139.072 152.196 139.074 152.186 139.073C151.973 139.073 151.761 139.073 151.555 139.073C151.544 139.058 151.536 139.04 151.531 139.022C151.527 139.004 151.527 138.985 151.531 138.966C151.531 138.711 151.531 138.457 151.531 138.202C151.532 138.164 151.53 138.126 151.525 138.088C151.522 138.06 151.51 138.033 151.49 138.012C151.471 137.991 151.445 137.977 151.417 137.971C151.335 137.951 151.249 137.951 151.168 137.971C151.136 137.978 151.107 137.994 151.085 138.019C151.063 138.043 151.051 138.074 151.048 138.107C151.047 138.129 151.047 138.152 151.048 138.175C151.048 138.425 151.048 138.677 151.048 138.928C151.045 138.996 151.062 139.065 151.096 139.124C151.13 139.184 151.18 139.234 151.24 139.266C151.309 139.307 151.382 139.341 151.458 139.365C151.569 139.403 151.682 139.438 151.792 139.48C151.867 139.507 151.939 139.54 152.012 139.574C152.06 139.596 152.104 139.626 152.144 139.661C152.217 139.723 152.264 139.811 152.275 139.907C152.278 139.936 152.279 139.965 152.279 139.994C152.279 140.366 152.279 140.739 152.279 141.111C152.278 141.168 152.274 141.225 152.264 141.281C152.255 141.345 152.229 141.406 152.189 141.458C152.149 141.509 152.097 141.549 152.036 141.573C151.96 141.606 151.879 141.628 151.795 141.638C151.69 141.653 151.583 141.662 151.477 141.664C151.15 141.673 150.823 141.665 150.497 141.64C150.415 141.632 150.332 141.621 150.249 141.611C150.244 141.595 150.24 141.578 150.237 141.561V140.173C150.243 140.163 150.252 140.155 150.262 140.15C150.272 140.145 150.284 140.142 150.295 140.143H150.91C150.924 140.145 150.938 140.147 150.951 140.151C150.967 140.187 150.972 140.227 150.966 140.266C150.966 140.513 150.966 140.761 150.966 141.008C150.964 141.053 150.969 141.099 150.98 141.143C150.989 141.176 151.006 141.206 151.029 141.23C151.082 141.271 151.145 141.295 151.212 141.299C151.278 141.303 151.344 141.287 151.401 141.252C151.434 141.226 151.455 141.188 151.461 141.146C151.466 141.112 151.468 141.078 151.467 141.044C151.467 140.796 151.467 140.549 151.467 140.302C151.471 140.238 151.456 140.174 151.425 140.117C151.395 140.06 151.349 140.013 151.293 139.981C151.228 139.941 151.158 139.908 151.087 139.883C150.948 139.831 150.809 139.78 150.671 139.727C150.618 139.707 150.565 139.685 150.514 139.659C150.446 139.628 150.387 139.581 150.343 139.521C150.298 139.461 150.269 139.391 150.259 139.317C150.246 139.25 150.239 139.182 150.238 139.114C150.238 138.779 150.238 138.444 150.238 138.11C150.239 138.057 150.245 138.004 150.255 137.951C150.265 137.893 150.29 137.839 150.326 137.793C150.363 137.748 150.411 137.712 150.465 137.689C150.531 137.66 150.601 137.639 150.672 137.629C150.694 137.629 150.718 137.624 150.729 137.598L150.712 137.585L152.029 137.583Z" fill="#EA1C24"></path><path d="M142.723 137.583L142.701 137.59C142.701 137.599 142.706 137.615 142.711 137.616C142.756 137.626 142.799 137.633 142.839 137.639C142.847 137.645 142.853 137.654 142.857 137.664C142.861 137.673 142.862 137.684 142.861 137.695V139.018C142.86 139.029 142.858 139.039 142.855 139.049C142.839 139.073 142.814 139.07 142.793 139.07H142.21C142.196 139.071 142.181 139.071 142.167 139.07C142.136 139.041 142.146 139.004 142.146 138.972C142.146 138.722 142.146 138.47 142.146 138.219C142.148 138.174 142.144 138.128 142.134 138.083C142.13 138.057 142.118 138.032 142.099 138.013C142.081 137.993 142.057 137.98 142.031 137.974C141.945 137.951 141.854 137.951 141.769 137.974C141.742 137.98 141.718 137.993 141.7 138.013C141.681 138.032 141.668 138.057 141.663 138.083C141.655 138.116 141.651 138.15 141.651 138.184C141.651 138.432 141.651 138.679 141.651 138.926C141.649 138.995 141.666 139.063 141.7 139.123C141.733 139.183 141.783 139.233 141.843 139.266C141.912 139.307 141.985 139.341 142.061 139.365C142.176 139.404 142.292 139.441 142.41 139.483C142.485 139.511 142.558 139.544 142.63 139.578C142.685 139.605 142.735 139.641 142.778 139.685C142.844 139.749 142.883 139.836 142.886 139.928C142.886 139.948 142.886 139.967 142.886 139.986V141.127C142.887 141.191 142.881 141.256 142.867 141.319C142.854 141.375 142.828 141.427 142.792 141.471C142.755 141.515 142.709 141.551 142.656 141.574C142.577 141.61 142.492 141.634 142.405 141.644C142.3 141.659 142.194 141.668 142.087 141.671C141.76 141.679 141.433 141.671 141.106 141.646C141.027 141.638 140.948 141.629 140.871 141.62C140.835 141.582 140.848 141.533 140.848 141.497C140.848 141.089 140.848 140.682 140.848 140.274C140.844 140.237 140.846 140.199 140.856 140.162C140.86 140.156 140.867 140.151 140.874 140.148C140.881 140.145 140.889 140.143 140.897 140.143H141.536C141.543 140.145 141.551 140.147 141.558 140.15C141.587 140.182 141.577 140.221 141.577 140.258C141.577 140.502 141.577 140.745 141.577 140.988C141.574 141.026 141.574 141.064 141.577 141.102C141.578 141.146 141.595 141.188 141.623 141.222C141.652 141.256 141.691 141.279 141.735 141.287C141.804 141.308 141.879 141.308 141.948 141.287C141.976 141.28 142.001 141.265 142.021 141.244C142.04 141.223 142.054 141.197 142.059 141.168C142.068 141.131 142.073 141.094 142.073 141.056C142.073 140.804 142.073 140.554 142.073 140.302C142.075 140.239 142.06 140.177 142.029 140.122C141.998 140.067 141.953 140.021 141.899 139.99C141.831 139.948 141.758 139.913 141.683 139.886C141.548 139.836 141.412 139.786 141.277 139.734C141.218 139.711 141.159 139.686 141.103 139.657C141.045 139.628 140.994 139.586 140.954 139.535C140.914 139.484 140.886 139.424 140.872 139.361C140.855 139.295 140.846 139.227 140.846 139.158C140.846 138.8 140.846 138.443 140.846 138.085C140.846 137.833 140.95 137.713 141.195 137.648C141.244 137.644 141.292 137.632 141.337 137.612C141.353 137.6 141.337 137.595 141.33 137.588L142.723 137.583Z" fill="#EA1C24"></path><path d="M131.854 160.721C131.867 160.683 131.839 160.657 131.823 160.628C131.718 160.425 131.612 160.223 131.505 160.022L130.741 158.569C130.721 158.532 130.703 158.494 130.688 158.464V158.445C130.687 158.441 130.687 158.437 130.688 158.433C130.805 158.207 130.921 157.981 131.037 157.756L131.84 156.233C131.844 156.226 131.848 156.22 131.854 156.215C131.857 156.214 131.86 156.214 131.863 156.215C131.869 156.215 131.879 156.221 131.882 156.226L133.055 158.445C133.041 158.489 133.021 158.531 132.996 158.57L131.937 160.595C131.919 160.629 131.903 160.663 131.887 160.697C131.88 160.711 131.891 160.716 131.901 160.721H131.854Z" fill="#EA1C24"></path><path d="M154.06 144.862C154.025 144.871 154.006 144.901 153.98 144.923C153.937 144.96 153.886 144.985 153.831 144.997C153.776 145.009 153.719 145.007 153.666 144.991C153.612 144.975 153.563 144.945 153.523 144.905C153.484 144.865 153.455 144.816 153.439 144.762C153.421 144.696 153.423 144.626 153.445 144.561C153.467 144.496 153.508 144.44 153.563 144.399C153.62 144.359 153.687 144.338 153.755 144.338C153.824 144.338 153.891 144.359 153.947 144.399C153.984 144.425 154.01 144.466 154.06 144.471V144.862ZM154.016 144.676C154.018 144.64 154.013 144.604 154 144.57C153.988 144.536 153.969 144.505 153.945 144.479C153.92 144.453 153.891 144.431 153.858 144.416C153.826 144.401 153.79 144.393 153.755 144.392C153.684 144.397 153.617 144.428 153.569 144.48C153.52 144.532 153.493 144.6 153.493 144.671C153.494 144.742 153.522 144.81 153.57 144.862C153.618 144.914 153.684 144.947 153.755 144.953C153.79 144.953 153.826 144.946 153.859 144.932C153.891 144.918 153.921 144.897 153.946 144.871C153.97 144.845 153.989 144.814 154.001 144.781C154.013 144.747 154.019 144.711 154.016 144.676Z" fill="black"></path><path d="M131.513 149.141C131.513 147.898 131.513 146.654 131.513 145.411C131.511 145.286 131.519 145.16 131.538 145.036C131.56 144.87 131.622 144.711 131.717 144.573C131.79 144.475 131.884 144.395 131.991 144.337C132.159 144.246 132.341 144.185 132.53 144.157C132.778 144.118 133.027 144.093 133.277 144.081C133.714 144.052 134.144 144.067 134.577 144.066C134.797 144.066 135.013 144.084 135.236 144.103C135.433 144.117 135.629 144.149 135.821 144.198C135.909 144.222 135.995 144.252 136.078 144.29C136.218 144.351 136.34 144.448 136.431 144.571C136.523 144.693 136.582 144.837 136.602 144.988C136.618 145.076 136.622 145.163 136.63 145.25C136.662 145.611 136.645 145.972 136.646 146.333C136.646 148.45 136.646 150.567 136.646 152.685C136.648 152.906 136.634 153.126 136.606 153.345C136.594 153.42 136.576 153.494 136.552 153.566C136.49 153.765 136.352 153.93 136.167 154.027C136.027 154.103 135.875 154.158 135.718 154.188C135.539 154.225 135.358 154.251 135.177 154.268C134.627 154.318 134.076 154.31 133.525 154.307C133.344 154.28 133.161 154.292 132.98 154.271C132.843 154.255 132.708 154.241 132.573 154.219C132.423 154.195 132.277 154.155 132.136 154.099C131.95 154.035 131.791 153.91 131.683 153.745C131.623 153.644 131.581 153.533 131.56 153.416C131.53 153.273 131.514 153.126 131.514 152.98C131.514 152.671 131.514 152.364 131.514 152.056C131.513 151.082 131.512 150.111 131.513 149.141ZM133.544 149.141C133.544 150.33 133.544 151.52 133.544 152.71C133.544 152.808 133.552 152.907 133.57 153.004C133.582 153.104 133.629 153.196 133.703 153.263C133.777 153.331 133.873 153.37 133.973 153.373C134.056 153.378 134.14 153.378 134.223 153.373C134.279 153.37 134.333 153.355 134.381 153.329C134.43 153.303 134.473 153.266 134.505 153.222C134.558 153.155 134.589 153.074 134.593 152.989C134.601 152.845 134.617 152.702 134.617 152.557C134.617 150.295 134.617 148.034 134.617 145.772C134.617 145.643 134.61 145.515 134.6 145.386C134.595 145.289 134.556 145.198 134.489 145.129C134.423 145.059 134.334 145.015 134.238 145.006C134.129 144.99 134.018 144.99 133.908 145.006C133.822 145.011 133.74 145.047 133.677 145.107C133.614 145.167 133.574 145.247 133.564 145.333C133.552 145.412 133.546 145.492 133.548 145.572L133.544 149.141Z" fill="black"></path><path d="M148.135 154.158C148.122 154.118 148.122 154.076 148.135 154.037C148.154 153.887 148.175 153.736 148.194 153.585C148.198 153.547 148.2 153.509 148.199 153.471C148.199 153.316 148.199 153.159 148.199 153.003V145.508C148.204 145.2 148.178 144.892 148.119 144.589C148.103 144.502 148.088 144.409 148.073 144.319C148.07 144.3 148.068 144.282 148.067 144.263C148.067 144.249 148.071 144.236 148.079 144.225C148.088 144.215 148.1 144.207 148.113 144.205C148.127 144.201 148.142 144.2 148.157 144.2C148.18 144.2 148.204 144.2 148.226 144.2C149.427 144.2 150.629 144.2 151.831 144.2C152.022 144.199 152.212 144.216 152.399 144.25C152.537 144.275 152.672 144.318 152.8 144.378C152.998 144.471 153.152 144.638 153.23 144.843C153.256 144.907 153.275 144.972 153.288 145.04C153.315 145.178 153.33 145.318 153.332 145.459C153.332 146.205 153.332 146.95 153.332 147.695C153.331 147.806 153.32 147.915 153.3 148.024C153.275 148.18 153.212 148.329 153.118 148.456C153.023 148.584 152.899 148.687 152.757 148.756C152.582 148.842 152.4 148.909 152.211 148.956C152.168 148.962 152.126 148.977 152.088 149C152.123 149.019 152.161 149.031 152.201 149.034C152.308 149.06 152.416 149.082 152.523 149.112C152.658 149.15 152.788 149.207 152.909 149.279C153.016 149.345 153.108 149.434 153.177 149.54C153.246 149.646 153.291 149.766 153.308 149.891C153.325 149.992 153.333 150.095 153.332 150.197C153.332 151.175 153.332 152.153 153.332 153.13C153.332 153.423 153.38 153.714 153.474 153.992C153.487 154.028 153.499 154.063 153.51 154.1C153.514 154.109 153.516 154.118 153.516 154.127C153.516 154.136 153.514 154.146 153.51 154.154C153.504 154.162 153.496 154.168 153.487 154.172C153.478 154.175 153.468 154.177 153.459 154.176C153.425 154.176 153.39 154.176 153.356 154.176H151.496C151.454 154.177 151.412 154.175 151.371 154.172C151.362 154.172 151.353 154.17 151.345 154.167C151.337 154.164 151.33 154.159 151.324 154.153C151.318 154.147 151.313 154.139 151.31 154.131C151.307 154.123 151.305 154.115 151.305 154.106C151.303 154.064 151.303 154.022 151.305 153.98C151.305 152.779 151.305 151.577 151.305 150.375C151.306 150.269 151.297 150.162 151.278 150.058C151.256 149.91 151.186 149.773 151.08 149.668C151.025 149.615 150.959 149.575 150.887 149.55C150.808 149.522 150.725 149.505 150.642 149.5C150.543 149.495 150.444 149.496 150.345 149.5C150.246 149.505 150.241 149.524 150.236 149.612C150.236 149.635 150.236 149.658 150.236 149.68C150.236 150.821 150.236 151.962 150.236 153.103C150.232 153.423 150.282 153.742 150.383 154.046C150.383 154.046 150.383 154.053 150.383 154.056C150.415 154.159 150.402 154.175 150.292 154.178H148.284C148.233 154.183 148.182 154.176 148.135 154.158ZM150.23 146.869V148.374C150.23 148.404 150.23 148.434 150.23 148.461C150.23 148.559 150.248 148.575 150.341 148.578H150.364C150.459 148.578 150.554 148.578 150.65 148.578C150.688 148.578 150.726 148.575 150.763 148.568C150.872 148.548 150.974 148.498 151.056 148.424C151.139 148.35 151.2 148.255 151.232 148.149C151.276 148.027 151.298 147.898 151.297 147.769C151.297 147.1 151.297 146.431 151.297 145.76C151.297 145.692 151.288 145.624 151.271 145.558C151.199 145.29 151 145.144 150.763 145.151C150.634 145.155 150.501 145.151 150.375 145.151C150.352 145.151 150.329 145.151 150.306 145.151C150.254 145.157 150.235 145.176 150.23 145.232C150.23 145.269 150.23 145.307 150.23 145.345C150.23 145.856 150.23 146.364 150.23 146.869Z" fill="black"></path><path d="M142.947 144.22C142.949 144.24 142.948 144.26 142.942 144.279C142.936 144.299 142.927 144.317 142.914 144.332C142.819 144.515 142.724 144.697 142.627 144.877C142.547 145.028 142.464 145.178 142.384 145.329C142.228 145.621 142.075 145.915 141.918 146.202C141.713 146.587 141.506 146.972 141.299 147.358C141.231 147.485 141.165 147.614 141.094 147.74C141.076 147.771 141.066 147.806 141.064 147.842C141.062 147.877 141.068 147.913 141.082 147.946C141.294 148.525 141.505 149.104 141.714 149.683L142.286 151.253C142.489 151.814 142.693 152.375 142.897 152.936L143.088 153.46C143.152 153.639 143.232 153.812 143.327 153.977C143.358 154.026 143.384 154.079 143.404 154.133C143.402 154.144 143.396 154.154 143.387 154.16C143.378 154.167 143.367 154.17 143.356 154.17C143.326 154.17 143.296 154.17 143.269 154.17H141.197C141.163 154.17 141.129 154.169 141.095 154.166C141.08 154.165 141.065 154.16 141.053 154.15C141.041 154.139 141.033 154.126 141.031 154.111C141.022 154.069 141.014 154.028 141.008 153.987C140.976 153.742 140.922 153.5 140.847 153.264C140.612 152.561 140.381 151.857 140.148 151.152C140.01 150.733 139.873 150.313 139.736 149.894C139.691 149.753 139.649 149.611 139.601 149.471C139.591 149.443 139.587 149.411 139.555 149.402C139.546 149.404 139.539 149.408 139.534 149.415C139.529 149.422 139.526 149.43 139.526 149.438C139.526 149.476 139.526 149.514 139.526 149.552C139.526 150.708 139.526 151.864 139.526 153.021C139.526 153.353 139.563 153.684 139.637 154.007C139.644 154.041 139.65 154.074 139.654 154.108C139.655 154.121 139.651 154.135 139.643 154.146C139.634 154.157 139.622 154.164 139.609 154.166C139.571 154.17 139.533 154.173 139.495 154.173H137.567C137.529 154.173 137.491 154.17 137.453 154.166C137.448 154.165 137.442 154.163 137.437 154.161C137.432 154.158 137.427 154.154 137.424 154.15C137.42 154.145 137.417 154.14 137.416 154.135C137.414 154.129 137.414 154.123 137.414 154.118C137.416 154.083 137.42 154.049 137.426 154.015C137.472 153.734 137.495 153.449 137.494 153.164C137.494 150.528 137.494 147.893 137.494 145.257C137.488 144.965 137.451 144.673 137.384 144.388C137.376 144.351 137.365 144.314 137.361 144.277C137.357 144.239 137.376 144.206 137.424 144.2C137.45 144.198 137.477 144.198 137.503 144.2H139.493C139.632 144.2 139.637 144.205 139.617 144.34C139.596 144.476 139.573 144.602 139.56 144.736C139.541 144.875 139.53 145.015 139.527 145.156C139.527 146.327 139.527 147.499 139.527 148.67C139.52 148.713 139.524 148.757 139.54 148.798C139.544 148.8 139.548 148.801 139.552 148.801C139.556 148.802 139.56 148.801 139.564 148.799C139.568 148.798 139.572 148.795 139.575 148.792C139.578 148.789 139.58 148.786 139.582 148.782C139.596 148.756 139.61 148.728 139.624 148.701C139.883 148.177 140.141 147.652 140.4 147.124C140.52 146.879 140.64 146.632 140.758 146.385C140.945 145.998 141.13 145.611 141.316 145.223C141.433 144.98 141.547 144.735 141.66 144.49C141.689 144.424 141.714 144.356 141.736 144.287C141.741 144.261 141.756 144.237 141.778 144.221C141.799 144.205 141.826 144.197 141.853 144.2C141.871 144.2 141.891 144.2 141.91 144.2H142.823C142.865 144.192 142.909 144.199 142.947 144.22Z" fill="black"></path><path d="M147.467 145.086C147.434 145.103 147.405 145.086 147.379 145.08C147.299 145.056 147.215 145.044 147.132 145.045H146.022C145.993 145.045 145.964 145.046 145.935 145.049C145.919 145.05 145.905 145.056 145.894 145.067C145.883 145.078 145.877 145.093 145.876 145.109C145.873 145.138 145.871 145.167 145.872 145.196C145.872 146.219 145.872 147.243 145.872 148.266C145.872 148.407 145.88 148.415 146.019 148.415C146.206 148.415 146.393 148.419 146.579 148.415C146.755 148.409 146.93 148.391 147.103 148.361H147.125C147.259 148.336 147.264 148.34 147.265 148.471V149.212C147.266 149.235 147.266 149.258 147.265 149.281C147.259 149.341 147.235 149.359 147.173 149.35C147.139 149.345 147.106 149.338 147.072 149.331C146.868 149.285 146.659 149.264 146.45 149.267C146.317 149.267 146.188 149.267 146.051 149.267C146.024 149.267 145.998 149.267 145.971 149.267C145.901 149.272 145.883 149.289 145.878 149.355C145.878 149.385 145.878 149.416 145.878 149.446C145.878 150.64 145.878 151.833 145.878 153.027C145.878 153.061 145.878 153.096 145.878 153.129C145.883 153.183 145.902 153.2 145.958 153.206C145.973 153.207 145.989 153.207 146.004 153.206C146.167 153.211 146.331 153.206 146.494 153.191C146.54 153.186 146.585 153.184 146.63 153.186C146.908 153.186 147.185 153.166 147.461 153.143C147.507 153.14 147.552 153.14 147.598 153.143C147.611 153.144 147.624 153.149 147.634 153.159C147.644 153.168 147.65 153.181 147.651 153.194C147.655 153.221 147.658 153.247 147.658 153.274V154.027C147.658 154.042 147.658 154.057 147.658 154.073C147.652 154.141 147.634 154.16 147.571 154.165C147.54 154.165 147.51 154.165 147.483 154.165H143.919C143.877 154.165 143.836 154.163 143.794 154.158C143.783 154.156 143.772 154.15 143.765 154.141C143.758 154.132 143.754 154.12 143.755 154.109C143.755 154.09 143.757 154.071 143.761 154.052C143.797 153.862 143.81 153.668 143.831 153.475C143.831 153.437 143.831 153.399 143.831 153.361C143.831 153.216 143.831 153.072 143.831 152.925C143.831 150.502 143.831 148.08 143.831 145.657C143.832 145.236 143.795 144.816 143.719 144.401C143.713 144.371 143.706 144.341 143.703 144.314C143.695 144.235 143.716 144.208 143.79 144.204C143.832 144.204 143.877 144.204 143.916 144.204H147.362C147.381 144.203 147.4 144.203 147.419 144.204C147.434 144.205 147.449 144.211 147.46 144.222C147.471 144.233 147.478 144.247 147.479 144.262C147.482 144.291 147.483 144.321 147.483 144.35C147.483 144.556 147.483 144.761 147.483 144.966C147.487 145.013 147.496 145.052 147.467 145.086Z" fill="black"></path><path d="M139.683 155.565H125.923C125.87 155.565 125.817 155.565 125.763 155.565C125.754 155.564 125.745 155.562 125.737 155.558C125.729 155.555 125.722 155.549 125.716 155.542C125.71 155.535 125.705 155.527 125.703 155.519C125.7 155.51 125.699 155.501 125.701 155.492C125.699 155.469 125.699 155.447 125.701 155.424V155.082C125.701 155.055 125.703 155.028 125.707 155.002C125.708 154.989 125.714 154.976 125.724 154.966C125.733 154.957 125.746 154.951 125.759 154.949C125.777 154.949 125.797 154.944 125.816 154.944H153.431C153.489 154.944 153.546 154.944 153.606 154.944C153.615 154.944 153.623 154.945 153.631 154.949C153.639 154.952 153.646 154.957 153.652 154.963C153.659 154.969 153.663 154.977 153.667 154.985C153.67 154.993 153.671 155.001 153.671 155.01C153.673 155.029 153.673 155.048 153.671 155.067V155.433C153.671 155.455 153.67 155.478 153.666 155.5C153.665 155.513 153.658 155.526 153.649 155.536C153.639 155.545 153.626 155.551 153.613 155.552C153.591 155.556 153.568 155.558 153.546 155.558H139.683V155.565Z" fill="black"></path><path d="M128.114 140.734C128.141 140.404 128.168 140.075 128.196 139.745C128.214 139.518 128.232 139.29 128.25 139.063C128.276 138.734 128.303 138.404 128.331 138.074C128.347 137.95 128.347 137.824 128.331 137.699C128.33 137.685 128.33 137.67 128.331 137.656C128.638 137.64 128.946 137.64 129.253 137.656C129.269 137.8 129.271 137.948 129.293 138.093C129.315 138.238 129.33 138.387 129.347 138.535C129.365 138.682 129.383 138.829 129.401 138.971C129.42 139.114 129.438 139.258 129.456 139.401C129.475 139.544 129.49 139.695 129.509 139.843C129.527 139.99 129.543 140.137 129.564 140.284C129.575 140.431 129.6 140.578 129.638 140.721C129.645 140.658 129.654 140.596 129.66 140.533C129.686 140.233 129.71 139.935 129.737 139.635C129.763 139.335 129.791 139.037 129.818 138.738C129.836 138.529 129.854 138.322 129.872 138.113C129.892 137.962 129.896 137.809 129.885 137.657C129.942 137.641 130.001 137.636 130.06 137.642C130.113 137.642 130.166 137.642 130.219 137.642C130.273 137.637 130.327 137.64 130.38 137.649C130.386 137.656 130.389 137.665 130.391 137.674C130.392 137.683 130.391 137.692 130.388 137.701C130.346 137.895 130.33 138.092 130.3 138.288C130.264 138.571 130.23 138.853 130.195 139.136L130.095 139.94C130.059 140.226 130.024 140.513 129.989 140.8C129.963 141.01 129.937 141.222 129.911 141.433C129.904 141.49 129.895 141.546 129.888 141.595C129.882 141.603 129.873 141.61 129.863 141.614C129.853 141.618 129.842 141.62 129.832 141.618H129.017C129.001 141.617 128.985 141.615 128.969 141.612C128.954 141.569 128.945 141.525 128.941 141.479L128.714 139.704C128.695 139.556 128.678 139.41 128.659 139.262C128.657 139.221 128.644 139.181 128.621 139.146C128.597 139.418 128.572 139.691 128.549 139.963C128.524 140.239 128.502 140.516 128.475 140.792C128.448 141.068 128.432 141.336 128.398 141.609C128.382 141.613 128.365 141.617 128.348 141.618H127.466C127.454 141.615 127.442 141.611 127.43 141.605C127.421 141.417 127.385 141.23 127.359 141.042C127.31 140.693 127.26 140.343 127.209 139.994C127.16 139.655 127.112 139.316 127.064 138.977C127.016 138.638 126.969 138.301 126.922 137.962C126.911 137.887 126.89 137.813 126.873 137.74C126.862 137.716 126.858 137.689 126.861 137.663C126.873 137.642 126.893 137.644 126.912 137.644H127.684C127.695 137.645 127.705 137.646 127.715 137.649C127.723 137.655 127.729 137.663 127.733 137.672C127.736 137.681 127.738 137.691 127.736 137.701C127.744 137.94 127.766 138.179 127.804 138.416C127.835 138.699 127.872 138.982 127.906 139.265C127.94 139.548 127.976 139.845 128.012 140.138L128.085 140.734C128.081 140.75 128.08 140.767 128.083 140.783C128.086 140.8 128.092 140.816 128.102 140.83C128.118 140.8 128.122 140.766 128.114 140.734Z" fill="#EA1C24"></path><path d="M146.953 160.45H145.504C145.463 160.45 145.421 160.448 145.379 160.444C145.366 160.444 145.353 160.438 145.344 160.428C145.335 160.418 145.33 160.405 145.331 160.391C145.331 160.378 145.336 160.364 145.345 160.355C145.354 160.345 145.367 160.339 145.38 160.338C145.422 160.335 145.464 160.335 145.505 160.338C145.669 160.34 145.832 160.323 145.992 160.288C146.187 160.251 146.372 160.172 146.533 160.056C146.64 159.976 146.726 159.871 146.784 159.75C146.856 159.602 146.893 159.44 146.894 159.276C146.896 159.253 146.896 159.23 146.894 159.208C146.892 159.181 146.88 159.155 146.861 159.136C146.841 159.118 146.815 159.107 146.788 159.106C146.747 159.099 146.704 159.105 146.665 159.121C146.627 159.138 146.594 159.166 146.57 159.201C146.555 159.223 146.542 159.246 146.53 159.27C146.451 159.415 146.332 159.533 146.187 159.611C146.041 159.689 145.876 159.722 145.712 159.706C145.507 159.691 145.314 159.602 145.169 159.457C145.024 159.311 144.936 159.118 144.921 158.913C144.906 158.707 144.966 158.504 145.089 158.339C145.212 158.174 145.39 158.059 145.591 158.014C145.751 157.978 145.918 157.989 146.073 158.045C146.119 158.064 146.165 158.08 146.213 158.093C146.287 158.111 146.332 158.068 146.323 157.993C146.314 157.94 146.292 157.89 146.26 157.847C146.221 157.791 146.189 157.73 146.164 157.666C146.101 157.516 146.085 157.35 146.117 157.19C146.149 157.031 146.228 156.884 146.344 156.77C146.43 156.672 146.539 156.598 146.661 156.554C146.788 156.506 146.925 156.489 147.059 156.504C147.194 156.52 147.324 156.566 147.437 156.641C147.564 156.72 147.667 156.832 147.736 156.965C147.805 157.097 147.838 157.246 147.831 157.395C147.828 157.54 147.784 157.682 147.706 157.804C147.687 157.833 147.668 157.862 147.651 157.892C147.628 157.927 147.614 157.968 147.609 158.01C147.608 158.021 147.609 158.032 147.613 158.042C147.616 158.053 147.622 158.063 147.629 158.071C147.637 158.079 147.646 158.086 147.656 158.09C147.666 158.095 147.677 158.097 147.688 158.097C147.73 158.096 147.772 158.086 147.81 158.067C147.876 158.04 147.946 158.019 148.017 158.005C148.201 157.969 148.393 158 148.557 158.093C148.686 158.159 148.796 158.258 148.876 158.38C148.956 158.501 149.004 158.642 149.014 158.787C149.025 158.901 149.01 159.016 148.97 159.123C148.924 159.259 148.844 159.382 148.738 159.479C148.632 159.577 148.503 159.646 148.364 159.681C148.224 159.716 148.078 159.715 147.939 159.678C147.8 159.642 147.672 159.571 147.567 159.472C147.493 159.401 147.43 159.32 147.38 159.23C147.361 159.19 147.331 159.156 147.292 159.134C147.254 159.112 147.21 159.102 147.166 159.105C147.15 159.103 147.134 159.105 147.118 159.11C147.103 159.115 147.088 159.123 147.076 159.134C147.064 159.145 147.054 159.158 147.048 159.173C147.041 159.188 147.038 159.205 147.038 159.221C147.033 159.27 147.033 159.319 147.038 159.368C147.047 159.429 147.058 159.488 147.073 159.547C147.104 159.676 147.162 159.796 147.243 159.9C147.325 160.003 147.427 160.088 147.544 160.149C147.717 160.239 147.904 160.295 148.098 160.315C148.226 160.333 148.355 160.34 148.484 160.338C148.511 160.337 148.537 160.341 148.563 160.347C148.572 160.35 148.58 160.356 148.586 160.363C148.592 160.371 148.595 160.381 148.594 160.39C148.596 160.402 148.594 160.413 148.588 160.423C148.582 160.433 148.572 160.44 148.561 160.443C148.543 160.449 148.524 160.452 148.505 160.452C148.471 160.452 148.437 160.452 148.403 160.452L146.953 160.45Z" fill="black"></path><path d="M141.908 157.011C141.945 156.999 141.95 156.97 141.963 156.948C142.063 156.773 142.214 156.634 142.396 156.548C142.579 156.463 142.783 156.437 142.981 156.472C143.179 156.508 143.361 156.604 143.502 156.748C143.644 156.891 143.737 157.075 143.77 157.274C143.791 157.413 143.77 157.556 143.709 157.684C143.653 157.8 143.588 157.913 143.516 158.02C143.37 158.242 143.209 158.457 143.049 158.667C142.856 158.929 142.661 159.183 142.478 159.453C142.282 159.733 142.106 160.027 141.954 160.333C141.946 160.349 141.942 160.369 141.919 160.378C141.896 160.387 141.892 160.356 141.885 160.342C141.694 159.961 141.469 159.598 141.215 159.257C141.022 158.995 140.825 158.733 140.631 158.471C140.513 158.312 140.396 158.152 140.289 157.986C140.232 157.899 140.18 157.804 140.131 157.708C140.046 157.545 140.029 157.354 140.082 157.177C140.132 156.995 140.234 156.83 140.375 156.705C140.517 156.579 140.692 156.497 140.879 156.469C141.066 156.441 141.257 156.469 141.429 156.548C141.601 156.627 141.746 156.755 141.847 156.915C141.867 156.943 141.888 156.977 141.908 157.011Z" fill="#EA1C24"></path><path d="M136.556 156.493C136.584 156.504 136.607 156.527 136.618 156.555C136.8 156.841 137.005 157.113 137.229 157.367C137.418 157.585 137.613 157.798 137.806 158.013C137.993 158.208 138.164 158.418 138.316 158.641C138.358 158.705 138.39 158.774 138.412 158.847C138.429 158.906 138.432 158.967 138.42 159.027C138.402 159.129 138.364 159.225 138.308 159.312C138.251 159.398 138.178 159.473 138.093 159.53C137.928 159.649 137.731 159.715 137.528 159.72C137.372 159.729 137.215 159.707 137.068 159.656C136.949 159.614 136.84 159.548 136.748 159.464C136.732 159.442 136.709 159.427 136.683 159.42C136.652 159.429 136.657 159.453 136.66 159.476C136.684 159.619 136.741 159.755 136.827 159.872C136.912 159.989 137.025 160.085 137.154 160.15C137.325 160.236 137.509 160.291 137.699 160.311C137.819 160.328 137.941 160.335 138.062 160.333C138.089 160.332 138.115 160.334 138.142 160.337C138.155 160.337 138.168 160.342 138.178 160.351C138.188 160.361 138.194 160.373 138.195 160.387C138.195 160.418 138.176 160.44 138.137 160.445C138.122 160.447 138.107 160.447 138.092 160.445H135.099C135.054 160.446 135.008 160.443 134.963 160.437C134.952 160.436 134.941 160.43 134.934 160.421C134.926 160.412 134.923 160.401 134.923 160.389C134.922 160.378 134.925 160.366 134.931 160.357C134.938 160.347 134.948 160.341 134.959 160.338C134.977 160.333 134.997 160.33 135.016 160.33C135.05 160.33 135.084 160.33 135.118 160.33C135.301 160.33 135.483 160.307 135.66 160.264C135.771 160.237 135.878 160.196 135.979 160.14C136.1 160.076 136.205 159.985 136.287 159.875C136.37 159.765 136.427 159.638 136.454 159.503C136.459 159.478 136.47 159.451 136.446 159.424C136.406 159.424 136.381 159.458 136.353 159.481C136.218 159.595 136.055 159.67 135.882 159.699C135.5 159.761 135.154 159.688 134.88 159.395C134.771 159.276 134.705 159.126 134.692 158.966C134.689 158.901 134.703 158.836 134.733 158.778C134.786 158.66 134.856 158.55 134.94 158.452C135.095 158.259 135.257 158.074 135.425 157.892C135.699 157.591 135.972 157.29 136.218 156.965C136.304 156.853 136.384 156.736 136.458 156.616C136.479 156.567 136.513 156.525 136.556 156.493Z" fill="black"></path><path d="M132.073 143.266H125.912C125.863 143.266 125.814 143.266 125.764 143.266C125.755 143.266 125.747 143.265 125.739 143.261C125.731 143.258 125.723 143.253 125.717 143.247C125.711 143.241 125.706 143.234 125.703 143.226C125.699 143.218 125.698 143.209 125.698 143.201C125.696 143.178 125.696 143.155 125.698 143.133V142.79C125.698 142.775 125.698 142.76 125.698 142.745C125.704 142.677 125.721 142.657 125.785 142.653C125.815 142.653 125.845 142.653 125.872 142.653H138.27C138.312 142.653 138.354 142.655 138.395 142.659C138.409 142.661 138.421 142.666 138.431 142.676C138.441 142.686 138.447 142.698 138.448 142.712C138.452 142.73 138.454 142.749 138.454 142.767V143.156C138.454 143.175 138.452 143.193 138.449 143.212C138.448 143.225 138.442 143.238 138.432 143.248C138.423 143.257 138.41 143.263 138.397 143.265C138.378 143.269 138.359 143.271 138.34 143.27H132.073V143.266Z" fill="black"></path><path d="M147.67 142.628H153.459C153.509 142.628 153.558 142.628 153.607 142.632C153.656 142.636 153.667 142.657 153.673 142.698C153.674 142.714 153.674 142.729 153.673 142.744V143.143C153.672 143.166 153.67 143.189 153.666 143.211C153.664 143.222 153.658 143.233 153.65 143.241C153.642 143.249 153.632 143.254 153.62 143.256C153.602 143.261 153.583 143.263 153.564 143.263H141.89C141.84 143.263 141.791 143.263 141.742 143.263C141.693 143.263 141.671 143.239 141.671 143.19C141.671 143.027 141.671 142.863 141.671 142.7C141.671 142.691 141.672 142.683 141.675 142.674C141.678 142.666 141.683 142.659 141.69 142.653C141.696 142.647 141.703 142.642 141.712 142.639C141.72 142.636 141.729 142.634 141.737 142.635C141.783 142.63 141.825 142.63 141.873 142.63H147.67V142.628Z" fill="black"></path><path d="M137.035 137.654C137.076 137.641 137.12 137.637 137.163 137.641C137.599 137.641 138.036 137.641 138.472 137.641C138.548 137.641 138.624 137.641 138.7 137.649C138.757 137.653 138.813 137.665 138.867 137.684C138.929 137.703 138.985 137.739 139.028 137.788C139.072 137.836 139.1 137.897 139.111 137.961C139.125 138.032 139.131 138.104 139.129 138.176V141.038C139.131 141.126 139.126 141.214 139.112 141.3C139.105 141.377 139.072 141.449 139.018 141.504C138.964 141.559 138.892 141.593 138.815 141.6C138.744 141.613 138.672 141.62 138.599 141.62C138.117 141.62 137.634 141.62 137.151 141.62C137.122 141.626 137.091 141.621 137.064 141.607C137.056 141.585 137.056 141.561 137.064 141.54C137.083 141.427 137.091 141.313 137.088 141.199C137.088 140.162 137.088 139.124 137.088 138.086C137.087 137.968 137.074 137.851 137.047 137.736C137.042 137.709 137.04 137.683 137.035 137.654ZM137.908 141.266C137.978 141.275 138.049 141.275 138.118 141.266C138.166 141.262 138.211 141.242 138.246 141.209C138.281 141.176 138.304 141.132 138.31 141.085C138.316 141.051 138.318 141.017 138.317 140.982V138.283C138.319 138.254 138.319 138.225 138.317 138.196C138.313 138.161 138.299 138.129 138.276 138.102C138.253 138.076 138.223 138.058 138.189 138.05C138.098 138.03 138.004 138.03 137.912 138.05C137.898 138.15 137.897 141.157 137.91 141.266H137.908Z" fill="#EA1C24"></path><path d="M146.54 139.563C146.585 139.574 146.621 139.583 146.658 139.593C146.713 139.608 146.766 139.629 146.816 139.656C146.862 139.681 146.901 139.715 146.931 139.757C146.962 139.799 146.982 139.848 146.991 139.899C147 139.955 147.005 140.012 147.004 140.069C147.004 140.418 147.004 140.768 147.004 141.117C146.997 141.269 147.019 141.422 147.068 141.566C147.072 141.58 147.073 141.595 147.073 141.61C146.985 141.621 146.477 141.626 146.26 141.618C146.238 141.62 146.217 141.614 146.2 141.602C146.19 141.563 146.187 141.524 146.192 141.485V140.162C146.192 140.121 146.192 140.079 146.192 140.037C146.191 139.995 146.183 139.953 146.167 139.914C146.155 139.878 146.133 139.846 146.105 139.82C146.077 139.795 146.043 139.776 146.006 139.767C145.938 139.753 145.869 139.749 145.8 139.756C145.79 139.765 145.783 139.776 145.778 139.789C145.774 139.801 145.773 139.814 145.775 139.827C145.775 140.299 145.775 140.77 145.775 141.241C145.776 141.34 145.791 141.439 145.821 141.534C145.833 141.557 145.837 141.584 145.833 141.61C145.741 141.623 145.047 141.623 144.947 141.61C144.926 141.592 144.933 141.568 144.937 141.548C144.958 141.393 144.966 141.237 144.961 141.081C144.961 140.138 144.961 139.195 144.961 138.252C144.964 138.081 144.95 137.91 144.917 137.742C144.911 137.721 144.907 137.699 144.904 137.677C144.906 137.67 144.908 137.663 144.912 137.656C144.944 137.644 144.979 137.64 145.013 137.645C145.446 137.645 145.879 137.645 146.313 137.645C146.427 137.641 146.541 137.65 146.653 137.673C146.679 137.68 146.704 137.686 146.73 137.695C146.796 137.714 146.855 137.752 146.9 137.805C146.945 137.858 146.973 137.922 146.982 137.991C146.991 138.048 146.996 138.107 146.998 138.165C146.998 138.45 146.998 138.736 146.998 139.02C146.997 139.07 146.992 139.119 146.984 139.168C146.977 139.229 146.955 139.287 146.92 139.337C146.885 139.387 146.838 139.428 146.784 139.456C146.729 139.483 146.673 139.506 146.616 139.527C146.588 139.53 146.561 139.543 146.54 139.563ZM145.777 139.38C145.828 139.389 145.881 139.392 145.933 139.388C145.984 139.389 146.035 139.374 146.077 139.344C146.119 139.314 146.15 139.271 146.166 139.221C146.183 139.175 146.192 139.126 146.192 139.076C146.192 138.807 146.192 138.538 146.192 138.268C146.192 138.246 146.19 138.223 146.187 138.201C146.181 138.165 146.166 138.131 146.144 138.103C146.121 138.074 146.091 138.052 146.057 138.039C146.022 138.025 145.984 138.019 145.947 138.021C145.89 138.014 145.832 138.02 145.777 138.039V139.38Z" fill="#EA1C24"></path><path d="M134.569 139.56C134.636 139.579 134.695 139.595 134.752 139.613C134.807 139.63 134.858 139.657 134.902 139.693C134.938 139.723 134.967 139.758 134.988 139.799C135.009 139.839 135.022 139.884 135.026 139.929C135.03 139.975 135.032 140.021 135.031 140.066C135.031 140.427 135.031 140.789 135.031 141.149C135.029 141.279 135.048 141.407 135.087 141.531C135.093 141.542 135.097 141.555 135.099 141.568C135.1 141.582 135.099 141.595 135.095 141.608C134.812 141.622 134.527 141.622 134.243 141.608C134.215 141.581 134.225 141.545 134.225 141.512C134.225 141.292 134.225 141.075 134.225 140.851C134.225 140.603 134.225 140.356 134.225 140.109C134.226 140.052 134.22 139.995 134.206 139.94C134.195 139.893 134.171 139.85 134.136 139.818C134.1 139.785 134.056 139.764 134.009 139.757C133.947 139.746 133.884 139.746 133.822 139.757C133.813 139.766 133.807 139.777 133.803 139.788C133.8 139.8 133.799 139.812 133.801 139.824C133.801 140.288 133.801 140.752 133.801 141.216C133.801 141.322 133.817 141.429 133.848 141.531C133.856 141.555 133.87 141.58 133.858 141.607C133.763 141.621 133.072 141.621 132.971 141.607C132.954 141.592 132.961 141.573 132.964 141.555C132.983 141.42 132.993 141.283 132.993 141.146C132.993 140.165 132.993 139.185 132.993 138.204C132.994 138.067 132.982 137.93 132.957 137.796C132.949 137.751 132.944 137.709 132.938 137.664C132.954 137.637 132.978 137.64 133 137.639C133.068 137.639 133.137 137.639 133.205 137.639C133.577 137.639 133.95 137.639 134.323 137.639C134.444 137.634 134.566 137.643 134.686 137.666C134.704 137.671 134.723 137.674 134.741 137.679C134.814 137.696 134.88 137.736 134.93 137.791C134.979 137.847 135.011 137.917 135.02 137.991C135.028 138.04 135.031 138.09 135.031 138.139C135.031 138.436 135.031 138.732 135.031 139.029C135.032 139.058 135.032 139.087 135.031 139.116C135.027 139.187 135.004 139.255 134.965 139.314C134.926 139.373 134.871 139.42 134.807 139.451C134.756 139.475 134.703 139.496 134.649 139.514C134.618 139.521 134.59 139.537 134.569 139.56ZM133.811 139.38C133.865 139.391 133.921 139.393 133.975 139.387C134.021 139.386 134.066 139.372 134.104 139.346C134.141 139.319 134.17 139.282 134.187 139.239C134.212 139.18 134.225 139.116 134.223 139.051C134.223 138.796 134.223 138.542 134.223 138.287C134.224 138.246 134.218 138.204 134.205 138.164C134.196 138.137 134.182 138.112 134.162 138.091C134.143 138.07 134.119 138.053 134.093 138.042C134.055 138.025 134.013 138.018 133.971 138.021C133.916 138.021 133.858 138.008 133.807 138.037C133.795 138.153 133.796 139.28 133.811 139.38Z" fill="#EA1C24"></path><path d="M144.669 137.654C144.677 137.765 144.679 137.877 144.675 137.988C144.621 137.994 144.567 137.994 144.512 137.988C144.459 137.988 144.406 137.988 144.353 137.988C144.299 137.988 144.254 137.988 144.204 137.988C144.154 137.985 144.104 137.987 144.054 137.993C144.049 137.998 144.044 138.003 144.04 138.009C144.04 138.012 144.04 138.016 144.04 138.019C144.04 138.047 144.036 138.073 144.036 138.099C144.036 138.491 144.036 138.883 144.036 139.274C144.037 139.287 144.04 139.3 144.044 139.312C144.132 139.327 144.223 139.331 144.312 139.323C144.4 139.326 144.489 139.317 144.574 139.296C144.596 139.428 144.598 139.563 144.579 139.696C144.492 139.686 144.405 139.672 144.312 139.668C144.225 139.661 144.138 139.661 144.05 139.668C144.044 139.684 144.04 139.701 144.038 139.718C144.038 140.209 144.038 140.699 144.038 141.189C144.041 141.202 144.046 141.215 144.052 141.226C144.279 141.246 144.505 141.207 144.73 141.21C144.755 141.338 144.759 141.469 144.742 141.598C144.724 141.624 144.696 141.619 144.669 141.619H143.214C143.184 141.596 143.192 141.572 143.195 141.55C143.218 141.381 143.226 141.209 143.22 141.038C143.22 140.11 143.22 139.182 143.22 138.254C143.223 138.087 143.209 137.92 143.178 137.756C143.169 137.723 143.167 137.688 143.173 137.654C143.184 137.649 143.195 137.646 143.207 137.644H144.622C144.638 137.646 144.654 137.65 144.669 137.654Z" fill="#EA1C24"></path><path d="M148.45 137.655C148.459 137.65 148.47 137.647 148.48 137.646H149.894C149.91 137.647 149.926 137.65 149.942 137.654C149.95 137.766 149.952 137.878 149.949 137.99C149.88 137.994 149.811 137.994 149.743 137.99C149.67 137.99 149.598 137.99 149.525 137.99C149.453 137.99 149.39 137.99 149.324 137.99C149.304 138.029 149.298 138.074 149.305 138.117C149.305 138.475 149.305 138.832 149.305 139.189C149.305 139.219 149.305 139.25 149.305 139.276C149.308 139.289 149.312 139.302 149.317 139.314C149.492 139.327 149.668 139.32 149.841 139.294C149.86 139.36 149.865 139.43 149.856 139.498C149.863 139.563 149.86 139.628 149.846 139.692C149.758 139.681 149.671 139.667 149.584 139.663C149.5 139.657 149.415 139.657 149.331 139.663C149.32 139.673 149.312 139.685 149.307 139.699C149.302 139.714 149.301 139.729 149.303 139.743C149.303 139.85 149.303 139.956 149.303 140.063V141.092C149.299 141.132 149.302 141.173 149.311 141.213C149.336 141.237 149.364 141.231 149.389 141.232C149.564 141.232 149.738 141.219 149.913 141.211C149.942 141.206 149.972 141.208 150 141.216C150.02 141.344 150.022 141.474 150.007 141.602C149.979 141.63 149.943 141.62 149.91 141.62H148.484C148.474 141.611 148.467 141.6 148.464 141.587C148.46 141.574 148.461 141.561 148.466 141.548C148.489 141.383 148.498 141.215 148.491 141.048C148.491 140.114 148.491 139.179 148.491 138.244C148.493 138.08 148.48 137.917 148.45 137.757C148.439 137.724 148.439 137.688 148.45 137.655Z" fill="#EA1C24"></path><path d="M135.328 137.653C135.621 137.637 135.914 137.637 136.206 137.653C136.215 137.674 136.215 137.698 136.206 137.719C136.189 137.824 136.181 137.93 136.183 138.037C136.183 139.063 136.183 140.089 136.183 141.115C136.177 141.152 136.183 141.19 136.199 141.223C136.421 141.245 136.647 141.207 136.876 141.207C136.897 141.272 136.903 141.341 136.893 141.409C136.893 141.473 136.893 141.537 136.893 141.592C136.885 141.602 136.874 141.61 136.861 141.614C136.848 141.619 136.835 141.62 136.822 141.617H135.41C135.391 141.62 135.371 141.615 135.354 141.605C135.349 141.591 135.346 141.576 135.346 141.561C135.346 141.546 135.349 141.532 135.354 141.518C135.37 141.416 135.377 141.314 135.375 141.211V138.148C135.374 138.019 135.361 137.89 135.338 137.763C135.327 137.727 135.324 137.69 135.328 137.653Z" fill="#EA1C24"></path><path d="M148.196 137.658C148.186 137.745 148.176 137.833 148.165 137.913C148.155 137.984 148.15 138.056 148.151 138.129C148.151 139.136 148.151 140.144 148.151 141.15C148.15 141.276 148.163 141.401 148.19 141.523C148.195 141.547 148.198 141.571 148.2 141.596C148.195 141.605 148.187 141.612 148.178 141.616C148.168 141.621 148.158 141.622 148.147 141.62H147.362C147.345 141.618 147.329 141.616 147.314 141.611C147.312 141.596 147.312 141.58 147.314 141.565C147.336 141.422 147.346 141.278 147.345 141.134C147.345 140.161 147.345 139.188 147.345 138.215C147.347 138.044 147.331 137.873 147.296 137.706C147.293 137.692 147.291 137.678 147.29 137.663C147.297 137.656 147.306 137.651 147.315 137.647C147.324 137.644 147.334 137.643 147.344 137.644C147.628 137.634 147.913 137.638 148.196 137.658Z" fill="#EA1C24"></path><path d="M140.186 142.983V143.61C140.186 143.644 140.186 143.678 140.186 143.712C140.188 143.759 140.172 143.804 140.143 143.84C140.113 143.875 140.071 143.898 140.025 143.904C139.977 143.918 139.928 143.926 139.878 143.926H139.536C139.483 143.924 139.43 143.916 139.379 143.901C139.342 143.893 139.307 143.873 139.282 143.845C139.256 143.816 139.24 143.78 139.237 143.742C139.233 143.713 139.231 143.684 139.231 143.655C139.231 143.199 139.231 142.743 139.231 142.286C139.231 142.275 139.231 142.264 139.231 142.252C139.228 142.2 139.246 142.149 139.281 142.11C139.316 142.07 139.364 142.046 139.417 142.043C139.499 142.029 139.582 142.023 139.665 142.016C139.779 142.014 139.893 142.022 140.006 142.042C140.053 142.047 140.097 142.07 140.129 142.105C140.161 142.14 140.179 142.186 140.18 142.234C140.18 142.271 140.18 142.31 140.18 142.347L140.186 142.983ZM139.799 142.983C139.799 142.778 139.799 142.573 139.799 142.367C139.8 142.333 139.797 142.299 139.793 142.265C139.791 142.255 139.787 142.245 139.782 142.236C139.776 142.227 139.769 142.219 139.76 142.213C139.752 142.207 139.742 142.203 139.732 142.2C139.721 142.198 139.711 142.198 139.7 142.2C139.681 142.198 139.662 142.204 139.647 142.216C139.632 142.229 139.622 142.246 139.62 142.265C139.615 142.303 139.612 142.341 139.613 142.379V143.153C139.613 143.302 139.613 143.449 139.613 143.598C139.612 143.632 139.616 143.666 139.624 143.699C139.63 143.717 139.642 143.733 139.658 143.744C139.674 143.754 139.693 143.76 139.712 143.759C139.731 143.758 139.749 143.751 139.764 143.738C139.778 143.725 139.788 143.708 139.79 143.689C139.796 143.651 139.798 143.613 139.797 143.575C139.8 143.374 139.799 143.179 139.799 142.98V142.983Z" fill="black"></path><path d="M140.736 143.877C140.73 143.886 140.722 143.893 140.713 143.898C140.704 143.903 140.693 143.905 140.683 143.905C140.596 143.905 140.515 143.905 140.432 143.905C140.365 143.905 140.349 143.883 140.344 143.812C140.344 143.789 140.344 143.767 140.344 143.744C140.344 143.272 140.344 142.801 140.344 142.329C140.346 142.257 140.341 142.184 140.331 142.113C140.329 142.104 140.328 142.095 140.33 142.087C140.332 142.078 140.336 142.07 140.341 142.064C140.346 142.057 140.353 142.051 140.361 142.048C140.369 142.044 140.377 142.042 140.386 142.043C140.409 142.041 140.432 142.041 140.454 142.043H140.891C140.91 142.041 140.929 142.041 140.947 142.043C141.009 142.049 141.029 142.071 141.029 142.13C141.029 142.189 141.004 142.217 140.936 142.217C140.894 142.217 140.849 142.207 140.811 142.206C140.802 142.204 140.792 142.205 140.783 142.208C140.774 142.21 140.765 142.215 140.758 142.221C140.75 142.228 140.745 142.236 140.741 142.244C140.737 142.253 140.735 142.263 140.735 142.272C140.734 142.295 140.734 142.318 140.735 142.341V142.691C140.735 142.718 140.736 142.744 140.74 142.771C140.741 142.786 140.747 142.801 140.758 142.812C140.769 142.823 140.784 142.83 140.799 142.83C140.837 142.835 140.875 142.83 140.913 142.836C140.95 142.843 140.981 142.859 140.985 142.907C140.987 142.922 140.987 142.938 140.985 142.953C140.983 142.962 140.979 142.972 140.975 142.981C140.966 142.989 140.955 142.994 140.944 142.997C140.932 143 140.92 143 140.908 142.998C140.878 142.998 140.847 142.998 140.821 142.998C140.766 142.998 140.748 143.021 140.741 143.076C140.741 143.087 140.741 143.098 140.741 143.11C140.746 143.353 140.732 143.597 140.75 143.84C140.747 143.853 140.742 143.865 140.736 143.877Z" fill="black"></path><path d="M128.114 140.734C128.118 140.75 128.12 140.767 128.118 140.784C128.115 140.801 128.11 140.818 128.102 140.832C128.092 140.818 128.086 140.803 128.083 140.786C128.08 140.77 128.081 140.753 128.085 140.736L128.114 140.734Z" fill="#830F13"></path><path d="M153.873 144.849C153.826 144.835 153.825 144.8 153.813 144.774C153.803 144.75 153.785 144.73 153.761 144.718C153.75 144.715 153.738 144.715 153.728 144.719C153.717 144.723 153.708 144.731 153.703 144.741C153.689 144.771 153.703 144.81 153.675 144.835C153.672 144.837 153.668 144.839 153.664 144.839C153.66 144.839 153.656 144.839 153.653 144.837C153.649 144.836 153.646 144.834 153.643 144.831C153.641 144.828 153.639 144.824 153.638 144.821C153.632 144.803 153.629 144.784 153.629 144.766C153.629 144.702 153.629 144.637 153.629 144.573C153.629 144.51 153.653 144.501 153.707 144.497C153.745 144.492 153.783 144.495 153.82 144.504C153.862 144.518 153.896 144.562 153.879 144.6C153.858 144.669 153.858 144.742 153.879 144.811C153.878 144.824 153.876 144.837 153.873 144.849ZM153.817 144.598C153.816 144.583 153.808 144.569 153.796 144.559C153.785 144.55 153.77 144.545 153.755 144.546C153.747 144.546 153.739 144.548 153.733 144.551C153.726 144.554 153.719 144.558 153.714 144.564C153.709 144.569 153.705 144.576 153.703 144.583C153.701 144.591 153.7 144.598 153.701 144.606C153.702 144.612 153.704 144.619 153.707 144.625C153.71 144.631 153.714 144.636 153.719 144.64C153.724 144.644 153.73 144.647 153.737 144.649C153.743 144.651 153.75 144.652 153.756 144.651C153.771 144.652 153.786 144.647 153.798 144.637C153.809 144.627 153.816 144.613 153.817 144.598Z" fill="black"></path></g></g><defs><clipPath id="clip0_295_6625"><rect width="215" height="55" fill="white" transform="translate(42 123)"></rect></clipPath></defs></svg> 