<?xml version="1.0" encoding="UTF-8"?> <svg xmlns="http://www.w3.org/2000/svg" width="300" height="300" viewBox="0 0 300 300" fill="none"><rect width="300" height="300" rx="150" fill="#5E249F"></rect><path d="M94.0362 171.721C91.8843 171.721 89.7465 171.404 87.6088 170.757C86.2497 170.355 85.0604 169.866 84.0411 169.32C83.1209 168.817 82.7386 167.681 83.2058 166.732L84.1827 164.763C84.7631 163.584 85.8249 163.182 86.7452 163.57L87.5238 163.901C88.3733 164.26 89.251 164.533 90.1712 164.734C91.0915 164.936 92.04 165.036 93.0027 165.036C94.6874 165.036 96.0607 164.777 97.1225 164.274C98.1843 163.771 98.9771 163.009 99.5009 161.989C100.025 160.968 100.294 159.674 100.294 158.136V155.592L101.837 155.836C101.61 156.943 101.03 157.949 100.124 158.855C99.2178 159.761 98.0993 160.494 96.7827 161.04C95.4661 161.601 94.0503 161.874 92.5638 161.874C90.1854 161.874 88.0618 161.313 86.193 160.192C84.3243 159.071 82.8519 157.504 81.776 155.506C80.7 153.507 80.162 151.207 80.162 148.577C80.162 145.946 80.6858 143.517 81.7476 141.447C82.8094 139.377 84.2535 137.752 86.1081 136.559C87.9627 135.366 90.0438 134.777 92.3515 134.777C93.3425 134.777 94.291 134.892 95.1971 135.136C96.1031 135.366 96.9526 135.682 97.7312 136.071C98.5099 136.459 99.2036 136.904 99.8124 137.436C100.421 137.954 100.917 138.514 101.299 139.118C101.681 139.722 101.936 140.34 102.063 140.987L100.421 141.389L100.633 137.192C100.69 136.157 101.525 135.352 102.531 135.352H106.353C107.401 135.352 108.264 136.214 108.264 137.292V157.029C108.264 159.214 107.939 162.118 107.302 163.814C106.65 165.511 105.716 166.948 104.47 168.141C103.224 169.334 101.738 170.226 99.9822 170.829C98.2267 171.433 96.2447 171.735 94.0362 171.735V171.721ZM94.2344 155.635C95.5227 155.635 96.6411 155.347 97.5755 154.758C98.524 154.169 99.2461 153.364 99.7557 152.314C100.265 151.279 100.52 150.043 100.52 148.634C100.52 147.226 100.265 145.989 99.7557 144.94C99.2461 143.876 98.5099 143.057 97.5755 142.467C96.6411 141.878 95.5227 141.591 94.2344 141.591C92.9461 141.591 91.8843 141.878 90.964 142.467C90.0438 143.057 89.3218 143.876 88.8121 144.94C88.3025 146.004 88.0476 147.226 88.0476 148.634C88.0476 150.043 88.3025 151.265 88.8121 152.314C89.3218 153.349 90.0438 154.169 90.964 154.758C91.8843 155.347 92.9744 155.635 94.2344 155.635Z" fill="white"></path><path d="M122.903 162.521C120.68 162.521 118.712 161.931 116.971 160.738C115.23 159.545 113.856 157.906 112.837 155.808C111.818 153.709 111.294 151.337 111.294 148.678C111.294 146.018 111.804 143.56 112.837 141.476C113.856 139.391 115.272 137.753 117.056 136.574C118.84 135.381 120.878 134.791 123.158 134.791C124.418 134.791 125.565 134.978 126.598 135.352C127.646 135.726 128.552 136.229 129.345 136.89C130.137 137.551 130.817 138.299 131.383 139.161C131.949 140.024 132.36 140.929 132.629 141.907L130.987 141.706V137.293C130.987 136.229 131.836 135.352 132.898 135.352H136.975C138.023 135.352 138.887 136.214 138.887 137.293V160.163C138.887 161.227 138.037 162.104 136.975 162.104H132.756C131.709 162.104 130.845 161.241 130.845 160.163V155.649L132.629 155.606C132.36 156.541 131.935 157.432 131.341 158.28C130.746 159.114 130.024 159.861 129.16 160.494C128.297 161.126 127.348 161.629 126.287 162.003C125.225 162.377 124.106 162.564 122.917 162.564L122.903 162.521ZM125.083 155.721C126.301 155.721 127.362 155.434 128.254 154.859C129.146 154.284 129.84 153.479 130.336 152.415C130.831 151.351 131.086 150.101 131.086 148.663C131.086 147.226 130.831 145.975 130.336 144.911C129.84 143.848 129.146 143.028 128.254 142.439C127.362 141.849 126.301 141.562 125.083 141.562C123.866 141.562 122.86 141.849 121.983 142.439C121.105 143.028 120.425 143.848 119.93 144.911C119.434 145.975 119.18 147.226 119.18 148.663C119.18 150.101 119.434 151.351 119.93 152.415C120.425 153.479 121.105 154.284 121.983 154.859C122.86 155.434 123.894 155.721 125.083 155.721Z" fill="white"></path><path d="M142.851 160.637V137.321C142.851 136.229 143.714 135.352 144.79 135.352H148.683C149.717 135.352 150.566 136.171 150.623 137.221L150.779 140.282L149.717 140.34C150.127 139.449 150.637 138.658 151.26 137.982C151.883 137.292 152.591 136.717 153.384 136.257C154.176 135.797 154.998 135.452 155.861 135.208C156.725 134.964 157.588 134.849 158.466 134.849C159.783 134.849 160.972 135.05 162.062 135.467C163.138 135.884 164.087 136.531 164.893 137.451C165.7 138.356 166.338 139.578 166.819 141.116L165.559 141.016L165.969 140.196C166.408 139.377 166.975 138.629 167.668 137.968C168.362 137.307 169.127 136.732 169.976 136.272C170.825 135.812 171.689 135.467 172.609 135.222C173.515 134.978 174.393 134.863 175.242 134.863C177.366 134.863 179.136 135.28 180.551 136.128C181.967 136.962 183.043 138.227 183.765 139.909C184.487 141.591 184.855 143.617 184.855 146.018V160.681C184.855 161.773 183.992 162.65 182.916 162.65H178.654C177.578 162.65 176.715 161.773 176.715 160.681V146.679C176.715 145.587 176.559 144.681 176.262 143.962C175.964 143.244 175.511 142.697 174.917 142.338C174.322 141.979 173.6 141.792 172.722 141.792C172.015 141.792 171.363 141.907 170.769 142.151C170.174 142.396 169.679 142.712 169.254 143.129C168.829 143.546 168.504 144.02 168.263 144.566C168.022 145.112 167.909 145.731 167.909 146.421V160.681C167.909 161.773 167.045 162.65 165.969 162.65H161.708C160.632 162.65 159.769 161.773 159.769 160.681V146.636C159.769 145.616 159.613 144.739 159.316 144.02C159.018 143.301 158.551 142.755 157.956 142.381C157.362 142.007 156.64 141.821 155.833 141.821C155.125 141.821 154.474 141.936 153.879 142.18C153.284 142.424 152.789 142.741 152.364 143.157C151.94 143.574 151.614 144.049 151.373 144.595C151.133 145.141 151.019 145.745 151.019 146.392V160.695C151.019 161.787 150.156 162.664 149.08 162.664H144.818C143.742 162.664 142.879 161.787 142.879 160.695L142.851 160.637Z" fill="white"></path><path d="M212.802 142.884C212.207 141.246 211.344 139.808 210.225 138.601C209.107 137.393 207.776 136.459 206.233 135.783C204.69 135.107 203.005 134.777 201.15 134.777C199.197 134.777 197.413 135.122 195.771 135.812C194.128 136.502 192.727 137.479 191.538 138.73C190.348 139.995 189.428 141.476 188.763 143.186C188.097 144.897 187.772 146.78 187.772 148.821C187.772 151.481 188.366 153.838 189.555 155.894C190.745 157.964 192.415 159.588 194.567 160.781C196.719 161.974 199.239 162.564 202.155 162.564C203.345 162.564 204.548 162.42 205.751 162.132C206.955 161.845 208.144 161.414 209.291 160.853C209.9 160.551 210.494 160.206 211.06 159.818C211.924 159.229 212.108 157.992 211.499 157.13L209.914 154.859C209.347 154.039 208.243 153.795 207.38 154.312C206.898 154.614 206.417 154.844 205.978 155.017C205.1 155.347 204.095 155.52 202.977 155.52C201.363 155.52 199.961 155.218 198.786 154.614C197.611 154.011 196.719 153.162 196.11 152.07C195.827 151.567 195.615 151.021 195.473 150.431H211.683C212.717 150.431 213.566 149.597 213.595 148.548V148.275C213.665 146.334 213.396 144.537 212.802 142.884ZM195.898 144.566C196.365 143.574 197.045 142.827 197.951 142.295C198.857 141.777 199.961 141.519 201.249 141.519C202.17 141.519 203.005 141.706 203.727 142.079C204.449 142.453 205.044 142.956 205.482 143.617C205.921 144.279 206.19 145.026 206.247 145.86V145.903H195.445C195.558 145.429 195.7 144.969 195.884 144.566H195.898Z" fill="white"></path><path d="M226.251 155.836L237.818 140.398C238.087 140.053 238.228 139.621 238.228 139.176V136.833C238.228 135.726 237.336 134.82 236.246 134.82H217.502C216.412 134.82 215.52 135.726 215.52 136.833V139.621C215.52 140.728 216.412 141.634 217.502 141.634H227.936L215.931 157.274C215.662 157.633 215.506 158.064 215.506 158.51V160.623C215.506 161.73 216.398 162.636 217.488 162.636H236.685C237.775 162.636 238.667 161.73 238.667 160.623V157.834C238.667 156.728 237.775 155.822 236.685 155.822H226.237L226.251 155.836Z" fill="white"></path><path d="M263.612 134.834C262.791 134.834 262.055 135.366 261.772 136.157L257.27 149.267C256.987 150.086 256.732 150.834 256.505 151.553C256.435 151.294 256.35 151.021 256.265 150.748C255.996 149.957 255.713 149.224 255.401 148.534L250.234 136.028C249.936 135.294 249.229 134.82 248.436 134.82H243.608C242.192 134.82 241.258 136.315 241.838 137.609L252.556 161.328L249.314 169.076C248.776 170.369 249.696 171.793 251.069 171.821L254.792 171.879C255.599 171.879 256.321 171.404 256.619 170.643L259.988 162.089L270.266 137.566C270.818 136.258 269.87 134.82 268.483 134.82H263.598L263.612 134.834Z" fill="white"></path><path fill-rule="evenodd" clip-rule="evenodd" d="M50.4034 164.548C50.3326 163.498 49.6247 162.621 48.662 162.305C48.6195 162.305 48.5771 162.276 48.5346 162.276C42.9566 160.681 38.851 155.491 38.8085 149.324C38.8085 149.296 38.8085 149.253 38.8085 149.224V137.997C38.851 137.479 39.2191 137.048 39.7146 136.919C39.7288 136.919 39.7571 136.919 39.7712 136.919L49.4124 134.748H49.4973C50.007 134.59 50.375 134.144 50.4034 133.598V130.263C50.4034 128.941 49.3557 127.877 48.0532 127.877C37.8175 128.035 29.5638 136.502 29.5638 146.938V150.92C29.5638 162.176 38.1573 171.39 49.0584 172.166C49.0867 172.166 49.115 172.166 49.1434 172.166C49.1858 172.166 49.2141 172.166 49.2566 172.166C49.8795 172.123 50.375 171.62 50.4034 171.002V170.959C50.4034 170.959 50.4034 170.959 50.4034 170.944C50.4034 170.944 50.4034 170.93 50.4034 170.916C50.4034 170.901 50.4034 170.887 50.4034 170.873V164.936C50.4034 164.936 50.4034 164.821 50.4034 164.763C50.4034 164.706 50.4034 164.648 50.4034 164.591V164.548Z" fill="white"></path><path fill-rule="evenodd" clip-rule="evenodd" d="M54.1551 164.548C54.2258 163.498 54.9337 162.621 55.8964 162.305C55.9389 162.305 55.9814 162.276 56.0238 162.276C61.6018 160.681 65.7074 155.491 65.7499 149.324C65.7499 149.296 65.7499 149.253 65.7499 149.224V138.198V137.997C65.7074 137.479 65.3393 137.048 64.8438 136.919C64.8297 136.919 64.8014 136.919 64.7872 136.919L55.1461 134.748H55.0611C54.5515 134.59 54.1834 134.144 54.1551 133.598V130.263C54.1551 128.941 55.2027 127.877 56.5052 127.877C66.7409 128.035 74.9946 136.502 74.9946 146.938V150.92C74.9946 162.176 66.4011 171.39 55.5 172.166C55.4717 172.166 55.4434 172.166 55.4151 172.166C55.3726 172.166 55.3443 172.166 55.3018 172.166C54.6789 172.123 54.1834 171.62 54.1551 171.002V170.959C54.1551 170.959 54.1551 170.959 54.1551 170.944C54.1551 170.944 54.1551 170.93 54.1551 170.916C54.1551 170.901 54.1551 170.887 54.1551 170.873V164.936C54.1551 164.936 54.1551 164.821 54.1551 164.763C54.1551 164.706 54.1551 164.648 54.1551 164.591V164.548Z" fill="white"></path><path fill-rule="evenodd" clip-rule="evenodd" d="M52.9234 140.196L54.1409 143.991C54.2825 144.451 54.7213 144.768 55.1885 144.768H59.1243C59.8038 144.768 60.0728 145.644 59.5348 146.047L56.3494 148.39C55.9672 148.678 55.7973 149.181 55.953 149.641L57.1706 153.436C57.3829 154.083 56.6467 154.629 56.0946 154.226L52.9092 151.883C52.527 151.596 51.989 151.596 51.6067 151.883L48.4213 154.226C47.8692 154.629 47.1472 154.083 47.3454 153.436L48.5629 149.641C48.7045 149.181 48.5629 148.663 48.1665 148.39L44.9811 146.047C44.429 145.644 44.7121 144.768 45.3917 144.768H49.3274C49.8088 144.768 50.2335 144.451 50.375 143.991L51.5926 140.196C51.8049 139.549 52.711 139.549 52.9234 140.196Z" fill="white"></path></svg> 