<?xml version="1.0" encoding="UTF-8"?> <svg xmlns="http://www.w3.org/2000/svg" width="300" height="300" viewBox="0 0 300 300" fill="none"><rect width="300" height="300" rx="150" fill="black"></rect><g clip-path="url(#clip0_263_21569)"><circle cx="119.501" cy="180" r="52.9375" fill="white"></circle><circle cx="119.501" cy="180" r="30.25" fill="#FF2F33"></circle><path fill-rule="evenodd" clip-rule="evenodd" d="M157.749 196.319C159.648 192.221 160.893 187.676 161.307 182.758H171.714C171.257 189.626 169.518 195.927 166.788 201.539L157.749 196.319ZM124.39 219.624C129.054 219.166 133.621 217.918 137.861 215.958L143.055 224.956C137.222 227.777 130.876 229.523 124.39 230.042V219.624ZM103.615 216.088C107.986 218.143 112.57 219.319 117.166 219.689V230.107C110.799 229.708 104.435 228.082 98.4097 225.109L103.615 216.088ZM87.4906 202.53C88.8156 204.385 90.322 206.178 92.0318 207.884C93.7415 209.594 95.5311 211.101 97.386 212.426L92.1734 221.45C89.5779 219.667 87.0732 217.598 84.6955 215.221C82.3179 212.843 80.2488 210.338 78.4628 207.739L87.4906 202.53ZM80.2306 182.754C80.6045 187.346 81.7734 191.931 83.828 196.301L74.8038 201.507C71.8272 195.481 70.2046 189.117 69.8089 182.754H80.2306ZM83.9587 162.059C82.0021 166.299 80.7461 170.862 80.2924 175.53H69.8743C70.3933 169.04 72.1394 162.698 74.9563 156.861L83.9587 162.059ZM92.137 136.765L97.3534 145.797C93.491 148.548 90.1877 151.946 87.5378 155.779L78.5427 150.585C82.1183 145.209 86.6993 140.486 92.137 136.765ZM117.162 128.206V138.613C112.244 139.023 107.699 140.268 103.601 142.167L98.3843 133.128C103.993 130.398 110.294 128.663 117.162 128.206ZM143.12 133.208L137.911 142.229C133.737 140.29 129.185 139.038 124.39 138.62V128.206C131.069 128.671 137.392 130.424 143.12 133.208ZM154.065 155.747C151.36 151.906 148.006 148.556 144.166 145.848L149.379 136.824C154.776 140.475 159.437 145.136 163.093 150.534L154.065 155.747ZM161.299 175.53C160.878 170.735 159.626 166.176 157.684 162.005L166.705 156.796C169.496 162.524 171.246 168.851 171.71 175.534L161.299 175.53ZM120.763 154.11C126.121 160.491 139.872 174.035 139.872 182.344C139.872 189.586 132.71 195.114 126.03 191.706L128.393 201.303H113.129L115.496 191.702C108.824 195.121 101.651 189.586 101.651 182.344C101.655 174.038 115.405 160.495 120.763 154.11ZM77.4247 222.499C115.957 261.031 182.107 233.596 182.107 179.135C182.107 145.271 154.653 117.813 120.785 117.813C66.3277 117.813 38.8886 183.963 77.4247 222.499ZM219.681 116.43L218.842 109.606L225.667 108.767L226.502 115.592L219.681 116.43ZM197.984 120.184L197.483 113.33L204.337 112.826L204.838 119.679L197.984 120.184ZM179.925 114.365V121.24H173.05V114.365H179.925ZM165.282 127.001C183.167 127.549 229.768 124.961 240.07 111.907V96.6504C223.514 107.406 191.679 109.947 172.712 109.947C153.753 109.947 121.903 107.402 105.354 96.6504V111.907L105.597 112.205C112.599 110.669 119.899 110.234 127.05 110.873L127.308 108.764L134.129 109.602L133.857 111.835C137.759 112.586 141.538 113.671 145.171 115.058L148.377 116.369L148.638 112.822L155.495 113.327L155.027 119.741C158.635 121.828 162.073 124.253 165.282 127.001ZM219.681 141.238L218.846 134.413L225.667 133.575L226.505 140.399L219.681 141.238ZM197.984 145.895L197.483 139.041L204.337 138.537L204.838 145.39L197.984 145.895ZM240.07 121.382C223.55 132.105 191.882 134.656 172.955 134.678C174.429 136.406 175.819 138.207 177.119 140.08H179.925V144.465C181.232 146.69 182.419 148.999 183.471 151.373C193.029 150.952 231.297 147.521 240.07 136.406V121.382ZM219.681 165.334L218.846 158.509L225.667 157.671L226.505 164.495L219.681 165.334ZM197.984 169.991L197.483 163.137L204.337 162.633L204.838 169.486L197.984 169.991ZM240.07 145.873C226.342 154.785 202.133 157.874 186.259 158.785C187.933 164.172 188.956 169.842 189.236 175.708C199.044 175.022 232.143 171.116 240.07 161.068V145.873ZM197.483 188.145L204.337 187.636L204.838 194.49L197.981 194.994L197.483 188.145ZM219.681 190.341L218.846 183.516L225.667 182.678L226.505 189.502L219.681 190.341ZM240.07 170.543C226.973 179.044 204.384 182.195 189.207 183.266C188.866 189.444 187.748 195.281 185.969 200.737C201.658 199.844 240.07 195.539 240.07 179.418V170.543ZM172.709 102.382C185.072 102.382 230.113 99.7976 240.067 87.1797V80.6929C240.07 62.1799 190.546 59 172.709 59C154.871 59 105.35 62.1799 105.35 80.6929V87.1797C115.289 99.7939 160.363 102.382 172.709 102.382ZM144.137 212.378C147.97 209.728 151.371 206.429 154.123 202.567L163.158 207.783C159.441 213.217 154.711 217.802 149.335 221.377L144.137 212.378Z" fill="#262A2F"></path></g><defs><clipPath id="clip0_263_21569"><rect width="181.5" height="181.5" fill="white" transform="translate(59 59)"></rect></clipPath></defs></svg> 