<?xml version="1.0" encoding="UTF-8"?> <svg xmlns="http://www.w3.org/2000/svg" width="300" height="300" viewBox="0 0 300 300" fill="none"><rect width="300" height="300" rx="150" fill="black"></rect><g clip-path="url(#clip0_290_5419)"><path fill-rule="evenodd" clip-rule="evenodd" d="M97.1069 146.939C97.1069 150.552 94.7793 153.054 90.3121 153.054H85.2517V158.945H80.9771V141.264H91.0655C94.9327 141.264 97.1069 143.4 97.1069 146.939ZM92.658 146.989C92.658 145.294 91.571 144.611 89.9785 144.611H85.2517V149.515H89.6241C91.6122 149.515 92.658 148.732 92.658 146.989Z" fill="#FFFFFE"></path><path fill-rule="evenodd" clip-rule="evenodd" d="M118.547 150.147C118.547 156.138 114.172 159.199 108.762 159.199C103.354 159.199 98.981 156.138 98.981 150.147C98.981 144.055 103.354 140.989 108.762 140.989C114.172 140.989 118.547 144.055 118.547 150.147ZM113.997 150.147C113.997 146.38 111.696 144.534 108.762 144.56C105.829 144.587 103.531 146.407 103.531 150.147C103.531 153.786 105.832 155.66 108.762 155.66C111.693 155.66 113.997 153.813 113.997 150.147Z" fill="#FFFFFE"></path><path fill-rule="evenodd" clip-rule="evenodd" d="M128.413 151.666L125.53 154.952V158.945H121.249V141.264H125.521V149.618L132.98 141.264H138.298L131.312 148.732L139.072 158.945H133.787L128.413 151.666Z" fill="#FFFFFE"></path><path fill-rule="evenodd" clip-rule="evenodd" d="M145.611 144.808V148.226H154.356V151.603H145.611V155.329H155.36V158.944H141.336V141.263H155.36V144.808H145.611Z" fill="#FFFFFE"></path><path fill-rule="evenodd" clip-rule="evenodd" d="M165.824 152.599H162.793V158.945H158.519V141.263H168.785C172.903 141.263 174.8 143.626 174.8 146.726C174.8 149.58 173.208 151.748 170.502 152.312L175.76 158.96H170.579L165.824 152.599ZM162.793 149.187H167.444C169.186 149.187 170.35 148.531 170.35 146.939C170.35 145.243 169.169 144.61 167.57 144.61H162.793V149.187Z" fill="#FFFFFE"></path><path fill-rule="evenodd" clip-rule="evenodd" d="M185.194 140.998C187.334 140.975 189.471 141.188 191.566 141.63V145.32C189.382 144.798 187.144 144.536 184.898 144.537C182.798 144.537 181.537 145.193 181.51 146.256C181.483 147.32 182.192 147.796 183.784 147.899L187.173 148.1C190.686 148.304 192.759 149.92 192.759 153.282C192.759 157.781 188.943 159.19 184.594 159.19C182.381 159.172 180.173 158.961 177.997 158.558V154.773C180.207 155.247 182.46 155.493 184.721 155.506C187.424 155.506 188.638 154.851 188.638 153.509C188.638 152.399 187.474 151.917 185.858 151.843L183.052 151.689C179.563 151.512 177.415 149.97 177.415 146.862C177.407 142.767 180.845 140.998 185.194 140.998Z" fill="#FFFFFE"></path><path fill-rule="evenodd" clip-rule="evenodd" d="M210.142 144.941H204.278V158.945H200.005V144.941H194.098V141.263H210.148L210.142 144.941Z" fill="#FFFFFE"></path><path fill-rule="evenodd" clip-rule="evenodd" d="M223.366 155.278H214.922L213.507 158.944H208.881L216.134 141.263H222.152L229.407 158.959H224.781L223.366 155.278ZM222.024 151.816L219.143 144.383L216.261 151.816H222.024Z" fill="#FFFFFE"></path><path fill-rule="evenodd" clip-rule="evenodd" d="M238.914 152.599H235.88V158.945H231.608V141.263H241.872C245.992 141.263 247.886 143.626 247.886 146.726C247.886 149.58 246.294 151.748 243.59 152.312L248.849 158.96H243.664L238.914 152.599ZM235.88 149.187H240.53C242.275 149.187 243.437 148.531 243.437 146.939C243.437 145.243 242.255 144.61 240.657 144.61H235.88V149.187Z" fill="#FFFFFE"></path><path fill-rule="evenodd" clip-rule="evenodd" d="M258.279 140.998C260.424 140.974 262.692 141.187 264.791 141.63V145.32C262.605 144.798 260.237 144.535 257.99 144.537C255.892 144.537 254.629 145.193 254.602 146.256C254.575 147.32 255.284 147.796 256.879 147.899L260.265 148.1C263.777 148.304 265.973 149.92 265.973 153.282C265.973 157.781 262.029 159.19 257.68 159.19C255.464 159.176 253.253 158.967 251.074 158.567V154.774C253.285 155.247 255.538 155.492 257.798 155.506C260.504 155.506 261.715 154.851 261.715 153.509C261.715 152.399 260.554 151.917 258.935 151.843L256.129 151.689C252.643 151.512 250.483 149.97 250.483 146.877C250.483 142.767 253.931 140.998 258.279 140.998Z" fill="#FFFFFE"></path><path fill-rule="evenodd" clip-rule="evenodd" d="M59.4311 138.871C54.3315 133.781 51.0826 130.624 51.0826 130.624C51.0826 130.624 47.8273 133.781 42.7368 138.871C40.0467 141.558 34 148.225 34 154.854C34 159.272 37.5833 162.855 42.0025 162.855C44.9034 162.855 47.4357 161.309 48.8383 158.999V159.001C48.9796 158.829 49.2101 158.687 49.4692 158.687C49.8811 158.687 50.2556 158.978 50.2123 159.337C49.9041 161.721 48.5618 167.595 43.2721 169.579H58.8891C53.6002 167.595 52.2585 161.721 51.9523 159.337C51.9064 158.978 52.2841 158.687 52.6954 158.687C52.9489 158.687 53.1824 158.829 53.3237 159.001L53.327 158.999C54.7237 161.309 57.2586 162.855 60.1592 162.855C64.576 162.855 68.162 159.272 68.162 154.854C68.162 148.225 62.1153 141.558 59.4311 138.871Z" fill="#D70022"></path><path fill-rule="evenodd" clip-rule="evenodd" d="M51.0824 138.885L53.2493 145.563H60.2726L54.5907 149.691L56.7632 156.368L51.0824 152.24L45.4019 156.368L47.5712 149.691L41.8872 145.563H48.9158L51.0824 138.885Z" fill="#FFFFFE"></path></g><defs><clipPath id="clip0_290_5419"><rect width="232" height="39.2615" fill="white" transform="translate(34 130.369)"></rect></clipPath></defs></svg> 